{"glyphs":{"0":{"ha":833,"x_min":61,"x_max":772,"o":"m 417 -22 q 226 40 306 -22 q 103 218 146 103 q 61 492 61 333 q 103 767 61 651 q 226 946 146 883 q 417 1008 306 1008 q 608 946 528 1008 q 730 767 688 883 q 772 492 772 651 q 730 218 772 333 q 608 40 688 103 q 417 -22 528 -22 m 264 492 q 276 338 264 404 l 511 781 q 417 833 474 833 q 304 748 344 833 q 264 492 264 663 m 417 153 q 529 238 489 153 q 569 492 569 322 q 557 649 569 581 l 322 206 q 417 153 360 153 z "},"1":{"ha":833,"x_min":67,"x_max":767,"o":"m 67 0 l 67 178 l 350 178 l 350 647 l 108 647 l 108 811 l 217 811 q 338 851 300 811 q 375 986 375 890 l 547 986 l 547 178 l 767 178 l 767 0 l 67 0 z "},"2":{"ha":833,"x_min":61,"x_max":772,"o":"m 61 0 q 92 210 61 119 q 201 376 124 301 q 417 522 279 451 q 531 600 493 563 q 568 704 568 638 q 534 799 568 764 q 435 833 500 833 q 321 791 360 833 q 269 669 282 749 l 65 682 q 174 921 79 833 q 438 1008 268 1008 q 688 928 604 1008 q 772 715 772 847 q 747 579 772 636 q 665 474 722 522 q 510 374 607 426 q 341 262 390 308 q 288 178 292 215 l 772 178 l 772 0 l 61 0 z "},"3":{"ha":833,"x_min":61,"x_max":772,"o":"m 410 -22 q 153 58 239 -22 q 61 272 68 138 l 261 282 q 310 182 268 211 q 414 153 353 153 q 524 186 479 153 q 569 292 569 219 q 526 399 569 363 q 404 436 482 436 l 331 436 l 331 593 l 404 593 q 501 621 463 593 q 539 713 539 649 q 505 805 539 775 q 413 835 471 835 q 315 805 347 835 q 276 724 283 775 l 76 733 q 176 934 90 860 q 414 1008 263 1008 q 653 938 565 1008 q 742 739 742 867 q 582 528 742 579 q 722 437 672 501 q 772 278 772 372 q 674 58 772 138 q 410 -22 576 -22 z "},"4":{"ha":833,"x_min":39,"x_max":794,"o":"m 479 0 l 479 197 l 39 197 l 39 360 l 453 986 l 678 986 l 678 369 l 794 369 l 794 197 l 678 197 l 678 0 l 479 0 m 225 369 l 479 369 l 479 738 l 225 369 z "},"5":{"ha":833,"x_min":67,"x_max":767,"o":"m 415 -22 q 235 15 311 -22 q 117 117 160 53 q 67 264 74 182 l 269 275 q 415 153 289 153 q 524 196 483 153 q 564 324 564 239 q 524 452 564 407 q 417 497 483 497 q 335 473 371 497 q 285 411 299 449 l 81 421 l 139 986 l 721 986 l 721 808 l 301 808 l 276 596 q 450 657 349 657 q 619 614 547 657 q 728 495 690 571 q 767 322 767 419 q 723 143 767 221 q 600 22 679 65 q 415 -22 521 -22 z "},"6":{"ha":833,"x_min":53,"x_max":781,"o":"m 419 -22 q 147 95 240 -22 q 53 426 53 213 q 75 655 53 549 q 145 840 97 761 q 269 964 193 919 q 456 1008 346 1008 q 617 976 553 1008 q 720 888 682 944 q 776 761 758 832 l 576 747 q 539 809 567 785 q 456 833 511 833 q 326 777 378 833 q 258 593 275 721 q 344 645 293 625 q 460 665 394 665 q 629 624 557 665 q 741 508 701 583 q 781 335 781 433 q 735 145 781 225 q 610 22 690 65 q 419 -22 529 -22 m 415 156 q 535 200 493 156 q 578 328 578 244 q 538 451 578 406 q 424 497 499 497 q 301 450 346 497 q 256 326 256 403 q 297 206 256 256 q 415 156 339 156 z "},"7":{"ha":833,"x_min":75,"x_max":758,"o":"m 232 0 q 320 427 232 224 q 561 808 408 631 l 75 808 l 75 986 l 758 986 l 758 818 q 574 566 644 689 q 472 306 504 443 q 439 0 439 169 l 232 0 z "},"8":{"ha":833,"x_min":53,"x_max":781,"o":"m 417 -22 q 153 52 253 -22 q 53 269 53 126 q 106 433 53 365 q 249 529 158 500 q 136 608 179 556 q 93 736 93 660 q 133 877 93 815 q 247 974 174 939 q 417 1008 319 1008 q 587 974 514 1008 q 700 877 660 939 q 740 736 740 815 q 697 608 740 660 q 583 529 654 556 q 728 433 675 500 q 781 269 781 367 q 681 52 781 126 q 417 -22 581 -22 m 417 608 q 503 637 471 608 q 536 724 536 665 q 503 804 536 775 q 417 833 471 833 q 330 804 363 833 q 297 724 297 775 q 330 637 297 665 q 417 608 363 608 m 417 153 q 531 184 483 153 q 578 289 578 215 q 535 400 578 360 q 417 440 493 440 q 298 400 340 440 q 256 289 256 360 q 303 184 256 215 q 417 153 350 153 z "},"9":{"ha":833,"x_min":53,"x_max":781,"o":"m 414 1008 q 687 891 593 1008 q 781 560 781 774 q 758 331 781 438 q 688 146 736 225 q 564 22 640 67 q 378 -22 488 -22 q 216 10 281 -22 q 113 98 151 42 q 57 225 75 154 l 257 239 q 295 177 268 201 q 378 153 322 153 q 507 209 456 153 q 575 393 558 265 q 490 341 540 361 q 374 321 439 321 q 204 362 276 321 q 92 478 132 403 q 53 651 53 553 q 98 841 53 761 q 224 965 143 921 q 414 1008 304 1008 m 418 831 q 298 786 340 831 q 256 658 256 742 q 295 535 256 582 q 410 489 335 489 q 533 536 488 489 q 578 660 578 583 q 536 781 578 731 q 418 831 494 831 z "},"A":{"ha":833,"x_min":26,"x_max":807,"o":"m 26 0 l 296 986 l 538 986 l 807 0 l 608 0 l 554 210 l 279 210 l 225 0 l 26 0 m 417 747 l 324 382 l 510 382 l 417 747 z "},"Á":{"ha":833,"x_min":26,"x_max":807,"o":"m 26 0 l 296 986 l 538 986 l 807 0 l 608 0 l 554 210 l 279 210 l 225 0 l 26 0 m 417 747 l 324 382 l 510 382 l 417 747 m 333 1067 l 419 1271 l 622 1271 l 497 1067 l 333 1067 z "},"Ă":{"ha":833,"x_min":26,"x_max":807,"o":"m 26 0 l 296 986 l 538 986 l 807 0 l 608 0 l 554 210 l 279 210 l 225 0 l 26 0 m 417 747 l 324 382 l 510 382 l 417 747 m 417 1064 q 267 1119 325 1064 q 206 1268 210 1174 l 319 1268 q 351 1197 325 1217 q 417 1178 378 1178 q 482 1197 456 1178 q 514 1268 508 1217 l 628 1268 q 566 1119 624 1174 q 417 1064 508 1064 z "},"Ǎ":{"ha":833,"x_min":26,"x_max":807,"o":"m 26 0 l 296 986 l 538 986 l 807 0 l 608 0 l 554 210 l 279 210 l 225 0 l 26 0 m 417 747 l 324 382 l 510 382 l 417 747 m 197 1275 l 335 1275 l 417 1154 l 499 1275 l 636 1275 l 501 1063 l 332 1063 l 197 1275 z "},"Â":{"ha":833,"x_min":26,"x_max":807,"o":"m 26 0 l 296 986 l 538 986 l 807 0 l 608 0 l 554 210 l 279 210 l 225 0 l 26 0 m 417 747 l 324 382 l 510 382 l 417 747 m 197 1063 l 332 1275 l 501 1275 l 636 1063 l 499 1063 l 417 1185 l 335 1063 l 197 1063 z "},"Ä":{"ha":833,"x_min":26,"x_max":807,"o":"m 26 0 l 296 986 l 538 986 l 807 0 l 608 0 l 554 210 l 279 210 l 225 0 l 26 0 m 417 747 l 324 382 l 510 382 l 417 747 m 178 1075 l 178 1239 l 369 1239 l 369 1075 l 178 1075 m 464 1075 l 464 1239 l 656 1239 l 656 1075 l 464 1075 z "},"À":{"ha":833,"x_min":26,"x_max":807,"o":"m 26 0 l 296 986 l 538 986 l 807 0 l 608 0 l 554 210 l 279 210 l 225 0 l 26 0 m 417 747 l 324 382 l 510 382 l 417 747 m 342 1067 l 217 1271 l 419 1271 l 506 1067 l 342 1067 z "},"Ā":{"ha":833,"x_min":26,"x_max":807,"o":"m 26 0 l 296 986 l 538 986 l 807 0 l 608 0 l 554 210 l 279 210 l 225 0 l 26 0 m 417 747 l 324 382 l 510 382 l 417 747 m 217 1088 l 217 1228 l 617 1228 l 617 1088 l 217 1088 z "},"Ą":{"ha":833,"x_min":26,"x_max":856,"o":"m 26 0 l 296 986 l 538 986 l 807 0 l 608 0 l 554 210 l 279 210 l 225 0 l 26 0 m 417 747 l 324 382 l 510 382 l 417 747 m 707 -301 q 601 -268 640 -301 q 563 -179 563 -235 q 578 -107 563 -140 q 621 -39 593 -74 l 668 22 l 807 0 l 763 -57 q 730 -108 739 -89 q 721 -142 721 -126 q 758 -178 721 -178 q 819 -157 793 -178 l 856 -261 q 795 -289 836 -276 q 707 -301 754 -301 z "},"Å":{"ha":833,"x_min":26,"x_max":807,"o":"m 26 0 l 296 986 l 538 986 l 807 0 l 608 0 l 554 210 l 279 210 l 225 0 l 26 0 m 417 747 l 324 382 l 510 382 l 417 747 m 415 1040 q 313 1081 354 1040 q 271 1181 271 1121 q 313 1282 271 1242 q 415 1322 354 1322 q 518 1282 476 1322 q 560 1181 560 1242 q 518 1081 560 1121 q 415 1040 476 1040 m 415 1125 q 456 1140 440 1125 q 471 1181 471 1156 q 456 1222 471 1206 q 415 1238 440 1238 q 375 1222 390 1238 q 360 1181 360 1206 q 375 1140 360 1156 q 415 1125 390 1125 z "},"Ã":{"ha":833,"x_min":26,"x_max":807,"o":"m 26 0 l 296 986 l 538 986 l 807 0 l 608 0 l 554 210 l 279 210 l 225 0 l 26 0 m 417 747 l 324 382 l 510 382 l 417 747 m 501 1075 q 447 1086 471 1075 q 397 1117 422 1097 q 364 1140 378 1133 q 333 1147 350 1147 q 298 1129 313 1147 q 281 1067 283 1111 l 188 1067 q 226 1215 189 1169 q 328 1260 264 1260 q 388 1248 363 1260 q 439 1217 413 1236 q 500 1189 475 1189 q 535 1207 522 1189 q 553 1272 549 1225 l 646 1272 q 606 1123 643 1171 q 501 1075 568 1075 z "},"Æ":{"ha":833,"x_min":8,"x_max":814,"o":"m 8 0 l 254 986 l 806 986 l 806 808 l 615 808 l 615 582 l 793 582 l 793 407 l 615 407 l 615 178 l 814 178 l 814 0 l 426 0 l 426 211 l 264 211 l 214 0 l 8 0 m 408 811 l 306 382 l 426 382 l 426 811 l 408 811 z "},"B":{"ha":833,"x_min":94,"x_max":781,"o":"m 94 0 l 94 986 l 397 986 q 651 919 563 986 q 739 722 739 851 q 692 583 739 640 q 547 508 644 526 q 724 429 668 493 q 781 269 781 365 q 690 68 781 136 q 428 0 599 0 l 94 0 m 293 585 l 397 585 q 501 615 467 585 q 536 699 536 644 q 501 782 536 753 q 397 811 467 811 l 293 811 l 293 585 m 293 175 l 429 176 q 540 207 503 176 q 578 292 578 238 q 540 383 578 350 q 429 415 501 415 l 293 415 l 293 175 z "},"C":{"ha":833,"x_min":44,"x_max":782,"o":"m 422 -22 q 218 40 303 -22 q 89 218 133 103 q 44 492 44 333 q 89 767 44 651 q 218 946 133 883 q 422 1008 303 1008 q 660 913 567 1008 q 779 643 753 818 l 576 633 q 520 782 561 731 q 422 833 479 833 q 292 744 338 833 q 247 492 247 656 q 292 241 247 329 q 422 153 338 153 q 524 208 482 153 q 581 367 567 263 l 782 357 q 664 77 758 176 q 422 -22 569 -22 z "},"Ć":{"ha":833,"x_min":44,"x_max":782,"o":"m 422 -22 q 218 40 303 -22 q 89 218 133 103 q 44 492 44 333 q 89 767 44 651 q 218 946 133 883 q 422 1008 303 1008 q 660 913 567 1008 q 779 643 753 818 l 576 633 q 520 782 561 731 q 422 833 479 833 q 292 744 338 833 q 247 492 247 656 q 292 241 247 329 q 422 153 338 153 q 524 208 482 153 q 581 367 567 263 l 782 357 q 664 77 758 176 q 422 -22 569 -22 m 339 1067 l 425 1271 l 628 1271 l 503 1067 l 339 1067 z "},"Č":{"ha":833,"x_min":44,"x_max":782,"o":"m 422 -22 q 218 40 303 -22 q 89 218 133 103 q 44 492 44 333 q 89 767 44 651 q 218 946 133 883 q 422 1008 303 1008 q 660 913 567 1008 q 779 643 753 818 l 576 633 q 520 782 561 731 q 422 833 479 833 q 292 744 338 833 q 247 492 247 656 q 292 241 247 329 q 422 153 338 153 q 524 208 482 153 q 581 367 567 263 l 782 357 q 664 77 758 176 q 422 -22 569 -22 m 203 1275 l 340 1275 l 422 1154 l 504 1275 l 642 1275 l 507 1063 l 338 1063 l 203 1275 z "},"Ç":{"ha":833,"x_min":44,"x_max":782,"o":"m 422 -22 q 218 40 303 -22 q 89 218 133 103 q 44 492 44 333 q 89 767 44 651 q 218 946 133 883 q 422 1008 303 1008 q 660 913 567 1008 q 779 643 753 818 l 576 633 q 520 782 561 731 q 422 833 479 833 q 292 744 338 833 q 247 492 247 656 q 292 241 247 329 q 422 153 338 153 q 524 208 482 153 q 581 367 567 263 l 782 357 q 664 77 758 176 q 422 -22 569 -22 m 429 -322 q 313 -290 358 -322 q 250 -207 268 -258 l 342 -168 q 372 -208 353 -194 q 424 -221 392 -221 q 472 -208 454 -221 q 490 -171 490 -194 q 473 -131 490 -146 q 400 -117 456 -117 l 344 -62 l 389 14 l 508 14 l 471 -43 q 572 -87 540 -50 q 604 -175 604 -124 q 553 -286 604 -250 q 429 -322 501 -322 z "},"Ĉ":{"ha":833,"x_min":44,"x_max":782,"o":"m 422 -22 q 218 40 303 -22 q 89 218 133 103 q 44 492 44 333 q 89 767 44 651 q 218 946 133 883 q 422 1008 303 1008 q 660 913 567 1008 q 779 643 753 818 l 576 633 q 520 782 561 731 q 422 833 479 833 q 292 744 338 833 q 247 492 247 656 q 292 241 247 329 q 422 153 338 153 q 524 208 482 153 q 581 367 567 263 l 782 357 q 664 77 758 176 q 422 -22 569 -22 m 203 1063 l 338 1275 l 507 1275 l 642 1063 l 504 1063 l 422 1185 l 340 1063 l 203 1063 z "},"Ċ":{"ha":833,"x_min":44,"x_max":782,"o":"m 422 -22 q 218 40 303 -22 q 89 218 133 103 q 44 492 44 333 q 89 767 44 651 q 218 946 133 883 q 422 1008 303 1008 q 660 913 567 1008 q 779 643 753 818 l 576 633 q 520 782 561 731 q 422 833 479 833 q 292 744 338 833 q 247 492 247 656 q 292 241 247 329 q 422 153 338 153 q 524 208 482 153 q 581 367 567 263 l 782 357 q 664 77 758 176 q 422 -22 569 -22 m 326 1078 l 326 1242 l 518 1242 l 518 1078 l 326 1078 z "},"D":{"ha":833,"x_min":94,"x_max":789,"o":"m 94 0 l 94 986 l 349 986 q 672 858 556 986 q 789 493 789 731 q 672 128 789 256 q 349 0 556 0 l 94 0 m 293 178 l 350 178 q 526 256 465 178 q 586 493 586 335 q 526 729 586 650 q 350 808 465 808 l 293 808 l 293 178 z "},"Ď":{"ha":833,"x_min":94,"x_max":789,"o":"m 94 0 l 94 986 l 349 986 q 672 858 556 986 q 789 493 789 731 q 672 128 789 256 q 349 0 556 0 l 94 0 m 293 178 l 350 178 q 526 256 465 178 q 586 493 586 335 q 526 729 586 650 q 350 808 465 808 l 293 808 l 293 178 m 197 1275 l 335 1275 l 417 1154 l 499 1275 l 636 1275 l 501 1063 l 332 1063 l 197 1275 z "},"Đ":{"ha":833,"x_min":11,"x_max":789,"o":"m 94 0 l 94 986 l 349 986 q 672 858 556 986 q 789 493 789 731 q 672 128 789 256 q 349 0 556 0 l 94 0 m 293 178 l 350 178 q 526 256 465 178 q 586 493 586 335 q 526 729 586 650 q 350 808 465 808 l 293 808 l 293 178 m 11 414 l 11 574 l 489 574 l 489 414 l 11 414 z "},"Ð":{"ha":833,"x_min":11,"x_max":789,"o":"m 94 0 l 94 986 l 349 986 q 672 858 556 986 q 789 493 789 731 q 672 128 789 256 q 349 0 556 0 l 94 0 m 293 178 l 350 178 q 526 256 465 178 q 586 493 586 335 q 526 729 586 650 q 350 808 465 808 l 293 808 l 293 178 m 11 414 l 11 574 l 489 574 l 489 414 l 11 414 z "},"E":{"ha":833,"x_min":117,"x_max":744,"o":"m 117 0 l 117 986 l 733 986 l 733 808 l 314 808 l 314 582 l 717 582 l 717 407 l 314 407 l 314 178 l 744 178 l 744 0 l 117 0 z "},"É":{"ha":833,"x_min":117,"x_max":744,"o":"m 117 0 l 117 986 l 733 986 l 733 808 l 314 808 l 314 582 l 717 582 l 717 407 l 314 407 l 314 178 l 744 178 l 744 0 l 117 0 m 350 1068 l 436 1272 l 639 1272 l 514 1068 l 350 1068 z "},"Ě":{"ha":833,"x_min":117,"x_max":744,"o":"m 117 0 l 117 986 l 733 986 l 733 808 l 314 808 l 314 582 l 717 582 l 717 407 l 314 407 l 314 178 l 744 178 l 744 0 l 117 0 m 214 1276 l 351 1276 l 433 1156 l 515 1276 l 653 1276 l 518 1064 l 349 1064 l 214 1276 z "},"Ê":{"ha":833,"x_min":117,"x_max":744,"o":"m 117 0 l 117 986 l 733 986 l 733 808 l 314 808 l 314 582 l 717 582 l 717 407 l 314 407 l 314 178 l 744 178 l 744 0 l 117 0 m 214 1064 l 349 1276 l 518 1276 l 653 1064 l 515 1064 l 433 1186 l 351 1064 l 214 1064 z "},"Ë":{"ha":833,"x_min":117,"x_max":744,"o":"m 117 0 l 117 986 l 733 986 l 733 808 l 314 808 l 314 582 l 717 582 l 717 407 l 314 407 l 314 178 l 744 178 l 744 0 l 117 0 m 194 1076 l 194 1240 l 386 1240 l 386 1076 l 194 1076 m 481 1076 l 481 1240 l 672 1240 l 672 1076 l 481 1076 z "},"Ė":{"ha":833,"x_min":117,"x_max":744,"o":"m 117 0 l 117 986 l 733 986 l 733 808 l 314 808 l 314 582 l 717 582 l 717 407 l 314 407 l 314 178 l 744 178 l 744 0 l 117 0 m 338 1079 l 338 1243 l 529 1243 l 529 1079 l 338 1079 z "},"È":{"ha":833,"x_min":117,"x_max":744,"o":"m 117 0 l 117 986 l 733 986 l 733 808 l 314 808 l 314 582 l 717 582 l 717 407 l 314 407 l 314 178 l 744 178 l 744 0 l 117 0 m 358 1068 l 233 1272 l 436 1272 l 522 1068 l 358 1068 z "},"Ē":{"ha":833,"x_min":117,"x_max":744,"o":"m 117 0 l 117 986 l 733 986 l 733 808 l 314 808 l 314 582 l 717 582 l 717 407 l 314 407 l 314 178 l 744 178 l 744 0 l 117 0 m 233 1089 l 233 1229 l 633 1229 l 633 1089 l 233 1089 z "},"Ę":{"ha":833,"x_min":117,"x_max":796,"o":"m 117 0 l 117 986 l 733 986 l 733 808 l 314 808 l 314 582 l 717 582 l 717 407 l 314 407 l 314 178 l 744 178 l 744 0 l 117 0 m 647 -301 q 542 -268 581 -301 q 503 -179 503 -235 q 518 -107 503 -140 q 561 -39 533 -74 l 608 22 l 747 0 l 703 -57 q 670 -108 679 -89 q 661 -142 661 -126 q 699 -178 661 -178 q 760 -157 733 -178 l 796 -261 q 735 -289 776 -276 q 647 -301 694 -301 z "},"Ẽ":{"ha":833,"x_min":117,"x_max":744,"o":"m 117 0 l 117 986 l 733 986 l 733 808 l 314 808 l 314 582 l 717 582 l 717 407 l 314 407 l 314 178 l 744 178 l 744 0 l 117 0 m 518 1076 q 463 1088 488 1076 q 414 1118 439 1099 q 381 1142 394 1135 q 350 1149 367 1149 q 315 1131 329 1149 q 297 1068 300 1113 l 204 1068 q 243 1216 206 1171 q 344 1261 281 1261 q 404 1249 379 1261 q 456 1218 429 1238 q 517 1190 492 1190 q 552 1208 539 1190 q 569 1274 565 1226 l 663 1274 q 622 1124 660 1172 q 518 1076 585 1076 z "},"Ə":{"ha":833,"x_min":46,"x_max":796,"o":"m 422 -22 q 143 110 240 -22 q 46 471 46 242 l 46 561 l 592 561 q 572 698 592 636 q 514 797 553 760 q 417 833 475 833 q 315 789 353 833 q 260 672 276 744 l 56 694 q 186 923 94 838 q 408 1008 278 1008 q 694 873 592 1008 q 796 493 796 738 q 749 218 796 333 q 617 40 701 103 q 422 -22 532 -22 m 422 153 q 547 218 503 153 q 592 396 592 283 l 254 396 q 301 215 254 278 q 422 153 347 153 z "},"F":{"ha":833,"x_min":131,"x_max":758,"o":"m 131 0 l 131 986 l 758 986 l 758 808 l 328 808 l 328 569 l 733 569 l 733 396 l 328 396 l 328 0 l 131 0 z "},"G":{"ha":833,"x_min":44,"x_max":781,"o":"m 419 -22 q 223 38 307 -22 q 92 213 139 99 q 44 492 44 328 q 90 767 44 651 q 219 946 135 883 q 421 1008 303 1008 q 658 918 567 1008 q 781 661 749 828 l 579 650 q 422 831 546 831 q 293 743 339 831 q 247 492 247 656 q 297 242 247 329 q 435 156 346 156 q 550 209 508 156 q 594 358 592 263 l 419 358 l 419 513 l 778 513 l 778 0 l 646 0 l 642 108 q 553 14 610 50 q 419 -22 497 -22 z "},"Ğ":{"ha":833,"x_min":44,"x_max":781,"o":"m 419 -22 q 223 38 307 -22 q 92 213 139 99 q 44 492 44 328 q 90 767 44 651 q 219 946 135 883 q 421 1008 303 1008 q 658 918 567 1008 q 781 661 749 828 l 579 650 q 422 831 546 831 q 293 743 339 831 q 247 492 247 656 q 297 242 247 329 q 435 156 346 156 q 550 209 508 156 q 594 358 592 263 l 419 358 l 419 513 l 778 513 l 778 0 l 646 0 l 642 108 q 553 14 610 50 q 419 -22 497 -22 m 421 1064 q 272 1119 329 1064 q 210 1268 214 1174 l 324 1268 q 356 1197 329 1217 q 421 1178 382 1178 q 486 1197 460 1178 q 518 1268 513 1217 l 632 1268 q 570 1119 628 1174 q 421 1064 513 1064 z "},"Ǧ":{"ha":833,"x_min":44,"x_max":781,"o":"m 419 -22 q 223 38 307 -22 q 92 213 139 99 q 44 492 44 328 q 90 767 44 651 q 219 946 135 883 q 421 1008 303 1008 q 658 918 567 1008 q 781 661 749 828 l 579 650 q 422 831 546 831 q 293 743 339 831 q 247 492 247 656 q 297 242 247 329 q 435 156 346 156 q 550 209 508 156 q 594 358 592 263 l 419 358 l 419 513 l 778 513 l 778 0 l 646 0 l 642 108 q 553 14 610 50 q 419 -22 497 -22 m 201 1275 l 339 1275 l 421 1154 l 503 1275 l 640 1275 l 506 1063 l 336 1063 l 201 1275 z "},"Ĝ":{"ha":833,"x_min":44,"x_max":781,"o":"m 419 -22 q 223 38 307 -22 q 92 213 139 99 q 44 492 44 328 q 90 767 44 651 q 219 946 135 883 q 421 1008 303 1008 q 658 918 567 1008 q 781 661 749 828 l 579 650 q 422 831 546 831 q 293 743 339 831 q 247 492 247 656 q 297 242 247 329 q 435 156 346 156 q 550 209 508 156 q 594 358 592 263 l 419 358 l 419 513 l 778 513 l 778 0 l 646 0 l 642 108 q 553 14 610 50 q 419 -22 497 -22 m 201 1063 l 336 1275 l 506 1275 l 640 1063 l 503 1063 l 421 1185 l 339 1063 l 201 1063 z "},"Ģ":{"ha":833,"x_min":44,"x_max":781,"o":"m 419 -22 q 223 38 307 -22 q 92 213 139 99 q 44 492 44 328 q 90 767 44 651 q 219 946 135 883 q 421 1008 303 1008 q 658 918 567 1008 q 781 661 749 828 l 579 650 q 422 831 546 831 q 293 743 339 831 q 247 492 247 656 q 297 242 247 329 q 435 156 346 156 q 550 209 508 156 q 594 358 592 263 l 419 358 l 419 513 l 778 513 l 778 0 l 646 0 l 642 108 q 553 14 610 50 q 419 -22 497 -22 m 306 -351 l 392 -224 l 332 -224 l 332 -68 l 510 -68 l 510 -210 l 408 -351 l 306 -351 z "},"Ġ":{"ha":833,"x_min":44,"x_max":781,"o":"m 419 -22 q 223 38 307 -22 q 92 213 139 99 q 44 492 44 328 q 90 767 44 651 q 219 946 135 883 q 421 1008 303 1008 q 658 918 567 1008 q 781 661 749 828 l 579 650 q 422 831 546 831 q 293 743 339 831 q 247 492 247 656 q 297 242 247 329 q 435 156 346 156 q 550 209 508 156 q 594 358 592 263 l 419 358 l 419 513 l 778 513 l 778 0 l 646 0 l 642 108 q 553 14 610 50 q 419 -22 497 -22 m 325 1078 l 325 1242 l 517 1242 l 517 1078 l 325 1078 z "},"Ḡ":{"ha":833,"x_min":44,"x_max":781,"o":"m 419 -22 q 223 38 307 -22 q 92 213 139 99 q 44 492 44 328 q 90 767 44 651 q 219 946 135 883 q 421 1008 303 1008 q 658 918 567 1008 q 781 661 749 828 l 579 650 q 422 831 546 831 q 293 743 339 831 q 247 492 247 656 q 297 242 247 329 q 435 156 346 156 q 550 209 508 156 q 594 358 592 263 l 419 358 l 419 513 l 778 513 l 778 0 l 646 0 l 642 108 q 553 14 610 50 q 419 -22 497 -22 m 221 1088 l 221 1228 l 621 1228 l 621 1088 l 221 1088 z "},"Ǥ":{"ha":833,"x_min":22,"x_max":817,"o":"m 417 -22 q 209 38 297 -22 q 72 214 121 99 q 22 492 22 329 q 68 764 22 647 q 199 944 114 881 q 408 1008 285 1008 q 656 915 568 1008 q 771 661 744 822 l 568 650 q 516 784 553 735 q 410 833 479 833 q 274 743 322 833 q 226 492 226 653 q 272 244 226 332 q 417 156 318 156 q 504 174 468 156 q 561 235 540 192 l 411 235 l 411 335 l 586 335 q 589 396 589 363 l 411 396 l 411 513 l 775 513 l 775 439 q 769 335 775 383 l 817 335 l 817 235 l 751 235 q 632 40 717 103 q 417 -22 547 -22 z "},"H":{"ha":833,"x_min":67,"x_max":767,"o":"m 67 0 l 67 986 l 264 986 l 264 585 l 569 585 l 569 986 l 767 986 l 767 0 l 569 0 l 569 407 l 264 407 l 264 0 l 67 0 z "},"Ħ":{"ha":833,"x_min":19,"x_max":814,"o":"m 67 0 l 67 986 l 264 986 l 264 585 l 569 585 l 569 986 l 767 986 l 767 0 l 569 0 l 569 407 l 264 407 l 264 0 l 67 0 m 19 722 l 19 876 l 814 876 l 814 722 l 19 722 z "},"Ĥ":{"ha":833,"x_min":67,"x_max":767,"o":"m 67 0 l 67 986 l 264 986 l 264 585 l 569 585 l 569 986 l 767 986 l 767 0 l 569 0 l 569 407 l 264 407 l 264 0 l 67 0 m 197 1063 l 332 1275 l 501 1275 l 636 1063 l 499 1063 l 417 1185 l 335 1063 l 197 1063 z "},"I":{"ha":833,"x_min":103,"x_max":731,"o":"m 103 0 l 103 178 l 318 178 l 318 808 l 103 808 l 103 986 l 731 986 l 731 808 l 515 808 l 515 178 l 731 178 l 731 0 l 103 0 z "},"Í":{"ha":833,"x_min":103,"x_max":731,"o":"m 103 0 l 103 178 l 318 178 l 318 808 l 103 808 l 103 986 l 731 986 l 731 808 l 515 808 l 515 178 l 731 178 l 731 0 l 103 0 m 333 1067 l 419 1271 l 622 1271 l 497 1067 l 333 1067 z "},"Î":{"ha":833,"x_min":103,"x_max":731,"o":"m 103 0 l 103 178 l 318 178 l 318 808 l 103 808 l 103 986 l 731 986 l 731 808 l 515 808 l 515 178 l 731 178 l 731 0 l 103 0 m 197 1063 l 332 1275 l 501 1275 l 636 1063 l 499 1063 l 417 1185 l 335 1063 l 197 1063 z "},"Ï":{"ha":833,"x_min":103,"x_max":731,"o":"m 103 0 l 103 178 l 318 178 l 318 808 l 103 808 l 103 986 l 731 986 l 731 808 l 515 808 l 515 178 l 731 178 l 731 0 l 103 0 m 178 1075 l 178 1239 l 369 1239 l 369 1075 l 178 1075 m 464 1075 l 464 1239 l 656 1239 l 656 1075 l 464 1075 z "},"İ":{"ha":833,"x_min":103,"x_max":731,"o":"m 103 0 l 103 178 l 318 178 l 318 808 l 103 808 l 103 986 l 731 986 l 731 808 l 515 808 l 515 178 l 731 178 l 731 0 l 103 0 m 321 1078 l 321 1242 l 513 1242 l 513 1078 l 321 1078 z "},"Ì":{"ha":833,"x_min":103,"x_max":731,"o":"m 103 0 l 103 178 l 318 178 l 318 808 l 103 808 l 103 986 l 731 986 l 731 808 l 515 808 l 515 178 l 731 178 l 731 0 l 103 0 m 342 1067 l 217 1271 l 419 1271 l 506 1067 l 342 1067 z "},"Ī":{"ha":833,"x_min":103,"x_max":731,"o":"m 103 0 l 103 178 l 318 178 l 318 808 l 103 808 l 103 986 l 731 986 l 731 808 l 515 808 l 515 178 l 731 178 l 731 0 l 103 0 m 217 1088 l 217 1228 l 617 1228 l 617 1088 l 217 1088 z "},"Į":{"ha":833,"x_min":103,"x_max":779,"o":"m 103 0 l 103 178 l 318 178 l 318 808 l 103 808 l 103 986 l 731 986 l 731 808 l 515 808 l 515 178 l 731 178 l 731 0 l 103 0 m 631 -301 q 525 -268 564 -301 q 486 -179 486 -235 q 501 -107 486 -140 q 544 -39 517 -74 l 592 22 l 731 0 l 686 -57 q 653 -108 663 -89 q 644 -142 644 -126 q 682 -178 644 -178 q 743 -157 717 -178 l 779 -261 q 719 -289 760 -276 q 631 -301 678 -301 z "},"Ĩ":{"ha":833,"x_min":103,"x_max":731,"o":"m 103 0 l 103 178 l 318 178 l 318 808 l 103 808 l 103 986 l 731 986 l 731 808 l 515 808 l 515 178 l 731 178 l 731 0 l 103 0 m 501 1075 q 447 1086 471 1075 q 397 1117 422 1097 q 364 1140 378 1133 q 333 1147 350 1147 q 298 1129 313 1147 q 281 1067 283 1111 l 188 1067 q 226 1215 189 1169 q 328 1260 264 1260 q 388 1248 363 1260 q 439 1217 413 1236 q 500 1189 475 1189 q 535 1207 522 1189 q 553 1272 549 1225 l 646 1272 q 606 1123 643 1171 q 501 1075 568 1075 z "},"J":{"ha":833,"x_min":47,"x_max":717,"o":"m 383 -22 q 139 76 228 -22 q 47 350 50 174 l 246 361 q 281 202 249 251 q 385 153 314 153 q 487 199 454 153 q 519 342 519 244 l 519 986 l 717 986 l 717 342 q 629 74 717 169 q 383 -22 542 -22 z "},"Ĵ":{"ha":833,"x_min":47,"x_max":849,"o":"m 383 -22 q 139 76 228 -22 q 47 350 50 174 l 246 361 q 281 202 249 251 q 385 153 314 153 q 487 199 454 153 q 519 342 519 244 l 519 986 l 717 986 l 717 342 q 629 74 717 169 q 383 -22 542 -22 m 410 1063 l 544 1275 l 714 1275 l 849 1063 l 711 1063 l 629 1185 l 547 1063 l 410 1063 z "},"K":{"ha":833,"x_min":67,"x_max":786,"o":"m 67 0 l 67 986 l 264 986 l 264 583 l 544 986 l 781 986 l 464 556 l 786 0 l 569 0 l 349 399 l 264 285 l 264 0 l 67 0 z "},"Ǩ":{"ha":833,"x_min":67,"x_max":786,"o":"m 67 0 l 67 986 l 264 986 l 264 583 l 544 986 l 781 986 l 464 556 l 786 0 l 569 0 l 349 399 l 264 285 l 264 0 l 67 0 m 163 1275 l 300 1275 l 382 1154 l 464 1275 l 601 1275 l 467 1063 l 297 1063 l 163 1275 z "},"Ķ":{"ha":833,"x_min":67,"x_max":786,"o":"m 67 0 l 67 986 l 264 986 l 264 583 l 544 986 l 781 986 l 464 556 l 786 0 l 569 0 l 349 399 l 264 285 l 264 0 l 67 0 m 276 -351 l 363 -224 l 303 -224 l 303 -68 l 481 -68 l 481 -210 l 379 -351 l 276 -351 z "},"L":{"ha":833,"x_min":131,"x_max":758,"o":"m 131 0 l 131 986 l 328 986 l 328 178 l 758 178 l 758 0 l 131 0 z "},"Ĺ":{"ha":833,"x_min":131,"x_max":758,"o":"m 131 0 l 131 986 l 328 986 l 328 178 l 758 178 l 758 0 l 131 0 m 139 1067 l 225 1271 l 428 1271 l 303 1067 l 139 1067 z "},"Ľ":{"ha":833,"x_min":131,"x_max":758,"o":"m 131 0 l 131 986 l 328 986 l 328 178 l 758 178 l 758 0 l 131 0 m 513 589 l 557 986 l 728 986 l 646 589 l 513 589 z "},"Ļ":{"ha":833,"x_min":131,"x_max":758,"o":"m 131 0 l 131 986 l 328 986 l 328 178 l 758 178 l 758 0 l 131 0 m 329 -351 l 415 -224 l 356 -224 l 356 -68 l 533 -68 l 533 -210 l 432 -351 l 329 -351 z "},"Ł":{"ha":833,"x_min":25,"x_max":758,"o":"m 131 0 l 131 986 l 328 986 l 328 178 l 758 178 l 758 0 l 131 0 m 25 336 l 25 478 l 522 718 l 522 575 l 25 336 z "},"M":{"ha":833,"x_min":61,"x_max":772,"o":"m 357 136 l 242 622 l 242 0 l 61 0 l 61 986 l 283 986 l 417 464 l 550 986 l 772 986 l 772 0 l 592 0 l 592 622 l 476 136 l 357 136 z "},"N":{"ha":833,"x_min":89,"x_max":744,"o":"m 89 0 l 89 986 l 282 986 l 556 349 l 556 986 l 744 986 l 744 0 l 551 0 l 278 638 l 278 0 l 89 0 z "},"Ń":{"ha":833,"x_min":89,"x_max":744,"o":"m 89 0 l 89 986 l 282 986 l 556 349 l 556 986 l 744 986 l 744 0 l 551 0 l 278 638 l 278 0 l 89 0 m 333 1067 l 419 1271 l 622 1271 l 497 1067 l 333 1067 z "},"Ň":{"ha":833,"x_min":89,"x_max":744,"o":"m 89 0 l 89 986 l 282 986 l 556 349 l 556 986 l 744 986 l 744 0 l 551 0 l 278 638 l 278 0 l 89 0 m 197 1275 l 335 1275 l 417 1154 l 499 1275 l 636 1275 l 501 1063 l 332 1063 l 197 1275 z "},"Ņ":{"ha":833,"x_min":89,"x_max":744,"o":"m 89 0 l 89 986 l 282 986 l 556 349 l 556 986 l 744 986 l 744 0 l 551 0 l 278 638 l 278 0 l 89 0 m 301 -351 l 388 -224 l 328 -224 l 328 -68 l 506 -68 l 506 -210 l 404 -351 l 301 -351 z "},"Ñ":{"ha":833,"x_min":89,"x_max":744,"o":"m 89 0 l 89 986 l 282 986 l 556 349 l 556 986 l 744 986 l 744 0 l 551 0 l 278 638 l 278 0 l 89 0 m 501 1075 q 447 1086 471 1075 q 397 1117 422 1097 q 364 1140 378 1133 q 333 1147 350 1147 q 298 1129 313 1147 q 281 1067 283 1111 l 188 1067 q 226 1215 189 1169 q 328 1260 264 1260 q 388 1248 363 1260 q 439 1217 413 1236 q 500 1189 475 1189 q 535 1207 522 1189 q 553 1272 549 1225 l 646 1272 q 606 1123 643 1171 q 501 1075 568 1075 z "},"Ŋ":{"ha":833,"x_min":89,"x_max":744,"o":"m 89 0 l 89 986 l 282 986 l 556 349 l 556 986 l 744 986 l 744 -8 q 688 -153 744 -99 q 536 -208 631 -208 l 388 -208 l 388 -53 l 517 -53 q 572 -4 572 -53 l 572 0 l 551 0 l 278 638 l 278 0 l 89 0 z "},"O":{"ha":833,"x_min":44,"x_max":789,"o":"m 417 -22 q 141 111 238 -22 q 44 492 44 244 q 141 874 44 740 q 417 1008 238 1008 q 692 874 596 1008 q 789 492 789 740 q 692 111 789 244 q 417 -22 596 -22 m 417 153 q 543 234 500 153 q 586 492 586 315 q 543 751 586 668 q 417 833 500 833 q 290 751 333 833 q 247 492 247 668 q 290 234 247 315 q 417 153 333 153 z "},"Ó":{"ha":833,"x_min":44,"x_max":789,"o":"m 417 -22 q 141 111 238 -22 q 44 492 44 244 q 141 874 44 740 q 417 1008 238 1008 q 692 874 596 1008 q 789 492 789 740 q 692 111 789 244 q 417 -22 596 -22 m 417 153 q 543 234 500 153 q 586 492 586 315 q 543 751 586 668 q 417 833 500 833 q 290 751 333 833 q 247 492 247 668 q 290 234 247 315 q 417 153 333 153 m 333 1067 l 419 1271 l 622 1271 l 497 1067 l 333 1067 z "},"Ô":{"ha":833,"x_min":44,"x_max":789,"o":"m 417 -22 q 141 111 238 -22 q 44 492 44 244 q 141 874 44 740 q 417 1008 238 1008 q 692 874 596 1008 q 789 492 789 740 q 692 111 789 244 q 417 -22 596 -22 m 417 153 q 543 234 500 153 q 586 492 586 315 q 543 751 586 668 q 417 833 500 833 q 290 751 333 833 q 247 492 247 668 q 290 234 247 315 q 417 153 333 153 m 197 1063 l 332 1275 l 501 1275 l 636 1063 l 499 1063 l 417 1185 l 335 1063 l 197 1063 z "},"Ö":{"ha":833,"x_min":44,"x_max":789,"o":"m 417 -22 q 141 111 238 -22 q 44 492 44 244 q 141 874 44 740 q 417 1008 238 1008 q 692 874 596 1008 q 789 492 789 740 q 692 111 789 244 q 417 -22 596 -22 m 417 153 q 543 234 500 153 q 586 492 586 315 q 543 751 586 668 q 417 833 500 833 q 290 751 333 833 q 247 492 247 668 q 290 234 247 315 q 417 153 333 153 m 178 1075 l 178 1239 l 369 1239 l 369 1075 l 178 1075 m 464 1075 l 464 1239 l 656 1239 l 656 1075 l 464 1075 z "},"Ò":{"ha":833,"x_min":44,"x_max":789,"o":"m 417 -22 q 141 111 238 -22 q 44 492 44 244 q 141 874 44 740 q 417 1008 238 1008 q 692 874 596 1008 q 789 492 789 740 q 692 111 789 244 q 417 -22 596 -22 m 417 153 q 543 234 500 153 q 586 492 586 315 q 543 751 586 668 q 417 833 500 833 q 290 751 333 833 q 247 492 247 668 q 290 234 247 315 q 417 153 333 153 m 342 1067 l 217 1271 l 419 1271 l 506 1067 l 342 1067 z "},"Ő":{"ha":833,"x_min":44,"x_max":789,"o":"m 417 -22 q 141 111 238 -22 q 44 492 44 244 q 141 874 44 740 q 417 1008 238 1008 q 692 874 596 1008 q 789 492 789 740 q 692 111 789 244 q 417 -22 596 -22 m 417 153 q 543 234 500 153 q 586 492 586 315 q 543 751 586 668 q 417 833 500 833 q 290 751 333 833 q 247 492 247 668 q 290 234 247 315 q 417 153 333 153 m 206 1063 l 292 1267 l 494 1267 l 369 1063 l 206 1063 m 450 1063 l 536 1267 l 739 1267 l 614 1063 l 450 1063 z "},"Ō":{"ha":833,"x_min":44,"x_max":789,"o":"m 417 -22 q 141 111 238 -22 q 44 492 44 244 q 141 874 44 740 q 417 1008 238 1008 q 692 874 596 1008 q 789 492 789 740 q 692 111 789 244 q 417 -22 596 -22 m 417 153 q 543 234 500 153 q 586 492 586 315 q 543 751 586 668 q 417 833 500 833 q 290 751 333 833 q 247 492 247 668 q 290 234 247 315 q 417 153 333 153 m 217 1088 l 217 1228 l 617 1228 l 617 1088 l 217 1088 z "},"Ø":{"ha":833,"x_min":39,"x_max":794,"o":"m 417 -22 q 141 111 238 -22 q 44 492 44 244 q 141 874 44 740 q 417 1008 238 1008 q 692 874 596 1008 q 789 492 789 740 q 692 111 789 244 q 417 -22 596 -22 m 417 153 q 543 234 500 153 q 586 492 586 315 q 543 751 586 668 q 417 833 500 833 q 290 751 333 833 q 247 492 247 668 q 290 234 247 315 q 417 153 333 153 m 39 -22 l 639 1008 l 794 1008 l 194 -22 l 39 -22 z "},"Õ":{"ha":833,"x_min":44,"x_max":789,"o":"m 417 -22 q 141 111 238 -22 q 44 492 44 244 q 141 874 44 740 q 417 1008 238 1008 q 692 874 596 1008 q 789 492 789 740 q 692 111 789 244 q 417 -22 596 -22 m 417 153 q 543 234 500 153 q 586 492 586 315 q 543 751 586 668 q 417 833 500 833 q 290 751 333 833 q 247 492 247 668 q 290 234 247 315 q 417 153 333 153 m 501 1075 q 447 1086 471 1075 q 397 1117 422 1097 q 364 1140 378 1133 q 333 1147 350 1147 q 298 1129 313 1147 q 281 1067 283 1111 l 188 1067 q 226 1215 189 1169 q 328 1260 264 1260 q 388 1248 363 1260 q 439 1217 413 1236 q 500 1189 475 1189 q 535 1207 522 1189 q 553 1272 549 1225 l 646 1272 q 606 1123 643 1171 q 501 1075 568 1075 z "},"Œ":{"ha":833,"x_min":13,"x_max":821,"o":"m 293 -22 q 86 106 160 -22 q 13 493 13 233 q 86 880 13 751 q 293 1008 160 1008 q 376 990 338 1008 q 444 938 414 971 l 444 986 l 810 986 l 810 808 l 607 808 l 607 582 l 793 582 l 793 407 l 607 407 l 607 178 l 821 178 l 821 0 l 444 0 l 444 49 q 376 -4 414 14 q 293 -22 338 -22 m 304 153 q 381 231 360 153 q 403 493 403 308 q 381 756 403 678 q 304 833 360 833 q 228 756 250 833 q 206 493 206 678 q 228 231 206 308 q 304 153 250 153 z "},"P":{"ha":833,"x_min":108,"x_max":772,"o":"m 108 0 l 108 986 l 426 986 q 607 947 529 986 q 728 835 685 907 q 772 669 772 764 q 728 503 772 574 q 607 392 685 432 q 426 353 529 353 l 306 353 l 306 0 l 108 0 m 306 532 l 406 532 q 569 669 569 532 q 406 808 569 808 l 306 808 l 306 532 z "},"Þ":{"ha":833,"x_min":108,"x_max":786,"o":"m 108 0 l 108 986 l 306 986 l 306 818 l 433 818 q 694 734 603 818 q 786 510 786 650 q 694 283 786 369 q 433 197 603 197 l 306 197 l 306 0 l 108 0 m 428 642 l 306 642 l 306 375 l 428 375 q 543 409 503 375 q 583 510 583 443 q 543 609 583 576 q 428 642 503 642 z "},"Q":{"ha":833,"x_min":44,"x_max":789,"o":"m 417 -22 q 141 111 238 -22 q 44 492 44 244 q 141 874 44 740 q 417 1008 238 1008 q 692 874 596 1008 q 789 492 789 740 q 624 40 789 164 l 694 -97 l 549 -97 l 504 -12 q 417 -22 464 -22 m 247 492 q 290 234 247 315 q 417 153 333 153 q 417 153 417 153 q 418 153 417 153 l 335 315 l 481 315 l 532 215 q 586 492 586 299 q 543 751 586 668 q 417 833 500 833 q 290 751 333 833 q 247 492 247 668 z "},"R":{"ha":833,"x_min":86,"x_max":758,"o":"m 86 0 l 86 986 l 404 986 q 653 906 564 986 q 743 690 743 826 q 696 538 743 600 q 576 454 649 476 q 690 397 651 440 q 735 275 728 354 l 758 0 l 558 0 l 542 222 q 502 332 535 306 q 390 358 469 358 l 283 358 l 283 0 l 86 0 m 283 536 l 397 536 q 503 572 467 536 q 540 672 540 607 q 503 773 540 738 q 397 808 467 808 l 283 808 l 283 536 z "},"Ŕ":{"ha":833,"x_min":86,"x_max":758,"o":"m 86 0 l 86 986 l 404 986 q 653 906 564 986 q 743 690 743 826 q 696 538 743 600 q 576 454 649 476 q 690 397 651 440 q 735 275 728 354 l 758 0 l 558 0 l 542 222 q 502 332 535 306 q 390 358 469 358 l 283 358 l 283 0 l 86 0 m 283 536 l 397 536 q 503 572 467 536 q 540 672 540 607 q 503 773 540 738 q 397 808 467 808 l 283 808 l 283 536 m 317 1067 l 403 1271 l 606 1271 l 481 1067 l 317 1067 z "},"Ř":{"ha":833,"x_min":86,"x_max":758,"o":"m 86 0 l 86 986 l 404 986 q 653 906 564 986 q 743 690 743 826 q 696 538 743 600 q 576 454 649 476 q 690 397 651 440 q 735 275 728 354 l 758 0 l 558 0 l 542 222 q 502 332 535 306 q 390 358 469 358 l 283 358 l 283 0 l 86 0 m 283 536 l 397 536 q 503 572 467 536 q 540 672 540 607 q 503 773 540 738 q 397 808 467 808 l 283 808 l 283 536 m 181 1275 l 318 1275 l 400 1154 l 482 1275 l 619 1275 l 485 1063 l 315 1063 l 181 1275 z "},"Ŗ":{"ha":833,"x_min":86,"x_max":758,"o":"m 86 0 l 86 986 l 404 986 q 653 906 564 986 q 743 690 743 826 q 696 538 743 600 q 576 454 649 476 q 690 397 651 440 q 735 275 728 354 l 758 0 l 558 0 l 542 222 q 502 332 535 306 q 390 358 469 358 l 283 358 l 283 0 l 86 0 m 283 536 l 397 536 q 503 572 467 536 q 540 672 540 607 q 503 773 540 738 q 397 808 467 808 l 283 808 l 283 536 m 300 -351 l 386 -224 l 326 -224 l 326 -68 l 504 -68 l 504 -210 l 403 -351 l 300 -351 z "},"S":{"ha":833,"x_min":58,"x_max":775,"o":"m 425 -22 q 163 73 257 -22 q 58 333 69 168 l 257 343 q 435 153 283 153 q 538 181 501 153 q 575 261 575 208 q 557 328 575 299 q 494 381 539 357 q 367 425 449 404 q 149 524 219 463 q 78 710 78 586 q 166 927 78 846 q 417 1008 254 1008 q 664 922 575 1008 q 764 678 753 835 l 564 668 q 514 790 553 746 q 408 833 475 833 q 313 802 349 833 q 278 719 278 771 q 295 659 278 683 q 356 615 313 635 q 476 575 400 596 q 654 506 589 547 q 747 405 719 464 q 775 268 775 346 q 682 56 775 135 q 425 -22 589 -22 z "},"Ś":{"ha":833,"x_min":58,"x_max":775,"o":"m 425 -22 q 163 73 257 -22 q 58 333 69 168 l 257 343 q 435 153 283 153 q 538 181 501 153 q 575 261 575 208 q 557 328 575 299 q 494 381 539 357 q 367 425 449 404 q 149 524 219 463 q 78 710 78 586 q 166 927 78 846 q 417 1008 254 1008 q 664 922 575 1008 q 764 678 753 835 l 564 668 q 514 790 553 746 q 408 833 475 833 q 313 802 349 833 q 278 719 278 771 q 295 659 278 683 q 356 615 313 635 q 476 575 400 596 q 654 506 589 547 q 747 405 719 464 q 775 268 775 346 q 682 56 775 135 q 425 -22 589 -22 m 336 1067 l 422 1271 l 625 1271 l 500 1067 l 336 1067 z "},"Š":{"ha":833,"x_min":58,"x_max":775,"o":"m 425 -22 q 163 73 257 -22 q 58 333 69 168 l 257 343 q 435 153 283 153 q 538 181 501 153 q 575 261 575 208 q 557 328 575 299 q 494 381 539 357 q 367 425 449 404 q 149 524 219 463 q 78 710 78 586 q 166 927 78 846 q 417 1008 254 1008 q 664 922 575 1008 q 764 678 753 835 l 564 668 q 514 790 553 746 q 408 833 475 833 q 313 802 349 833 q 278 719 278 771 q 295 659 278 683 q 356 615 313 635 q 476 575 400 596 q 654 506 589 547 q 747 405 719 464 q 775 268 775 346 q 682 56 775 135 q 425 -22 589 -22 m 201 1275 l 339 1275 l 421 1154 l 503 1275 l 640 1275 l 506 1063 l 336 1063 l 201 1275 z "},"Ş":{"ha":833,"x_min":58,"x_max":775,"o":"m 425 -22 q 163 73 257 -22 q 58 333 69 168 l 257 343 q 435 153 283 153 q 538 181 501 153 q 575 261 575 208 q 557 328 575 299 q 494 381 539 357 q 367 425 449 404 q 149 524 219 463 q 78 710 78 586 q 166 927 78 846 q 417 1008 254 1008 q 664 922 575 1008 q 764 678 753 835 l 564 668 q 514 790 553 746 q 408 833 475 833 q 313 802 349 833 q 278 719 278 771 q 295 659 278 683 q 356 615 313 635 q 476 575 400 596 q 654 506 589 547 q 747 405 719 464 q 775 268 775 346 q 682 56 775 135 q 425 -22 589 -22 m 418 -322 q 302 -290 347 -322 q 239 -207 257 -258 l 331 -168 q 361 -208 342 -194 q 413 -221 381 -221 q 461 -208 443 -221 q 479 -171 479 -194 q 462 -131 479 -146 q 389 -117 444 -117 l 333 -62 l 378 14 l 497 14 l 460 -43 q 561 -87 529 -50 q 593 -175 593 -124 q 542 -286 593 -250 q 418 -322 490 -322 z "},"Ŝ":{"ha":833,"x_min":58,"x_max":775,"o":"m 425 -22 q 163 73 257 -22 q 58 333 69 168 l 257 343 q 435 153 283 153 q 538 181 501 153 q 575 261 575 208 q 557 328 575 299 q 494 381 539 357 q 367 425 449 404 q 149 524 219 463 q 78 710 78 586 q 166 927 78 846 q 417 1008 254 1008 q 664 922 575 1008 q 764 678 753 835 l 564 668 q 514 790 553 746 q 408 833 475 833 q 313 802 349 833 q 278 719 278 771 q 295 659 278 683 q 356 615 313 635 q 476 575 400 596 q 654 506 589 547 q 747 405 719 464 q 775 268 775 346 q 682 56 775 135 q 425 -22 589 -22 m 200 1063 l 335 1275 l 504 1275 l 639 1063 l 501 1063 l 419 1185 l 338 1063 l 200 1063 z "},"Ș":{"ha":833,"x_min":58,"x_max":775,"o":"m 425 -22 q 163 73 257 -22 q 58 333 69 168 l 257 343 q 435 153 283 153 q 538 181 501 153 q 575 261 575 208 q 557 328 575 299 q 494 381 539 357 q 367 425 449 404 q 149 524 219 463 q 78 710 78 586 q 166 927 78 846 q 417 1008 254 1008 q 664 922 575 1008 q 764 678 753 835 l 564 668 q 514 790 553 746 q 408 833 475 833 q 313 802 349 833 q 278 719 278 771 q 295 659 278 683 q 356 615 313 635 q 476 575 400 596 q 654 506 589 547 q 747 405 719 464 q 775 268 775 346 q 682 56 775 135 q 425 -22 589 -22 m 307 -351 l 393 -224 l 333 -224 l 333 -68 l 511 -68 l 511 -210 l 410 -351 l 307 -351 z "},"ẞ":{"ha":833,"x_min":28,"x_max":811,"o":"m 28 0 l 28 657 q 112 900 28 814 q 346 986 196 986 l 760 986 l 760 799 l 522 582 q 734 499 657 574 q 811 304 811 425 q 719 80 811 160 q 458 0 626 0 l 290 0 l 290 178 l 443 178 q 608 308 608 178 q 432 442 608 442 l 339 442 l 339 589 l 549 808 l 364 808 q 226 657 226 808 l 226 0 l 28 0 z "},"T":{"ha":833,"x_min":56,"x_max":778,"o":"m 318 0 l 318 808 l 56 808 l 56 986 l 778 986 l 778 808 l 515 808 l 515 0 l 318 0 z "},"Ŧ":{"ha":833,"x_min":56,"x_max":778,"o":"m 318 0 l 318 808 l 56 808 l 56 986 l 778 986 l 778 808 l 515 808 l 515 0 l 318 0 m 178 374 l 178 533 l 656 533 l 656 374 l 178 374 z "},"Ť":{"ha":833,"x_min":56,"x_max":778,"o":"m 318 0 l 318 808 l 56 808 l 56 986 l 778 986 l 778 808 l 515 808 l 515 0 l 318 0 m 197 1275 l 335 1275 l 417 1154 l 499 1275 l 636 1275 l 501 1063 l 332 1063 l 197 1275 z "},"Ţ":{"ha":833,"x_min":56,"x_max":778,"o":"m 318 0 l 318 808 l 56 808 l 56 986 l 778 986 l 778 808 l 515 808 l 515 0 l 318 0 m 411 -322 q 295 -290 340 -322 q 232 -207 250 -258 l 324 -168 q 354 -208 335 -194 q 406 -221 374 -221 q 454 -208 436 -221 q 472 -171 472 -194 q 455 -131 472 -146 q 382 -117 438 -117 l 326 -62 l 371 14 l 490 14 l 453 -43 q 554 -87 522 -50 q 586 -175 586 -124 q 535 -286 586 -250 q 411 -322 483 -322 z "},"Ț":{"ha":833,"x_min":56,"x_max":778,"o":"m 318 0 l 318 808 l 56 808 l 56 986 l 778 986 l 778 808 l 515 808 l 515 0 l 318 0 m 301 -351 l 388 -224 l 328 -224 l 328 -68 l 506 -68 l 506 -210 l 404 -351 l 301 -351 z "},"U":{"ha":833,"x_min":75,"x_max":758,"o":"m 417 -22 q 165 71 254 -22 q 75 342 75 164 l 75 988 l 272 988 l 272 325 q 310 197 272 242 q 417 153 347 153 q 524 197 486 153 q 561 325 561 242 l 561 988 l 758 988 l 758 342 q 669 71 758 164 q 417 -22 579 -22 z "},"Ú":{"ha":833,"x_min":75,"x_max":758,"o":"m 417 -22 q 165 71 254 -22 q 75 342 75 164 l 75 988 l 272 988 l 272 325 q 310 197 272 242 q 417 153 347 153 q 524 197 486 153 q 561 325 561 242 l 561 988 l 758 988 l 758 342 q 669 71 758 164 q 417 -22 579 -22 m 333 1067 l 419 1271 l 622 1271 l 497 1067 l 333 1067 z "},"Ŭ":{"ha":833,"x_min":75,"x_max":758,"o":"m 417 -22 q 165 71 254 -22 q 75 342 75 164 l 75 988 l 272 988 l 272 325 q 310 197 272 242 q 417 153 347 153 q 524 197 486 153 q 561 325 561 242 l 561 988 l 758 988 l 758 342 q 669 71 758 164 q 417 -22 579 -22 m 417 1064 q 267 1119 325 1064 q 206 1268 210 1174 l 319 1268 q 351 1197 325 1217 q 417 1178 378 1178 q 482 1197 456 1178 q 514 1268 508 1217 l 628 1268 q 566 1119 624 1174 q 417 1064 508 1064 z "},"Û":{"ha":833,"x_min":75,"x_max":758,"o":"m 417 -22 q 165 71 254 -22 q 75 342 75 164 l 75 988 l 272 988 l 272 325 q 310 197 272 242 q 417 153 347 153 q 524 197 486 153 q 561 325 561 242 l 561 988 l 758 988 l 758 342 q 669 71 758 164 q 417 -22 579 -22 m 197 1063 l 332 1275 l 501 1275 l 636 1063 l 499 1063 l 417 1185 l 335 1063 l 197 1063 z "},"Ü":{"ha":833,"x_min":75,"x_max":758,"o":"m 417 -22 q 165 71 254 -22 q 75 342 75 164 l 75 988 l 272 988 l 272 325 q 310 197 272 242 q 417 153 347 153 q 524 197 486 153 q 561 325 561 242 l 561 988 l 758 988 l 758 342 q 669 71 758 164 q 417 -22 579 -22 m 178 1075 l 178 1239 l 369 1239 l 369 1075 l 178 1075 m 464 1075 l 464 1239 l 656 1239 l 656 1075 l 464 1075 z "},"Ù":{"ha":833,"x_min":75,"x_max":758,"o":"m 417 -22 q 165 71 254 -22 q 75 342 75 164 l 75 988 l 272 988 l 272 325 q 310 197 272 242 q 417 153 347 153 q 524 197 486 153 q 561 325 561 242 l 561 988 l 758 988 l 758 342 q 669 71 758 164 q 417 -22 579 -22 m 342 1067 l 217 1271 l 419 1271 l 506 1067 l 342 1067 z "},"Ű":{"ha":833,"x_min":75,"x_max":758,"o":"m 417 -22 q 165 71 254 -22 q 75 342 75 164 l 75 988 l 272 988 l 272 325 q 310 197 272 242 q 417 153 347 153 q 524 197 486 153 q 561 325 561 242 l 561 988 l 758 988 l 758 342 q 669 71 758 164 q 417 -22 579 -22 m 206 1063 l 292 1267 l 494 1267 l 369 1063 l 206 1063 m 450 1063 l 536 1267 l 739 1267 l 614 1063 l 450 1063 z "},"Ū":{"ha":833,"x_min":75,"x_max":758,"o":"m 417 -22 q 165 71 254 -22 q 75 342 75 164 l 75 988 l 272 988 l 272 325 q 310 197 272 242 q 417 153 347 153 q 524 197 486 153 q 561 325 561 242 l 561 988 l 758 988 l 758 342 q 669 71 758 164 q 417 -22 579 -22 m 217 1088 l 217 1228 l 617 1228 l 617 1088 l 217 1088 z "},"Ų":{"ha":833,"x_min":75,"x_max":758,"o":"m 417 -22 q 165 71 254 -22 q 75 342 75 164 l 75 988 l 272 988 l 272 325 q 310 197 272 242 q 417 153 347 153 q 524 197 486 153 q 561 325 561 242 l 561 988 l 758 988 l 758 342 q 669 71 758 164 q 417 -22 579 -22 m 449 -301 q 343 -268 382 -301 q 304 -179 304 -235 q 319 -107 304 -140 q 363 -39 335 -74 l 410 22 l 549 0 l 504 -57 q 472 -108 481 -89 q 463 -142 463 -126 q 500 -178 463 -178 q 561 -157 535 -178 l 597 -261 q 537 -289 578 -276 q 449 -301 496 -301 z "},"Ů":{"ha":833,"x_min":75,"x_max":758,"o":"m 417 -22 q 165 71 254 -22 q 75 342 75 164 l 75 988 l 272 988 l 272 325 q 310 197 272 242 q 417 153 347 153 q 524 197 486 153 q 561 325 561 242 l 561 988 l 758 988 l 758 342 q 669 71 758 164 q 417 -22 579 -22 m 415 1040 q 313 1081 354 1040 q 271 1181 271 1121 q 313 1282 271 1242 q 415 1322 354 1322 q 518 1282 476 1322 q 560 1181 560 1242 q 518 1081 560 1121 q 415 1040 476 1040 m 415 1125 q 456 1140 440 1125 q 471 1181 471 1156 q 456 1222 471 1206 q 415 1238 440 1238 q 375 1222 390 1238 q 360 1181 360 1206 q 375 1140 360 1156 q 415 1125 390 1125 z "},"Ũ":{"ha":833,"x_min":75,"x_max":758,"o":"m 417 -22 q 165 71 254 -22 q 75 342 75 164 l 75 988 l 272 988 l 272 325 q 310 197 272 242 q 417 153 347 153 q 524 197 486 153 q 561 325 561 242 l 561 988 l 758 988 l 758 342 q 669 71 758 164 q 417 -22 579 -22 m 501 1075 q 447 1086 471 1075 q 397 1117 422 1097 q 364 1140 378 1133 q 333 1147 350 1147 q 298 1129 313 1147 q 281 1067 283 1111 l 188 1067 q 226 1215 189 1169 q 328 1260 264 1260 q 388 1248 363 1260 q 439 1217 413 1236 q 500 1189 475 1189 q 535 1207 522 1189 q 553 1272 549 1225 l 646 1272 q 606 1123 643 1171 q 501 1075 568 1075 z "},"V":{"ha":833,"x_min":28,"x_max":806,"o":"m 315 0 l 28 986 l 238 986 l 417 317 l 596 986 l 806 986 l 518 0 l 315 0 z "},"W":{"ha":833,"x_min":33,"x_max":800,"o":"m 135 0 l 33 986 l 219 986 l 275 306 l 354 875 l 479 875 l 558 306 l 614 986 l 800 986 l 699 0 l 489 0 l 417 497 l 344 0 l 135 0 z "},"Ẃ":{"ha":833,"x_min":33,"x_max":800,"o":"m 135 0 l 33 986 l 219 986 l 275 306 l 354 875 l 479 875 l 558 306 l 614 986 l 800 986 l 699 0 l 489 0 l 417 497 l 344 0 l 135 0 m 333 1067 l 419 1271 l 622 1271 l 497 1067 l 333 1067 z "},"Ŵ":{"ha":833,"x_min":33,"x_max":800,"o":"m 135 0 l 33 986 l 219 986 l 275 306 l 354 875 l 479 875 l 558 306 l 614 986 l 800 986 l 699 0 l 489 0 l 417 497 l 344 0 l 135 0 m 197 1063 l 332 1275 l 501 1275 l 636 1063 l 499 1063 l 417 1185 l 335 1063 l 197 1063 z "},"Ẅ":{"ha":833,"x_min":33,"x_max":800,"o":"m 135 0 l 33 986 l 219 986 l 275 306 l 354 875 l 479 875 l 558 306 l 614 986 l 800 986 l 699 0 l 489 0 l 417 497 l 344 0 l 135 0 m 178 1075 l 178 1239 l 369 1239 l 369 1075 l 178 1075 m 464 1075 l 464 1239 l 656 1239 l 656 1075 l 464 1075 z "},"Ẁ":{"ha":833,"x_min":33,"x_max":800,"o":"m 135 0 l 33 986 l 219 986 l 275 306 l 354 875 l 479 875 l 558 306 l 614 986 l 800 986 l 699 0 l 489 0 l 417 497 l 344 0 l 135 0 m 342 1067 l 217 1271 l 419 1271 l 506 1067 l 342 1067 z "},"X":{"ha":833,"x_min":47,"x_max":786,"o":"m 47 0 l 283 497 l 51 986 l 269 986 l 419 642 l 569 986 l 782 986 l 550 494 l 786 0 l 568 0 l 414 353 l 261 0 l 47 0 z "},"Y":{"ha":833,"x_min":42,"x_max":792,"o":"m 318 0 l 318 411 l 42 986 l 256 986 l 417 615 l 578 986 l 792 986 l 517 411 l 517 0 l 318 0 z "},"Ý":{"ha":833,"x_min":42,"x_max":792,"o":"m 318 0 l 318 411 l 42 986 l 256 986 l 417 615 l 578 986 l 792 986 l 517 411 l 517 0 l 318 0 m 333 1067 l 419 1271 l 622 1271 l 497 1067 l 333 1067 z "},"Ŷ":{"ha":833,"x_min":42,"x_max":792,"o":"m 318 0 l 318 411 l 42 986 l 256 986 l 417 615 l 578 986 l 792 986 l 517 411 l 517 0 l 318 0 m 197 1063 l 332 1275 l 501 1275 l 636 1063 l 499 1063 l 417 1185 l 335 1063 l 197 1063 z "},"Ÿ":{"ha":833,"x_min":42,"x_max":792,"o":"m 318 0 l 318 411 l 42 986 l 256 986 l 417 615 l 578 986 l 792 986 l 517 411 l 517 0 l 318 0 m 178 1075 l 178 1239 l 369 1239 l 369 1075 l 178 1075 m 464 1075 l 464 1239 l 656 1239 l 656 1075 l 464 1075 z "},"Ỳ":{"ha":833,"x_min":42,"x_max":792,"o":"m 318 0 l 318 411 l 42 986 l 256 986 l 417 615 l 578 986 l 792 986 l 517 411 l 517 0 l 318 0 m 342 1067 l 217 1271 l 419 1271 l 506 1067 l 342 1067 z "},"Ỹ":{"ha":833,"x_min":42,"x_max":792,"o":"m 318 0 l 318 411 l 42 986 l 256 986 l 417 615 l 578 986 l 792 986 l 517 411 l 517 0 l 318 0 m 501 1075 q 447 1086 471 1075 q 397 1117 422 1097 q 364 1140 378 1133 q 333 1147 350 1147 q 298 1129 313 1147 q 281 1067 283 1111 l 188 1067 q 226 1215 189 1169 q 328 1260 264 1260 q 388 1248 363 1260 q 439 1217 413 1236 q 500 1189 475 1189 q 535 1207 522 1189 q 553 1272 549 1225 l 646 1272 q 606 1123 643 1171 q 501 1075 568 1075 z "},"Z":{"ha":833,"x_min":61,"x_max":772,"o":"m 61 0 l 61 178 l 529 808 l 86 808 l 86 986 l 761 986 l 761 808 l 297 178 l 772 178 l 772 0 l 61 0 z "},"Ź":{"ha":833,"x_min":61,"x_max":772,"o":"m 61 0 l 61 178 l 529 808 l 86 808 l 86 986 l 761 986 l 761 808 l 297 178 l 772 178 l 772 0 l 61 0 m 333 1067 l 419 1271 l 622 1271 l 497 1067 l 333 1067 z "},"Ž":{"ha":833,"x_min":61,"x_max":772,"o":"m 61 0 l 61 178 l 529 808 l 86 808 l 86 986 l 761 986 l 761 808 l 297 178 l 772 178 l 772 0 l 61 0 m 197 1275 l 335 1275 l 417 1154 l 499 1275 l 636 1275 l 501 1063 l 332 1063 l 197 1275 z "},"Ż":{"ha":833,"x_min":61,"x_max":772,"o":"m 61 0 l 61 178 l 529 808 l 86 808 l 86 986 l 761 986 l 761 808 l 297 178 l 772 178 l 772 0 l 61 0 m 321 1078 l 321 1242 l 513 1242 l 513 1078 l 321 1078 z "},"Ꞌ":{"ha":833,"x_min":317,"x_max":517,"o":"m 336 485 l 317 778 l 317 986 l 517 986 l 517 778 l 499 485 l 336 485 z "},"a":{"ha":833,"x_min":64,"x_max":772,"o":"m 311 -17 q 187 8 243 -17 q 97 81 131 33 q 64 193 64 128 q 124 340 64 288 q 290 415 185 393 l 514 464 q 485 572 514 533 q 393 610 457 610 q 306 581 336 610 q 267 508 276 553 l 72 519 q 177 695 93 629 q 390 761 261 761 q 627 680 551 761 q 703 453 703 599 l 703 190 q 713 152 703 163 q 742 142 722 142 l 772 142 l 772 0 q 744 -3 764 -1 q 704 -6 725 -6 q 535 111 565 -6 q 453 19 511 54 q 311 -17 394 -17 m 350 125 q 472 167 429 125 q 514 286 514 210 l 514 331 l 349 294 q 278 263 299 283 q 257 203 257 242 q 350 125 257 125 z "},"á":{"ha":833,"x_min":64,"x_max":772,"o":"m 311 -17 q 187 8 243 -17 q 97 81 131 33 q 64 193 64 128 q 124 340 64 288 q 290 415 185 393 l 514 464 q 485 572 514 533 q 393 610 457 610 q 306 581 336 610 q 267 508 276 553 l 72 519 q 177 695 93 629 q 390 761 261 761 q 627 680 551 761 q 703 453 703 599 l 703 190 q 713 152 703 163 q 742 142 722 142 l 772 142 l 772 0 q 744 -3 764 -1 q 704 -6 725 -6 q 535 111 565 -6 q 453 19 511 54 q 311 -17 394 -17 m 350 125 q 472 167 429 125 q 514 286 514 210 l 514 331 l 349 294 q 278 263 299 283 q 257 203 257 242 q 350 125 257 125 m 311 825 l 397 1029 l 600 1029 l 475 825 l 311 825 z "},"ă":{"ha":833,"x_min":64,"x_max":772,"o":"m 311 -17 q 187 8 243 -17 q 97 81 131 33 q 64 193 64 128 q 124 340 64 288 q 290 415 185 393 l 514 464 q 485 572 514 533 q 393 610 457 610 q 306 581 336 610 q 267 508 276 553 l 72 519 q 177 695 93 629 q 390 761 261 761 q 627 680 551 761 q 703 453 703 599 l 703 190 q 713 152 703 163 q 742 142 722 142 l 772 142 l 772 0 q 744 -3 764 -1 q 704 -6 725 -6 q 535 111 565 -6 q 453 19 511 54 q 311 -17 394 -17 m 350 125 q 472 167 429 125 q 514 286 514 210 l 514 331 l 349 294 q 278 263 299 283 q 257 203 257 242 q 350 125 257 125 m 394 822 q 245 877 303 822 q 183 1026 188 932 l 297 1026 q 329 956 303 975 q 394 936 356 936 q 460 956 433 936 q 492 1026 486 975 l 606 1026 q 544 877 601 932 q 394 822 486 822 z "},"ǎ":{"ha":833,"x_min":64,"x_max":772,"o":"m 311 -17 q 187 8 243 -17 q 97 81 131 33 q 64 193 64 128 q 124 340 64 288 q 290 415 185 393 l 514 464 q 485 572 514 533 q 393 610 457 610 q 306 581 336 610 q 267 508 276 553 l 72 519 q 177 695 93 629 q 390 761 261 761 q 627 680 551 761 q 703 453 703 599 l 703 190 q 713 152 703 163 q 742 142 722 142 l 772 142 l 772 0 q 744 -3 764 -1 q 704 -6 725 -6 q 535 111 565 -6 q 453 19 511 54 q 311 -17 394 -17 m 350 125 q 472 167 429 125 q 514 286 514 210 l 514 331 l 349 294 q 278 263 299 283 q 257 203 257 242 q 350 125 257 125 m 175 1033 l 313 1033 l 394 913 l 476 1033 l 614 1033 l 479 821 l 310 821 l 175 1033 z "},"â":{"ha":833,"x_min":64,"x_max":772,"o":"m 311 -17 q 187 8 243 -17 q 97 81 131 33 q 64 193 64 128 q 124 340 64 288 q 290 415 185 393 l 514 464 q 485 572 514 533 q 393 610 457 610 q 306 581 336 610 q 267 508 276 553 l 72 519 q 177 695 93 629 q 390 761 261 761 q 627 680 551 761 q 703 453 703 599 l 703 190 q 713 152 703 163 q 742 142 722 142 l 772 142 l 772 0 q 744 -3 764 -1 q 704 -6 725 -6 q 535 111 565 -6 q 453 19 511 54 q 311 -17 394 -17 m 350 125 q 472 167 429 125 q 514 286 514 210 l 514 331 l 349 294 q 278 263 299 283 q 257 203 257 242 q 350 125 257 125 m 175 821 l 310 1033 l 479 1033 l 614 821 l 476 821 l 394 943 l 313 821 l 175 821 z "},"ä":{"ha":833,"x_min":64,"x_max":772,"o":"m 311 -17 q 187 8 243 -17 q 97 81 131 33 q 64 193 64 128 q 124 340 64 288 q 290 415 185 393 l 514 464 q 485 572 514 533 q 393 610 457 610 q 306 581 336 610 q 267 508 276 553 l 72 519 q 177 695 93 629 q 390 761 261 761 q 627 680 551 761 q 703 453 703 599 l 703 190 q 713 152 703 163 q 742 142 722 142 l 772 142 l 772 0 q 744 -3 764 -1 q 704 -6 725 -6 q 535 111 565 -6 q 453 19 511 54 q 311 -17 394 -17 m 350 125 q 472 167 429 125 q 514 286 514 210 l 514 331 l 349 294 q 278 263 299 283 q 257 203 257 242 q 350 125 257 125 m 156 833 l 156 997 l 347 997 l 347 833 l 156 833 m 442 833 l 442 997 l 633 997 l 633 833 l 442 833 z "},"à":{"ha":833,"x_min":64,"x_max":772,"o":"m 311 -17 q 187 8 243 -17 q 97 81 131 33 q 64 193 64 128 q 124 340 64 288 q 290 415 185 393 l 514 464 q 485 572 514 533 q 393 610 457 610 q 306 581 336 610 q 267 508 276 553 l 72 519 q 177 695 93 629 q 390 761 261 761 q 627 680 551 761 q 703 453 703 599 l 703 190 q 713 152 703 163 q 742 142 722 142 l 772 142 l 772 0 q 744 -3 764 -1 q 704 -6 725 -6 q 535 111 565 -6 q 453 19 511 54 q 311 -17 394 -17 m 350 125 q 472 167 429 125 q 514 286 514 210 l 514 331 l 349 294 q 278 263 299 283 q 257 203 257 242 q 350 125 257 125 m 319 825 l 194 1029 l 397 1029 l 483 825 l 319 825 z "},"ā":{"ha":833,"x_min":64,"x_max":772,"o":"m 311 -17 q 187 8 243 -17 q 97 81 131 33 q 64 193 64 128 q 124 340 64 288 q 290 415 185 393 l 514 464 q 485 572 514 533 q 393 610 457 610 q 306 581 336 610 q 267 508 276 553 l 72 519 q 177 695 93 629 q 390 761 261 761 q 627 680 551 761 q 703 453 703 599 l 703 190 q 713 152 703 163 q 742 142 722 142 l 772 142 l 772 0 q 744 -3 764 -1 q 704 -6 725 -6 q 535 111 565 -6 q 453 19 511 54 q 311 -17 394 -17 m 350 125 q 472 167 429 125 q 514 286 514 210 l 514 331 l 349 294 q 278 263 299 283 q 257 203 257 242 q 350 125 257 125 m 194 846 l 194 986 l 594 986 l 594 846 l 194 846 z "},"ą":{"ha":833,"x_min":64,"x_max":821,"o":"m 311 -17 q 187 8 243 -17 q 97 81 131 33 q 64 193 64 128 q 124 340 64 288 q 290 415 185 393 l 514 464 q 485 572 514 533 q 393 610 457 610 q 306 581 336 610 q 267 508 276 553 l 72 519 q 177 695 93 629 q 390 761 261 761 q 627 680 551 761 q 703 453 703 599 l 703 190 q 713 152 703 163 q 742 142 722 142 l 772 142 l 772 0 q 744 -3 764 -1 q 704 -6 725 -6 q 535 111 565 -6 q 453 19 511 54 q 311 -17 394 -17 m 350 125 q 472 167 429 125 q 514 286 514 210 l 514 331 l 349 294 q 278 263 299 283 q 257 203 257 242 q 350 125 257 125 m 672 -301 q 567 -268 606 -301 q 528 -179 528 -235 q 543 -107 528 -140 q 586 -39 558 -74 l 633 22 l 772 0 l 728 -57 q 695 -108 704 -89 q 686 -142 686 -126 q 724 -178 686 -178 q 785 -157 758 -178 l 821 -261 q 760 -289 801 -276 q 672 -301 719 -301 z "},"å":{"ha":833,"x_min":64,"x_max":772,"o":"m 311 -17 q 187 8 243 -17 q 97 81 131 33 q 64 193 64 128 q 124 340 64 288 q 290 415 185 393 l 514 464 q 485 572 514 533 q 393 610 457 610 q 306 581 336 610 q 267 508 276 553 l 72 519 q 177 695 93 629 q 390 761 261 761 q 627 680 551 761 q 703 453 703 599 l 703 190 q 713 152 703 163 q 742 142 722 142 l 772 142 l 772 0 q 744 -3 764 -1 q 704 -6 725 -6 q 535 111 565 -6 q 453 19 511 54 q 311 -17 394 -17 m 350 125 q 472 167 429 125 q 514 286 514 210 l 514 331 l 349 294 q 278 263 299 283 q 257 203 257 242 q 350 125 257 125 m 393 799 q 290 839 332 799 q 249 939 249 879 q 290 1040 249 1000 q 393 1081 332 1081 q 496 1040 454 1081 q 538 939 538 1000 q 496 839 538 879 q 393 799 454 799 m 393 883 q 433 899 418 883 q 449 939 449 914 q 433 980 449 964 q 393 996 418 996 q 353 980 368 996 q 338 939 338 964 q 353 899 338 914 q 393 883 368 883 z "},"ã":{"ha":833,"x_min":64,"x_max":772,"o":"m 311 -17 q 187 8 243 -17 q 97 81 131 33 q 64 193 64 128 q 124 340 64 288 q 290 415 185 393 l 514 464 q 485 572 514 533 q 393 610 457 610 q 306 581 336 610 q 267 508 276 553 l 72 519 q 177 695 93 629 q 390 761 261 761 q 627 680 551 761 q 703 453 703 599 l 703 190 q 713 152 703 163 q 742 142 722 142 l 772 142 l 772 0 q 744 -3 764 -1 q 704 -6 725 -6 q 535 111 565 -6 q 453 19 511 54 q 311 -17 394 -17 m 350 125 q 472 167 429 125 q 514 286 514 210 l 514 331 l 349 294 q 278 263 299 283 q 257 203 257 242 q 350 125 257 125 m 479 833 q 424 844 449 833 q 375 875 400 856 q 342 899 356 892 q 311 906 328 906 q 276 888 290 906 q 258 825 261 869 l 165 825 q 204 973 167 928 q 306 1018 242 1018 q 365 1006 340 1018 q 417 975 390 994 q 478 947 453 947 q 513 965 500 947 q 531 1031 526 983 l 624 1031 q 583 881 621 929 q 479 833 546 833 z "},"æ":{"ha":833,"x_min":17,"x_max":817,"o":"m 196 -17 q 69 32 122 -17 q 17 197 17 81 q 69 351 17 294 q 218 428 121 407 l 315 449 q 299 573 315 536 q 247 610 283 610 q 200 582 214 610 q 179 508 186 554 l 21 517 q 247 761 56 761 q 411 679 356 761 q 576 761 474 761 q 749 672 681 761 q 817 389 817 583 l 817 317 l 494 317 q 518 188 497 229 q 574 147 539 147 q 616 167 600 147 q 638 240 632 186 l 808 224 q 727 40 785 97 q 576 -17 669 -17 q 382 111 447 -17 q 309 17 358 51 q 196 -17 260 -17 m 499 443 l 642 443 q 619 565 638 529 q 572 601 600 601 q 522 565 539 601 q 499 443 504 529 m 233 125 q 297 162 278 125 q 315 281 315 199 l 315 317 l 244 303 q 190 273 207 296 q 172 207 172 250 q 189 147 172 168 q 233 125 206 125 z "},"b":{"ha":833,"x_min":92,"x_max":794,"o":"m 499 -17 q 362 21 418 -17 q 278 118 306 58 l 272 0 l 92 0 l 92 986 l 281 986 l 281 639 q 364 727 307 693 q 499 761 421 761 q 714 659 633 761 q 794 372 794 557 q 714 85 794 188 q 499 -17 633 -17 m 444 150 q 560 208 521 150 q 599 372 599 265 q 560 538 599 481 q 444 594 521 594 q 325 537 369 594 q 281 372 281 479 q 326 208 281 265 q 444 150 371 150 z "},"c":{"ha":833,"x_min":71,"x_max":768,"o":"m 429 -17 q 242 32 324 -17 q 116 169 161 81 q 71 372 71 257 q 116 575 71 488 q 242 712 161 663 q 429 761 324 761 q 589 726 517 761 q 708 627 661 692 q 767 475 754 563 l 579 465 q 526 561 565 528 q 431 594 488 594 q 310 535 353 594 q 267 372 267 476 q 310 209 267 268 q 431 150 353 150 q 528 185 489 150 q 581 286 568 219 l 768 276 q 709 122 756 188 q 590 19 663 56 q 429 -17 518 -17 z "},"ć":{"ha":833,"x_min":71,"x_max":768,"o":"m 429 -17 q 242 32 324 -17 q 116 169 161 81 q 71 372 71 257 q 116 575 71 488 q 242 712 161 663 q 429 761 324 761 q 589 726 517 761 q 708 627 661 692 q 767 475 754 563 l 579 465 q 526 561 565 528 q 431 594 488 594 q 310 535 353 594 q 267 372 267 476 q 310 209 267 268 q 431 150 353 150 q 528 185 489 150 q 581 286 568 219 l 768 276 q 709 122 756 188 q 590 19 663 56 q 429 -17 518 -17 m 346 825 l 432 1029 l 635 1029 l 510 825 l 346 825 z "},"č":{"ha":833,"x_min":71,"x_max":768,"o":"m 429 -17 q 242 32 324 -17 q 116 169 161 81 q 71 372 71 257 q 116 575 71 488 q 242 712 161 663 q 429 761 324 761 q 589 726 517 761 q 708 627 661 692 q 767 475 754 563 l 579 465 q 526 561 565 528 q 431 594 488 594 q 310 535 353 594 q 267 372 267 476 q 310 209 267 268 q 431 150 353 150 q 528 185 489 150 q 581 286 568 219 l 768 276 q 709 122 756 188 q 590 19 663 56 q 429 -17 518 -17 m 210 1033 l 347 1033 l 429 913 l 511 1033 l 649 1033 l 514 821 l 344 821 l 210 1033 z "},"ç":{"ha":833,"x_min":71,"x_max":768,"o":"m 429 -17 q 242 32 324 -17 q 116 169 161 81 q 71 372 71 257 q 116 575 71 488 q 242 712 161 663 q 429 761 324 761 q 589 726 517 761 q 708 627 661 692 q 767 475 754 563 l 579 465 q 526 561 565 528 q 431 594 488 594 q 310 535 353 594 q 267 372 267 476 q 310 209 267 268 q 431 150 353 150 q 528 185 489 150 q 581 286 568 219 l 768 276 q 709 122 756 188 q 590 19 663 56 q 429 -17 518 -17 m 425 -322 q 309 -290 354 -322 q 246 -207 264 -258 l 338 -168 q 368 -208 349 -194 q 419 -221 388 -221 q 468 -208 450 -221 q 486 -171 486 -194 q 469 -131 486 -146 q 396 -117 451 -117 l 340 -62 l 385 14 l 504 14 l 467 -43 q 568 -87 536 -50 q 600 -175 600 -124 q 549 -286 600 -250 q 425 -322 497 -322 z "},"ĉ":{"ha":833,"x_min":71,"x_max":768,"o":"m 429 -17 q 242 32 324 -17 q 116 169 161 81 q 71 372 71 257 q 116 575 71 488 q 242 712 161 663 q 429 761 324 761 q 589 726 517 761 q 708 627 661 692 q 767 475 754 563 l 579 465 q 526 561 565 528 q 431 594 488 594 q 310 535 353 594 q 267 372 267 476 q 310 209 267 268 q 431 150 353 150 q 528 185 489 150 q 581 286 568 219 l 768 276 q 709 122 756 188 q 590 19 663 56 q 429 -17 518 -17 m 210 821 l 344 1033 l 514 1033 l 649 821 l 511 821 l 429 943 l 347 821 l 210 821 z "},"ċ":{"ha":833,"x_min":71,"x_max":768,"o":"m 429 -17 q 242 32 324 -17 q 116 169 161 81 q 71 372 71 257 q 116 575 71 488 q 242 712 161 663 q 429 761 324 761 q 589 726 517 761 q 708 627 661 692 q 767 475 754 563 l 579 465 q 526 561 565 528 q 431 594 488 594 q 310 535 353 594 q 267 372 267 476 q 310 209 267 268 q 431 150 353 150 q 528 185 489 150 q 581 286 568 219 l 768 276 q 709 122 756 188 q 590 19 663 56 q 429 -17 518 -17 m 333 836 l 333 1000 l 525 1000 l 525 836 l 333 836 z "},"d":{"ha":833,"x_min":39,"x_max":742,"o":"m 335 -17 q 119 85 200 -17 q 39 372 39 188 q 119 659 39 557 q 335 761 200 761 q 469 727 413 761 q 553 639 526 693 l 553 986 l 742 986 l 742 0 l 561 0 l 556 118 q 472 21 528 58 q 335 -17 415 -17 m 389 150 q 508 208 463 150 q 553 372 553 265 q 508 537 553 479 q 389 594 464 594 q 274 538 313 594 q 235 372 235 481 q 274 208 235 265 q 389 150 313 150 z "},"ď":{"ha":833,"x_min":11,"x_max":861,"o":"m 264 -17 q 81 85 151 -17 q 11 372 11 188 q 82 659 11 557 q 268 761 153 761 q 383 727 336 761 q 453 639 431 693 l 453 986 l 642 986 l 642 0 l 461 0 l 456 118 q 383 21 431 58 q 264 -17 335 -17 m 664 589 l 700 986 l 861 986 l 796 589 l 664 589 m 325 150 q 417 208 381 150 q 453 372 453 265 q 417 537 453 479 q 325 594 381 594 q 238 538 268 594 q 207 372 207 481 q 238 208 207 265 q 325 150 268 150 z "},"đ":{"ha":833,"x_min":39,"x_max":814,"o":"m 335 -17 q 119 85 200 -17 q 39 372 39 188 q 119 659 39 557 q 335 761 200 761 q 469 727 413 761 q 553 639 526 693 l 553 986 l 742 986 l 742 0 l 561 0 l 556 118 q 472 21 528 58 q 335 -17 415 -17 m 389 150 q 508 208 463 150 q 553 372 553 265 q 508 537 553 479 q 389 594 464 594 q 274 538 313 594 q 235 372 235 481 q 274 208 235 265 q 389 150 313 150 m 347 800 l 347 921 l 814 921 l 814 800 l 347 800 z "},"ð":{"ha":833,"x_min":75,"x_max":761,"o":"m 418 -17 q 238 26 315 -17 q 118 147 161 69 q 75 332 75 225 q 118 517 75 439 q 238 638 161 596 q 417 681 314 681 q 482 673 450 681 q 544 651 514 665 q 474 767 518 722 l 325 703 l 290 797 l 369 832 q 243 857 315 851 l 293 1003 q 433 970 371 994 q 546 908 496 946 l 713 981 l 747 886 l 625 832 q 728 621 696 743 q 761 361 761 499 q 718 158 761 242 q 598 28 675 74 q 418 -17 521 -17 m 418 146 q 527 194 488 146 q 567 340 567 242 q 527 472 567 425 q 418 518 488 518 q 309 470 349 518 q 269 332 269 422 q 309 194 269 242 q 418 146 349 146 z "},"e":{"ha":833,"x_min":68,"x_max":768,"o":"m 422 -17 q 238 31 317 -17 q 113 167 158 79 q 68 372 68 254 q 113 575 68 488 q 236 712 157 663 q 419 761 315 761 q 601 713 522 761 q 724 576 679 664 q 768 368 768 488 l 768 321 l 263 321 q 313 194 269 238 q 426 150 357 150 q 514 174 478 150 q 564 240 550 199 l 753 228 q 631 47 715 111 q 422 -17 547 -17 m 265 450 l 567 450 q 519 558 560 522 q 418 594 479 594 q 315 558 354 594 q 265 450 275 521 z "},"é":{"ha":833,"x_min":68,"x_max":768,"o":"m 422 -17 q 238 31 317 -17 q 113 167 158 79 q 68 372 68 254 q 113 575 68 488 q 236 712 157 663 q 419 761 315 761 q 601 713 522 761 q 724 576 679 664 q 768 368 768 488 l 768 321 l 263 321 q 313 194 269 238 q 426 150 357 150 q 514 174 478 150 q 564 240 550 199 l 753 228 q 631 47 715 111 q 422 -17 547 -17 m 265 450 l 567 450 q 519 558 560 522 q 418 594 479 594 q 315 558 354 594 q 265 450 275 521 m 336 824 l 422 1028 l 625 1028 l 500 824 l 336 824 z "},"ě":{"ha":833,"x_min":68,"x_max":768,"o":"m 422 -17 q 238 31 317 -17 q 113 167 158 79 q 68 372 68 254 q 113 575 68 488 q 236 712 157 663 q 419 761 315 761 q 601 713 522 761 q 724 576 679 664 q 768 368 768 488 l 768 321 l 263 321 q 313 194 269 238 q 426 150 357 150 q 514 174 478 150 q 564 240 550 199 l 753 228 q 631 47 715 111 q 422 -17 547 -17 m 265 450 l 567 450 q 519 558 560 522 q 418 594 479 594 q 315 558 354 594 q 265 450 275 521 m 200 1032 l 338 1032 l 419 911 l 501 1032 l 639 1032 l 504 819 l 335 819 l 200 1032 z "},"ê":{"ha":833,"x_min":68,"x_max":768,"o":"m 422 -17 q 238 31 317 -17 q 113 167 158 79 q 68 372 68 254 q 113 575 68 488 q 236 712 157 663 q 419 761 315 761 q 601 713 522 761 q 724 576 679 664 q 768 368 768 488 l 768 321 l 263 321 q 313 194 269 238 q 426 150 357 150 q 514 174 478 150 q 564 240 550 199 l 753 228 q 631 47 715 111 q 422 -17 547 -17 m 265 450 l 567 450 q 519 558 560 522 q 418 594 479 594 q 315 558 354 594 q 265 450 275 521 m 200 819 l 335 1032 l 504 1032 l 639 819 l 501 819 l 419 942 l 338 819 l 200 819 z "},"ë":{"ha":833,"x_min":68,"x_max":768,"o":"m 422 -17 q 238 31 317 -17 q 113 167 158 79 q 68 372 68 254 q 113 575 68 488 q 236 712 157 663 q 419 761 315 761 q 601 713 522 761 q 724 576 679 664 q 768 368 768 488 l 768 321 l 263 321 q 313 194 269 238 q 426 150 357 150 q 514 174 478 150 q 564 240 550 199 l 753 228 q 631 47 715 111 q 422 -17 547 -17 m 265 450 l 567 450 q 519 558 560 522 q 418 594 479 594 q 315 558 354 594 q 265 450 275 521 m 182 831 l 182 994 l 374 994 l 374 831 l 182 831 m 467 831 l 467 994 l 658 994 l 658 831 l 467 831 z "},"ė":{"ha":833,"x_min":68,"x_max":768,"o":"m 422 -17 q 238 31 317 -17 q 113 167 158 79 q 68 372 68 254 q 113 575 68 488 q 236 712 157 663 q 419 761 315 761 q 601 713 522 761 q 724 576 679 664 q 768 368 768 488 l 768 321 l 263 321 q 313 194 269 238 q 426 150 357 150 q 514 174 478 150 q 564 240 550 199 l 753 228 q 631 47 715 111 q 422 -17 547 -17 m 265 450 l 567 450 q 519 558 560 522 q 418 594 479 594 q 315 558 354 594 q 265 450 275 521 m 324 835 l 324 999 l 515 999 l 515 835 l 324 835 z "},"è":{"ha":833,"x_min":68,"x_max":768,"o":"m 422 -17 q 238 31 317 -17 q 113 167 158 79 q 68 372 68 254 q 113 575 68 488 q 236 712 157 663 q 419 761 315 761 q 601 713 522 761 q 724 576 679 664 q 768 368 768 488 l 768 321 l 263 321 q 313 194 269 238 q 426 150 357 150 q 514 174 478 150 q 564 240 550 199 l 753 228 q 631 47 715 111 q 422 -17 547 -17 m 265 450 l 567 450 q 519 558 560 522 q 418 594 479 594 q 315 558 354 594 q 265 450 275 521 m 344 824 l 219 1028 l 422 1028 l 508 824 l 344 824 z "},"ē":{"ha":833,"x_min":68,"x_max":768,"o":"m 422 -17 q 238 31 317 -17 q 113 167 158 79 q 68 372 68 254 q 113 575 68 488 q 236 712 157 663 q 419 761 315 761 q 601 713 522 761 q 724 576 679 664 q 768 368 768 488 l 768 321 l 263 321 q 313 194 269 238 q 426 150 357 150 q 514 174 478 150 q 564 240 550 199 l 753 228 q 631 47 715 111 q 422 -17 547 -17 m 265 450 l 567 450 q 519 558 560 522 q 418 594 479 594 q 315 558 354 594 q 265 450 275 521 m 219 844 l 219 985 l 619 985 l 619 844 l 219 844 z "},"ę":{"ha":833,"x_min":68,"x_max":768,"o":"m 422 -17 q 238 31 317 -17 q 113 167 158 79 q 68 372 68 254 q 113 575 68 488 q 236 712 157 663 q 419 761 315 761 q 601 713 522 761 q 724 576 679 664 q 768 368 768 488 l 768 321 l 263 321 q 313 194 269 238 q 426 150 357 150 q 514 174 478 150 q 564 240 550 199 l 753 228 q 631 47 715 111 q 422 -17 547 -17 m 265 450 l 567 450 q 519 558 560 522 q 418 594 479 594 q 315 558 354 594 q 265 450 275 521 m 499 -272 q 393 -239 432 -272 q 354 -150 354 -206 q 369 -78 354 -111 q 413 -10 385 -44 l 460 51 l 599 29 l 554 -28 q 522 -78 531 -60 q 513 -112 513 -97 q 550 -149 513 -149 q 611 -128 585 -149 l 647 -232 q 587 -260 628 -247 q 499 -272 546 -272 z "},"ẽ":{"ha":833,"x_min":68,"x_max":768,"o":"m 422 -17 q 238 31 317 -17 q 113 167 158 79 q 68 372 68 254 q 113 575 68 488 q 236 712 157 663 q 419 761 315 761 q 601 713 522 761 q 724 576 679 664 q 768 368 768 488 l 768 321 l 263 321 q 313 194 269 238 q 426 150 357 150 q 514 174 478 150 q 564 240 550 199 l 753 228 q 631 47 715 111 q 422 -17 547 -17 m 265 450 l 567 450 q 519 558 560 522 q 418 594 479 594 q 315 558 354 594 q 265 450 275 521 m 504 832 q 449 843 474 832 q 400 874 425 854 q 367 897 381 890 q 336 904 353 904 q 301 886 315 904 q 283 824 286 868 l 190 824 q 229 972 192 926 q 331 1017 267 1017 q 390 1005 365 1017 q 442 974 415 993 q 503 946 478 946 q 538 964 525 946 q 556 1029 551 982 l 649 1029 q 608 880 646 928 q 504 832 571 832 z "},"ə":{"ha":833,"x_min":65,"x_max":765,"o":"m 411 761 q 596 713 517 761 q 720 578 675 665 q 765 372 765 490 q 721 169 765 257 q 597 33 676 82 q 414 -17 518 -17 q 233 32 311 -17 q 110 169 154 81 q 65 376 65 257 l 65 424 l 571 424 q 520 551 564 507 q 407 594 476 594 q 319 570 356 594 q 269 504 283 546 l 81 517 q 202 698 118 635 q 411 761 286 761 m 568 294 l 267 294 q 314 186 274 222 q 415 150 354 150 q 519 187 479 150 q 568 294 558 224 z "},"f":{"ha":833,"x_min":89,"x_max":744,"o":"m 276 0 l 276 594 l 89 594 l 89 744 l 276 744 l 276 765 q 330 932 276 878 q 499 986 383 986 l 744 986 l 744 836 l 542 836 q 464 764 464 836 l 464 744 l 739 744 l 739 594 l 464 594 l 464 0 l 276 0 z "},"g":{"ha":833,"x_min":58,"x_max":761,"o":"m 411 -225 q 192 -167 275 -225 q 85 -11 110 -108 l 282 0 q 325 -53 294 -33 q 411 -72 356 -72 q 572 67 572 -72 l 572 153 q 496 70 547 101 q 367 39 444 39 q 208 84 278 39 q 99 209 139 129 q 58 393 58 289 q 97 588 58 506 q 205 716 136 671 q 363 761 274 761 q 492 727 438 761 q 575 631 547 693 l 578 744 l 761 744 l 761 90 q 666 -146 761 -67 q 411 -225 571 -225 m 414 190 q 528 242 485 190 q 572 397 572 294 q 529 554 574 500 q 414 608 485 608 q 296 554 338 608 q 254 397 254 500 q 297 242 254 294 q 414 190 339 190 z "},"ğ":{"ha":833,"x_min":58,"x_max":761,"o":"m 411 -225 q 192 -167 275 -225 q 85 -11 110 -108 l 282 0 q 325 -53 294 -33 q 411 -72 356 -72 q 572 67 572 -72 l 572 153 q 496 70 547 101 q 367 39 444 39 q 208 84 278 39 q 99 209 139 129 q 58 393 58 289 q 97 588 58 506 q 205 716 136 671 q 363 761 274 761 q 492 727 438 761 q 575 631 547 693 l 578 744 l 761 744 l 761 90 q 666 -146 761 -67 q 411 -225 571 -225 m 414 190 q 528 242 485 190 q 572 397 572 294 q 529 554 574 500 q 414 608 485 608 q 296 554 338 608 q 254 397 254 500 q 297 242 254 294 q 414 190 339 190 m 425 822 q 276 877 333 822 q 214 1026 218 932 l 328 1026 q 360 956 333 975 q 425 936 386 936 q 490 956 464 936 q 522 1026 517 975 l 636 1026 q 574 877 632 932 q 425 822 517 822 z "},"ǧ":{"ha":833,"x_min":58,"x_max":761,"o":"m 411 -225 q 192 -167 275 -225 q 85 -11 110 -108 l 282 0 q 325 -53 294 -33 q 411 -72 356 -72 q 572 67 572 -72 l 572 153 q 496 70 547 101 q 367 39 444 39 q 208 84 278 39 q 99 209 139 129 q 58 393 58 289 q 97 588 58 506 q 205 716 136 671 q 363 761 274 761 q 492 727 438 761 q 575 631 547 693 l 578 744 l 761 744 l 761 90 q 666 -146 761 -67 q 411 -225 571 -225 m 414 190 q 528 242 485 190 q 572 397 572 294 q 529 554 574 500 q 414 608 485 608 q 296 554 338 608 q 254 397 254 500 q 297 242 254 294 q 414 190 339 190 m 206 1033 l 343 1033 l 425 913 l 507 1033 l 644 1033 l 510 821 l 340 821 l 206 1033 z "},"ĝ":{"ha":833,"x_min":58,"x_max":761,"o":"m 411 -225 q 192 -167 275 -225 q 85 -11 110 -108 l 282 0 q 325 -53 294 -33 q 411 -72 356 -72 q 572 67 572 -72 l 572 153 q 496 70 547 101 q 367 39 444 39 q 208 84 278 39 q 99 209 139 129 q 58 393 58 289 q 97 588 58 506 q 205 716 136 671 q 363 761 274 761 q 492 727 438 761 q 575 631 547 693 l 578 744 l 761 744 l 761 90 q 666 -146 761 -67 q 411 -225 571 -225 m 414 190 q 528 242 485 190 q 572 397 572 294 q 529 554 574 500 q 414 608 485 608 q 296 554 338 608 q 254 397 254 500 q 297 242 254 294 q 414 190 339 190 m 204 821 l 339 1033 l 508 1033 l 643 821 l 506 821 l 424 943 l 342 821 l 204 821 z "},"ģ":{"ha":833,"x_min":58,"x_max":761,"o":"m 411 -225 q 192 -167 275 -225 q 85 -11 110 -108 l 282 0 q 325 -53 294 -33 q 411 -72 356 -72 q 572 67 572 -72 l 572 153 q 496 70 547 101 q 367 39 444 39 q 208 84 278 39 q 99 209 139 129 q 58 393 58 289 q 97 588 58 506 q 205 716 136 671 q 363 761 274 761 q 492 727 438 761 q 575 631 547 693 l 578 744 l 761 744 l 761 90 q 666 -146 761 -67 q 411 -225 571 -225 m 414 190 q 528 242 485 190 q 572 397 572 294 q 529 554 574 500 q 414 608 485 608 q 296 554 338 608 q 254 397 254 500 q 297 242 254 294 q 414 190 339 190 m 563 1106 l 476 976 l 536 976 l 536 822 l 358 822 l 358 963 l 460 1106 l 563 1106 z "},"ġ":{"ha":833,"x_min":58,"x_max":761,"o":"m 411 -225 q 192 -167 275 -225 q 85 -11 110 -108 l 282 0 q 325 -53 294 -33 q 411 -72 356 -72 q 572 67 572 -72 l 572 153 q 496 70 547 101 q 367 39 444 39 q 208 84 278 39 q 99 209 139 129 q 58 393 58 289 q 97 588 58 506 q 205 716 136 671 q 363 761 274 761 q 492 727 438 761 q 575 631 547 693 l 578 744 l 761 744 l 761 90 q 666 -146 761 -67 q 411 -225 571 -225 m 414 190 q 528 242 485 190 q 572 397 572 294 q 529 554 574 500 q 414 608 485 608 q 296 554 338 608 q 254 397 254 500 q 297 242 254 294 q 414 190 339 190 m 328 836 l 328 1000 l 519 1000 l 519 836 l 328 836 z "},"ḡ":{"ha":833,"x_min":58,"x_max":761,"o":"m 411 -225 q 192 -167 275 -225 q 85 -11 110 -108 l 282 0 q 325 -53 294 -33 q 411 -72 356 -72 q 572 67 572 -72 l 572 153 q 496 70 547 101 q 367 39 444 39 q 208 84 278 39 q 99 209 139 129 q 58 393 58 289 q 97 588 58 506 q 205 716 136 671 q 363 761 274 761 q 492 727 438 761 q 575 631 547 693 l 578 744 l 761 744 l 761 90 q 666 -146 761 -67 q 411 -225 571 -225 m 414 190 q 528 242 485 190 q 572 397 572 294 q 529 554 574 500 q 414 608 485 608 q 296 554 338 608 q 254 397 254 500 q 297 242 254 294 q 414 190 339 190 m 224 846 l 224 986 l 624 986 l 624 846 l 224 846 z "},"ǥ":{"ha":833,"x_min":50,"x_max":814,"o":"m 403 -225 q 184 -167 267 -225 q 76 -11 101 -108 l 274 0 q 317 -53 286 -33 q 403 -72 347 -72 q 564 67 564 -72 l 564 153 q 488 70 539 101 q 358 39 436 39 q 200 84 269 39 q 90 209 131 129 q 50 393 50 289 q 89 588 50 506 q 197 716 128 671 q 354 761 265 761 q 484 727 429 761 q 567 631 539 693 l 569 744 l 753 744 l 753 453 l 814 453 l 814 331 l 753 331 l 753 90 q 658 -146 753 -67 q 403 -225 563 -225 m 406 190 q 504 226 464 190 q 558 331 544 261 l 411 331 l 411 453 l 561 453 q 508 569 550 529 q 406 608 467 608 q 288 554 329 608 q 246 397 246 500 q 288 242 246 294 q 406 190 331 190 z "},"h":{"ha":833,"x_min":108,"x_max":736,"o":"m 108 0 l 108 986 l 297 986 l 297 640 q 382 732 328 703 q 508 761 436 761 q 680 685 624 761 q 736 481 736 608 l 736 0 l 547 0 l 547 442 q 518 565 547 528 q 436 601 489 601 q 337 558 376 601 q 297 429 297 515 l 297 0 l 108 0 z "},"ħ":{"ha":833,"x_min":36,"x_max":736,"o":"m 108 0 l 108 986 l 297 986 l 297 640 q 382 732 328 703 q 508 761 436 761 q 680 685 624 761 q 736 481 736 608 l 736 0 l 547 0 l 547 442 q 518 565 547 528 q 436 601 489 601 q 337 558 376 601 q 297 429 297 515 l 297 0 l 108 0 m 36 800 l 36 921 l 503 921 l 503 800 l 36 800 z "},"ĥ":{"ha":833,"x_min":-7,"x_max":736,"o":"m 108 0 l 108 986 l 297 986 l 297 640 q 382 732 328 703 q 508 761 436 761 q 680 685 624 761 q 736 481 736 608 l 736 0 l 547 0 l 547 442 q 518 565 547 528 q 436 601 489 601 q 337 558 376 601 q 297 429 297 515 l 297 0 l 108 0 m -7 1063 l 128 1275 l 297 1275 l 432 1063 l 294 1063 l 213 1185 l 131 1063 l -7 1063 z "},"i":{"ha":833,"x_min":94,"x_max":794,"o":"m 94 0 l 94 150 l 371 150 l 371 594 l 108 594 l 108 744 l 560 744 l 560 150 l 794 150 l 794 0 l 94 0 m 365 836 l 365 1000 l 557 1000 l 557 836 l 365 836 z "},"ı":{"ha":833,"x_min":94,"x_max":794,"o":"m 94 0 l 94 150 l 371 150 l 371 594 l 108 594 l 108 744 l 560 744 l 560 150 l 794 150 l 794 0 l 94 0 z "},"í":{"ha":833,"x_min":94,"x_max":794,"o":"m 94 0 l 94 150 l 371 150 l 371 594 l 108 594 l 108 744 l 560 744 l 560 150 l 794 150 l 794 0 l 94 0 m 378 825 l 464 1029 l 667 1029 l 542 825 l 378 825 z "},"î":{"ha":833,"x_min":94,"x_max":794,"o":"m 94 0 l 94 150 l 371 150 l 371 594 l 108 594 l 108 744 l 560 744 l 560 150 l 794 150 l 794 0 l 94 0 m 242 821 l 376 1033 l 546 1033 l 681 821 l 543 821 l 461 943 l 379 821 l 242 821 z "},"ï":{"ha":833,"x_min":94,"x_max":794,"o":"m 94 0 l 94 150 l 371 150 l 371 594 l 108 594 l 108 744 l 560 744 l 560 150 l 794 150 l 794 0 l 94 0 m 224 833 l 224 997 l 415 997 l 415 833 l 224 833 m 508 833 l 508 997 l 700 997 l 700 833 l 508 833 z "},"ì":{"ha":833,"x_min":94,"x_max":794,"o":"m 94 0 l 94 150 l 371 150 l 371 594 l 108 594 l 108 744 l 560 744 l 560 150 l 794 150 l 794 0 l 94 0 m 386 825 l 261 1029 l 464 1029 l 550 825 l 386 825 z "},"ī":{"ha":833,"x_min":94,"x_max":794,"o":"m 94 0 l 94 150 l 371 150 l 371 594 l 108 594 l 108 744 l 560 744 l 560 150 l 794 150 l 794 0 l 94 0 m 261 846 l 261 986 l 661 986 l 661 846 l 261 846 z "},"į":{"ha":833,"x_min":94,"x_max":843,"o":"m 94 0 l 94 150 l 371 150 l 371 594 l 108 594 l 108 744 l 560 744 l 560 150 l 794 150 l 794 0 l 94 0 m 365 836 l 365 1000 l 557 1000 l 557 836 l 365 836 m 694 -301 q 589 -268 628 -301 q 550 -179 550 -235 q 565 -107 550 -140 q 608 -39 581 -74 l 656 22 l 794 0 l 750 -57 q 717 -108 726 -89 q 708 -142 708 -126 q 746 -178 708 -178 q 807 -157 781 -178 l 843 -261 q 783 -289 824 -276 q 694 -301 742 -301 z "},"ĩ":{"ha":833,"x_min":94,"x_max":794,"o":"m 94 0 l 94 150 l 371 150 l 371 594 l 108 594 l 108 744 l 560 744 l 560 150 l 794 150 l 794 0 l 94 0 m 546 833 q 491 844 515 833 q 442 875 467 856 q 408 899 422 892 q 378 906 394 906 q 342 888 357 906 q 325 825 328 869 l 232 825 q 271 973 233 928 q 372 1018 308 1018 q 432 1006 407 1018 q 483 975 457 994 q 544 947 519 947 q 580 965 567 947 q 597 1031 593 983 l 690 1031 q 650 881 688 929 q 546 833 613 833 z "},"j":{"ha":833,"x_min":136,"x_max":651,"o":"m 136 -208 l 136 -58 l 344 -58 q 434 -31 406 -58 q 463 61 463 -4 l 463 594 l 143 594 l 143 744 l 651 744 l 651 56 q 578 -141 651 -74 q 364 -208 506 -208 l 136 -208 m 460 836 l 460 1000 l 651 1000 l 651 836 l 460 836 z "},"ȷ":{"ha":833,"x_min":136,"x_max":651,"o":"m 136 -208 l 136 -58 l 344 -58 q 434 -31 406 -58 q 463 61 463 -4 l 463 594 l 143 594 l 143 744 l 651 744 l 651 56 q 578 -141 651 -74 q 364 -208 506 -208 l 136 -208 z "},"ĵ":{"ha":833,"x_min":136,"x_max":775,"o":"m 136 -208 l 136 -58 l 344 -58 q 434 -31 406 -58 q 463 61 463 -4 l 463 594 l 143 594 l 143 744 l 651 744 l 651 56 q 578 -141 651 -74 q 364 -208 506 -208 l 136 -208 m 336 821 l 471 1033 l 640 1033 l 775 821 l 638 821 l 556 943 l 474 821 l 336 821 z "},"k":{"ha":833,"x_min":83,"x_max":792,"o":"m 83 0 l 83 986 l 272 986 l 272 419 l 556 744 l 779 744 l 496 426 l 792 0 l 576 0 l 372 304 l 272 194 l 272 0 l 83 0 z "},"ǩ":{"ha":833,"x_min":-33,"x_max":792,"o":"m 83 0 l 83 986 l 272 986 l 272 419 l 556 744 l 779 744 l 496 426 l 792 0 l 576 0 l 372 304 l 272 194 l 272 0 l 83 0 m -33 1275 l 104 1275 l 186 1154 l 268 1275 l 406 1275 l 271 1063 l 101 1063 l -33 1275 z "},"ķ":{"ha":833,"x_min":83,"x_max":792,"o":"m 83 0 l 83 986 l 272 986 l 272 419 l 556 744 l 779 744 l 496 426 l 792 0 l 576 0 l 372 304 l 272 194 l 272 0 l 83 0 m 304 -351 l 390 -224 l 331 -224 l 331 -68 l 508 -68 l 508 -210 l 407 -351 l 304 -351 z "},"l":{"ha":833,"x_min":67,"x_max":767,"o":"m 67 0 l 67 150 l 342 150 l 342 750 q 256 836 342 836 l 94 836 l 94 986 l 289 986 q 531 746 531 986 l 531 150 l 767 150 l 767 0 l 67 0 z "},"ĺ":{"ha":833,"x_min":67,"x_max":767,"o":"m 67 0 l 67 150 l 342 150 l 342 750 q 256 836 342 836 l 94 836 l 94 986 l 289 986 q 531 746 531 986 l 531 150 l 767 150 l 767 0 l 67 0 m 306 1067 l 392 1271 l 594 1271 l 469 1067 l 306 1067 z "},"ľ":{"ha":833,"x_min":67,"x_max":793,"o":"m 67 0 l 67 150 l 342 150 l 342 750 q 256 836 342 836 l 94 836 l 94 986 l 289 986 q 531 746 531 986 l 531 150 l 767 150 l 767 0 l 67 0 m 578 589 l 622 986 l 793 986 l 711 589 l 578 589 z "},"ļ":{"ha":833,"x_min":67,"x_max":767,"o":"m 67 0 l 67 150 l 342 150 l 342 750 q 256 836 342 836 l 94 836 l 94 986 l 289 986 q 531 746 531 986 l 531 150 l 767 150 l 767 0 l 67 0 m 319 -351 l 406 -224 l 346 -224 l 346 -68 l 524 -68 l 524 -210 l 422 -351 l 319 -351 z "},"ł":{"ha":833,"x_min":67,"x_max":767,"o":"m 67 0 l 67 150 l 342 150 l 342 750 q 256 836 342 836 l 94 836 l 94 986 l 289 986 q 531 746 531 986 l 531 150 l 767 150 l 767 0 l 67 0 m 186 369 l 186 506 l 686 672 l 686 536 l 186 369 z "},"m":{"ha":833,"x_min":39,"x_max":794,"o":"m 39 0 l 39 744 l 193 744 l 197 633 q 339 761 239 761 q 428 727 397 761 q 474 625 460 693 q 537 726 494 692 q 635 761 579 761 q 756 702 717 761 q 794 517 794 643 l 794 0 l 618 0 l 618 479 q 605 576 618 551 q 564 601 592 601 q 517 572 535 601 q 499 478 499 543 l 499 0 l 335 0 l 335 479 q 322 574 335 547 q 281 601 310 601 q 233 572 250 601 q 215 478 215 543 l 215 0 l 39 0 z "},"n":{"ha":833,"x_min":100,"x_max":733,"o":"m 100 0 l 100 744 l 272 744 l 276 611 q 365 725 306 689 q 501 761 424 761 q 677 683 621 761 q 733 482 733 606 l 733 0 l 544 0 l 544 439 q 431 601 544 601 q 331 558 372 601 q 289 431 289 515 l 289 0 l 100 0 z "},"ń":{"ha":833,"x_min":100,"x_max":733,"o":"m 100 0 l 100 744 l 272 744 l 276 611 q 365 725 306 689 q 501 761 424 761 q 677 683 621 761 q 733 482 733 606 l 733 0 l 544 0 l 544 439 q 431 601 544 601 q 331 558 372 601 q 289 431 289 515 l 289 0 l 100 0 m 331 825 l 417 1029 l 619 1029 l 494 825 l 331 825 z "},"ň":{"ha":833,"x_min":100,"x_max":733,"o":"m 100 0 l 100 744 l 272 744 l 276 611 q 365 725 306 689 q 501 761 424 761 q 677 683 621 761 q 733 482 733 606 l 733 0 l 544 0 l 544 439 q 431 601 544 601 q 331 558 372 601 q 289 431 289 515 l 289 0 l 100 0 m 194 1033 l 332 1033 l 414 913 l 496 1033 l 633 1033 l 499 821 l 329 821 l 194 1033 z "},"ņ":{"ha":833,"x_min":100,"x_max":733,"o":"m 100 0 l 100 744 l 272 744 l 276 611 q 365 725 306 689 q 501 761 424 761 q 677 683 621 761 q 733 482 733 606 l 733 0 l 544 0 l 544 439 q 431 601 544 601 q 331 558 372 601 q 289 431 289 515 l 289 0 l 100 0 m 299 -351 l 385 -224 l 325 -224 l 325 -68 l 503 -68 l 503 -210 l 401 -351 l 299 -351 z "},"ñ":{"ha":833,"x_min":100,"x_max":733,"o":"m 100 0 l 100 744 l 272 744 l 276 611 q 365 725 306 689 q 501 761 424 761 q 677 683 621 761 q 733 482 733 606 l 733 0 l 544 0 l 544 439 q 431 601 544 601 q 331 558 372 601 q 289 431 289 515 l 289 0 l 100 0 m 499 833 q 444 844 468 833 q 394 875 419 856 q 361 899 375 892 q 331 906 347 906 q 295 888 310 906 q 278 825 281 869 l 185 825 q 224 973 186 928 q 325 1018 261 1018 q 385 1006 360 1018 q 436 975 410 994 q 497 947 472 947 q 533 965 519 947 q 550 1031 546 983 l 643 1031 q 603 881 640 929 q 499 833 565 833 z "},"ŋ":{"ha":833,"x_min":100,"x_max":733,"o":"m 100 0 l 100 744 l 272 744 l 276 611 q 365 725 306 689 q 501 761 424 761 q 677 683 621 761 q 733 482 733 606 l 733 -7 q 676 -153 733 -97 q 524 -208 618 -208 l 393 -208 l 393 -58 l 481 -58 q 528 -42 511 -58 q 544 4 544 -25 l 544 439 q 431 601 544 601 q 331 558 372 601 q 289 431 289 515 l 289 0 l 100 0 z "},"o":{"ha":833,"x_min":64,"x_max":769,"o":"m 417 -17 q 232 31 311 -17 q 108 167 153 79 q 64 372 64 254 q 108 578 64 490 q 232 713 153 665 q 417 761 311 761 q 601 713 522 761 q 725 578 681 665 q 769 372 769 490 q 725 167 769 254 q 601 31 681 79 q 417 -17 522 -17 m 417 150 q 533 208 492 150 q 574 372 574 265 q 533 537 574 479 q 417 594 492 594 q 300 537 340 594 q 260 372 260 479 q 300 208 260 265 q 417 150 340 150 z "},"ó":{"ha":833,"x_min":64,"x_max":769,"o":"m 417 -17 q 232 31 311 -17 q 108 167 153 79 q 64 372 64 254 q 108 578 64 490 q 232 713 153 665 q 417 761 311 761 q 601 713 522 761 q 725 578 681 665 q 769 372 769 490 q 725 167 769 254 q 601 31 681 79 q 417 -17 522 -17 m 417 150 q 533 208 492 150 q 574 372 574 265 q 533 537 574 479 q 417 594 492 594 q 300 537 340 594 q 260 372 260 479 q 300 208 260 265 q 417 150 340 150 m 333 825 l 419 1029 l 622 1029 l 497 825 l 333 825 z "},"ô":{"ha":833,"x_min":64,"x_max":769,"o":"m 417 -17 q 232 31 311 -17 q 108 167 153 79 q 64 372 64 254 q 108 578 64 490 q 232 713 153 665 q 417 761 311 761 q 601 713 522 761 q 725 578 681 665 q 769 372 769 490 q 725 167 769 254 q 601 31 681 79 q 417 -17 522 -17 m 417 150 q 533 208 492 150 q 574 372 574 265 q 533 537 574 479 q 417 594 492 594 q 300 537 340 594 q 260 372 260 479 q 300 208 260 265 q 417 150 340 150 m 197 821 l 332 1033 l 501 1033 l 636 821 l 499 821 l 417 943 l 335 821 l 197 821 z "},"ö":{"ha":833,"x_min":64,"x_max":769,"o":"m 417 -17 q 232 31 311 -17 q 108 167 153 79 q 64 372 64 254 q 108 578 64 490 q 232 713 153 665 q 417 761 311 761 q 601 713 522 761 q 725 578 681 665 q 769 372 769 490 q 725 167 769 254 q 601 31 681 79 q 417 -17 522 -17 m 417 150 q 533 208 492 150 q 574 372 574 265 q 533 537 574 479 q 417 594 492 594 q 300 537 340 594 q 260 372 260 479 q 300 208 260 265 q 417 150 340 150 m 178 833 l 178 997 l 369 997 l 369 833 l 178 833 m 464 833 l 464 997 l 656 997 l 656 833 l 464 833 z "},"ò":{"ha":833,"x_min":64,"x_max":769,"o":"m 417 -17 q 232 31 311 -17 q 108 167 153 79 q 64 372 64 254 q 108 578 64 490 q 232 713 153 665 q 417 761 311 761 q 601 713 522 761 q 725 578 681 665 q 769 372 769 490 q 725 167 769 254 q 601 31 681 79 q 417 -17 522 -17 m 417 150 q 533 208 492 150 q 574 372 574 265 q 533 537 574 479 q 417 594 492 594 q 300 537 340 594 q 260 372 260 479 q 300 208 260 265 q 417 150 340 150 m 342 825 l 217 1029 l 419 1029 l 506 825 l 342 825 z "},"ő":{"ha":833,"x_min":64,"x_max":769,"o":"m 417 -17 q 232 31 311 -17 q 108 167 153 79 q 64 372 64 254 q 108 578 64 490 q 232 713 153 665 q 417 761 311 761 q 601 713 522 761 q 725 578 681 665 q 769 372 769 490 q 725 167 769 254 q 601 31 681 79 q 417 -17 522 -17 m 417 150 q 533 208 492 150 q 574 372 574 265 q 533 537 574 479 q 417 594 492 594 q 300 537 340 594 q 260 372 260 479 q 300 208 260 265 q 417 150 340 150 m 206 821 l 292 1025 l 494 1025 l 369 821 l 206 821 m 450 821 l 536 1025 l 739 1025 l 614 821 l 450 821 z "},"ō":{"ha":833,"x_min":64,"x_max":769,"o":"m 417 -17 q 232 31 311 -17 q 108 167 153 79 q 64 372 64 254 q 108 578 64 490 q 232 713 153 665 q 417 761 311 761 q 601 713 522 761 q 725 578 681 665 q 769 372 769 490 q 725 167 769 254 q 601 31 681 79 q 417 -17 522 -17 m 417 150 q 533 208 492 150 q 574 372 574 265 q 533 537 574 479 q 417 594 492 594 q 300 537 340 594 q 260 372 260 479 q 300 208 260 265 q 417 150 340 150 m 217 846 l 217 986 l 617 986 l 617 846 l 217 846 z "},"ø":{"ha":833,"x_min":64,"x_max":769,"o":"m 417 -17 q 232 31 311 -17 q 108 167 153 79 q 64 372 64 254 q 108 578 64 490 q 232 713 153 665 q 417 761 311 761 q 601 713 522 761 q 725 578 681 665 q 769 372 769 490 q 725 167 769 254 q 601 31 681 79 q 417 -17 522 -17 m 417 150 q 533 208 492 150 q 574 372 574 265 q 533 537 574 479 q 417 594 492 594 q 300 537 340 594 q 260 372 260 479 q 300 208 260 265 q 417 150 340 150 m 94 -19 l 607 764 l 739 764 l 226 -19 l 94 -19 z "},"õ":{"ha":833,"x_min":64,"x_max":769,"o":"m 417 -17 q 232 31 311 -17 q 108 167 153 79 q 64 372 64 254 q 108 578 64 490 q 232 713 153 665 q 417 761 311 761 q 601 713 522 761 q 725 578 681 665 q 769 372 769 490 q 725 167 769 254 q 601 31 681 79 q 417 -17 522 -17 m 417 150 q 533 208 492 150 q 574 372 574 265 q 533 537 574 479 q 417 594 492 594 q 300 537 340 594 q 260 372 260 479 q 300 208 260 265 q 417 150 340 150 m 501 833 q 447 844 471 833 q 397 875 422 856 q 364 899 378 892 q 333 906 350 906 q 298 888 313 906 q 281 825 283 869 l 188 825 q 226 973 189 928 q 328 1018 264 1018 q 388 1006 363 1018 q 439 975 413 994 q 500 947 475 947 q 535 965 522 947 q 553 1031 549 983 l 646 1031 q 606 881 643 929 q 501 833 568 833 z "},"œ":{"ha":833,"x_min":13,"x_max":822,"o":"m 254 -17 q 75 80 138 -17 q 13 372 13 176 q 75 665 13 568 q 254 761 138 761 q 414 675 349 761 q 582 761 478 761 q 754 671 686 761 q 822 388 822 581 l 822 317 l 500 317 q 524 188 503 229 q 579 147 544 147 q 621 167 606 147 q 643 240 636 186 l 814 224 q 732 40 790 97 q 582 -17 674 -17 q 414 69 478 -17 q 254 -17 347 -17 m 258 150 q 309 197 292 150 q 326 372 326 244 q 309 549 326 497 q 258 601 292 601 q 207 549 225 601 q 189 372 189 497 q 207 198 189 246 q 258 150 225 150 m 503 443 l 647 443 q 623 564 642 526 q 575 601 604 601 q 526 564 543 601 q 503 443 508 526 z "},"p":{"ha":833,"x_min":78,"x_max":781,"o":"m 78 -208 l 78 744 l 260 744 l 264 622 q 351 725 294 689 q 486 761 407 761 q 649 710 583 761 q 748 570 715 658 q 781 372 781 482 q 748 174 781 263 q 649 35 715 86 q 486 -17 583 -17 q 267 103 332 -17 l 267 -208 l 78 -208 m 428 150 q 544 204 503 150 q 585 372 585 258 q 544 540 585 486 q 428 594 503 594 q 312 540 357 594 q 267 372 267 486 q 312 204 267 258 q 428 150 357 150 z "},"þ":{"ha":833,"x_min":81,"x_max":783,"o":"m 81 -208 l 81 986 l 271 986 l 271 643 q 355 726 297 690 q 485 761 413 761 q 660 708 594 761 q 754 565 725 654 q 783 372 783 476 q 752 174 783 263 q 656 35 721 86 q 492 -17 592 -17 q 360 15 419 -17 q 271 106 301 46 l 271 -208 l 81 -208 m 429 150 q 549 210 510 150 q 589 372 589 271 q 549 538 589 478 q 429 597 510 597 q 306 533 346 597 q 265 372 265 468 q 308 210 265 271 q 429 150 351 150 z "},"q":{"ha":833,"x_min":53,"x_max":756,"o":"m 756 -208 l 567 -208 l 567 103 q 347 -17 501 -17 q 184 35 250 -17 q 85 174 118 86 q 53 372 53 263 q 85 570 53 482 q 184 710 118 658 q 347 761 250 761 q 483 725 426 761 q 569 622 539 689 l 574 744 l 756 744 l 756 -208 m 406 150 q 522 204 476 150 q 567 372 567 258 q 522 540 567 486 q 406 594 476 594 q 290 540 331 594 q 249 372 249 486 q 290 204 249 258 q 406 150 331 150 z "},"r":{"ha":833,"x_min":100,"x_max":775,"o":"m 100 0 l 100 150 l 278 150 l 278 594 l 100 594 l 100 744 l 417 744 l 428 600 q 489 708 446 672 q 608 744 532 744 l 775 744 l 775 590 l 622 590 q 467 428 467 590 l 467 150 l 693 150 l 693 0 l 100 0 z "},"ŕ":{"ha":833,"x_min":100,"x_max":775,"o":"m 100 0 l 100 150 l 278 150 l 278 594 l 100 594 l 100 744 l 417 744 l 428 600 q 489 708 446 672 q 608 744 532 744 l 775 744 l 775 590 l 622 590 q 467 428 467 590 l 467 150 l 693 150 l 693 0 l 100 0 m 388 825 l 474 1029 l 676 1029 l 551 825 l 388 825 z "},"ř":{"ha":833,"x_min":100,"x_max":775,"o":"m 100 0 l 100 150 l 278 150 l 278 594 l 100 594 l 100 744 l 417 744 l 428 600 q 489 708 446 672 q 608 744 532 744 l 775 744 l 775 590 l 622 590 q 467 428 467 590 l 467 150 l 693 150 l 693 0 l 100 0 m 253 1033 l 390 1033 l 472 913 l 554 1033 l 692 1033 l 557 821 l 388 821 l 253 1033 z "},"ŗ":{"ha":833,"x_min":100,"x_max":775,"o":"m 100 0 l 100 150 l 278 150 l 278 594 l 100 594 l 100 744 l 417 744 l 428 600 q 489 708 446 672 q 608 744 532 744 l 775 744 l 775 590 l 622 590 q 467 428 467 590 l 467 150 l 693 150 l 693 0 l 100 0 m 264 -351 l 350 -224 l 290 -224 l 290 -68 l 468 -68 l 468 -210 l 367 -351 l 264 -351 z "},"s":{"ha":833,"x_min":89,"x_max":744,"o":"m 424 -17 q 244 17 317 -17 q 134 107 172 50 q 89 233 96 164 l 275 242 q 322 168 286 194 q 425 142 357 142 q 551 203 551 142 q 541 238 551 224 q 499 263 531 251 q 407 286 468 275 q 228 340 294 310 q 134 415 163 369 q 106 528 106 460 q 139 645 106 592 q 240 730 172 699 q 411 761 308 761 q 591 726 522 761 q 694 633 660 690 q 739 511 729 575 l 551 503 q 507 575 543 547 q 411 603 471 603 q 325 580 351 603 q 299 528 299 557 q 313 485 299 501 q 363 456 326 468 q 467 429 400 443 q 635 381 575 408 q 719 311 694 353 q 744 207 744 269 q 660 43 744 103 q 424 -17 576 -17 z "},"ś":{"ha":833,"x_min":89,"x_max":744,"o":"m 424 -17 q 244 17 317 -17 q 134 107 172 50 q 89 233 96 164 l 275 242 q 322 168 286 194 q 425 142 357 142 q 551 203 551 142 q 541 238 551 224 q 499 263 531 251 q 407 286 468 275 q 228 340 294 310 q 134 415 163 369 q 106 528 106 460 q 139 645 106 592 q 240 730 172 699 q 411 761 308 761 q 591 726 522 761 q 694 633 660 690 q 739 511 729 575 l 551 503 q 507 575 543 547 q 411 603 471 603 q 325 580 351 603 q 299 528 299 557 q 313 485 299 501 q 363 456 326 468 q 467 429 400 443 q 635 381 575 408 q 719 311 694 353 q 744 207 744 269 q 660 43 744 103 q 424 -17 576 -17 m 336 825 l 422 1029 l 625 1029 l 500 825 l 336 825 z "},"š":{"ha":833,"x_min":89,"x_max":744,"o":"m 424 -17 q 244 17 317 -17 q 134 107 172 50 q 89 233 96 164 l 275 242 q 322 168 286 194 q 425 142 357 142 q 551 203 551 142 q 541 238 551 224 q 499 263 531 251 q 407 286 468 275 q 228 340 294 310 q 134 415 163 369 q 106 528 106 460 q 139 645 106 592 q 240 730 172 699 q 411 761 308 761 q 591 726 522 761 q 694 633 660 690 q 739 511 729 575 l 551 503 q 507 575 543 547 q 411 603 471 603 q 325 580 351 603 q 299 528 299 557 q 313 485 299 501 q 363 456 326 468 q 467 429 400 443 q 635 381 575 408 q 719 311 694 353 q 744 207 744 269 q 660 43 744 103 q 424 -17 576 -17 m 200 1033 l 338 1033 l 419 913 l 501 1033 l 639 1033 l 504 821 l 335 821 l 200 1033 z "},"ş":{"ha":833,"x_min":89,"x_max":744,"o":"m 424 -17 q 244 17 317 -17 q 134 107 172 50 q 89 233 96 164 l 275 242 q 322 168 286 194 q 425 142 357 142 q 551 203 551 142 q 541 238 551 224 q 499 263 531 251 q 407 286 468 275 q 228 340 294 310 q 134 415 163 369 q 106 528 106 460 q 139 645 106 592 q 240 730 172 699 q 411 761 308 761 q 591 726 522 761 q 694 633 660 690 q 739 511 729 575 l 551 503 q 507 575 543 547 q 411 603 471 603 q 325 580 351 603 q 299 528 299 557 q 313 485 299 501 q 363 456 326 468 q 467 429 400 443 q 635 381 575 408 q 719 311 694 353 q 744 207 744 269 q 660 43 744 103 q 424 -17 576 -17 m 414 -322 q 298 -290 343 -322 q 235 -207 253 -258 l 326 -168 q 357 -208 338 -194 q 408 -221 376 -221 q 457 -208 439 -221 q 475 -171 475 -194 q 458 -131 475 -146 q 385 -117 440 -117 l 329 -62 l 374 14 l 493 14 l 456 -43 q 557 -87 525 -50 q 589 -175 589 -124 q 538 -286 589 -250 q 414 -322 486 -322 z "},"ŝ":{"ha":833,"x_min":89,"x_max":744,"o":"m 424 -17 q 244 17 317 -17 q 134 107 172 50 q 89 233 96 164 l 275 242 q 322 168 286 194 q 425 142 357 142 q 551 203 551 142 q 541 238 551 224 q 499 263 531 251 q 407 286 468 275 q 228 340 294 310 q 134 415 163 369 q 106 528 106 460 q 139 645 106 592 q 240 730 172 699 q 411 761 308 761 q 591 726 522 761 q 694 633 660 690 q 739 511 729 575 l 551 503 q 507 575 543 547 q 411 603 471 603 q 325 580 351 603 q 299 528 299 557 q 313 485 299 501 q 363 456 326 468 q 467 429 400 443 q 635 381 575 408 q 719 311 694 353 q 744 207 744 269 q 660 43 744 103 q 424 -17 576 -17 m 200 821 l 335 1033 l 504 1033 l 639 821 l 501 821 l 419 943 l 338 821 l 200 821 z "},"ș":{"ha":833,"x_min":89,"x_max":744,"o":"m 424 -17 q 244 17 317 -17 q 134 107 172 50 q 89 233 96 164 l 275 242 q 322 168 286 194 q 425 142 357 142 q 551 203 551 142 q 541 238 551 224 q 499 263 531 251 q 407 286 468 275 q 228 340 294 310 q 134 415 163 369 q 106 528 106 460 q 139 645 106 592 q 240 730 172 699 q 411 761 308 761 q 591 726 522 761 q 694 633 660 690 q 739 511 729 575 l 551 503 q 507 575 543 547 q 411 603 471 603 q 325 580 351 603 q 299 528 299 557 q 313 485 299 501 q 363 456 326 468 q 467 429 400 443 q 635 381 575 408 q 719 311 694 353 q 744 207 744 269 q 660 43 744 103 q 424 -17 576 -17 m 304 -351 l 390 -224 l 331 -224 l 331 -68 l 508 -68 l 508 -210 l 407 -351 l 304 -351 z "},"ß":{"ha":833,"x_min":69,"x_max":779,"o":"m 69 0 l 69 644 q 159 905 69 810 q 413 1000 249 1000 q 644 928 563 1000 q 726 731 726 857 q 685 601 726 656 q 571 522 643 546 q 723 435 667 501 q 779 274 779 369 q 686 73 779 146 q 425 0 593 0 l 336 0 l 336 174 l 422 174 q 544 203 500 174 q 589 300 589 233 q 544 397 589 365 q 414 429 499 429 l 350 429 l 350 599 l 406 599 q 532 711 532 599 q 500 794 532 764 q 404 824 468 824 q 297 778 336 824 q 258 650 258 733 l 258 0 l 69 0 z "},"t":{"ha":833,"x_min":61,"x_max":739,"o":"m 518 0 q 334 57 393 0 q 275 233 275 114 l 275 594 l 61 594 l 61 744 l 275 744 l 275 919 l 464 919 l 464 744 l 739 744 l 739 594 l 464 594 l 464 251 q 564 150 464 150 l 739 150 l 739 0 l 518 0 z "},"ŧ":{"ha":833,"x_min":61,"x_max":739,"o":"m 122 332 l 122 453 l 275 453 l 275 594 l 61 594 l 61 744 l 275 744 l 275 919 l 464 919 l 464 744 l 739 744 l 739 594 l 464 594 l 464 453 l 682 453 l 682 332 l 464 332 l 464 251 q 564 150 464 150 l 739 150 l 739 0 l 518 0 q 334 57 393 0 q 275 233 275 114 l 275 332 l 122 332 z "},"ť":{"ha":833,"x_min":61,"x_max":739,"o":"m 528 790 l 568 1146 l 735 1146 l 658 790 l 528 790 m 518 0 q 334 57 393 0 q 275 233 275 114 l 275 594 l 61 594 l 61 744 l 275 744 l 275 919 l 464 919 l 464 744 l 739 744 l 739 594 l 464 594 l 464 251 q 564 150 464 150 l 739 150 l 739 0 l 518 0 z "},"ţ":{"ha":833,"x_min":61,"x_max":739,"o":"m 518 0 q 334 57 393 0 q 275 233 275 114 l 275 594 l 61 594 l 61 744 l 275 744 l 275 919 l 464 919 l 464 744 l 739 744 l 739 594 l 464 594 l 464 251 q 564 150 464 150 l 739 150 l 739 0 l 518 0 m 478 -322 q 362 -290 407 -322 q 299 -207 317 -258 l 390 -168 q 421 -208 401 -194 q 472 -221 440 -221 q 521 -208 503 -221 q 539 -171 539 -194 q 522 -131 539 -146 q 449 -117 504 -117 l 393 -62 l 438 14 l 557 14 l 519 -43 q 621 -87 589 -50 q 653 -175 653 -124 q 601 -286 653 -250 q 478 -322 550 -322 z "},"ț":{"ha":833,"x_min":61,"x_max":739,"o":"m 518 0 q 334 57 393 0 q 275 233 275 114 l 275 594 l 61 594 l 61 744 l 275 744 l 275 919 l 464 919 l 464 744 l 739 744 l 739 594 l 464 594 l 464 251 q 564 150 464 150 l 739 150 l 739 0 l 518 0 m 368 -351 l 454 -224 l 394 -224 l 394 -68 l 572 -68 l 572 -210 l 471 -351 l 368 -351 z "},"u":{"ha":833,"x_min":103,"x_max":726,"o":"m 329 -17 q 164 53 225 -17 q 103 257 103 124 l 103 744 l 292 744 l 292 304 q 319 181 292 218 q 403 143 347 143 q 499 186 460 143 q 539 313 539 229 l 539 744 l 726 744 l 726 0 l 553 0 l 550 129 q 466 21 522 58 q 329 -17 410 -17 z "},"ú":{"ha":833,"x_min":103,"x_max":726,"o":"m 329 -17 q 164 53 225 -17 q 103 257 103 124 l 103 744 l 292 744 l 292 304 q 319 181 292 218 q 403 143 347 143 q 499 186 460 143 q 539 313 539 229 l 539 744 l 726 744 l 726 0 l 553 0 l 550 129 q 466 21 522 58 q 329 -17 410 -17 m 326 825 l 413 1029 l 615 1029 l 490 825 l 326 825 z "},"ŭ":{"ha":833,"x_min":103,"x_max":726,"o":"m 329 -17 q 164 53 225 -17 q 103 257 103 124 l 103 744 l 292 744 l 292 304 q 319 181 292 218 q 403 143 347 143 q 499 186 460 143 q 539 313 539 229 l 539 744 l 726 744 l 726 0 l 553 0 l 550 129 q 466 21 522 58 q 329 -17 410 -17 m 410 822 q 260 877 318 822 q 199 1026 203 932 l 313 1026 q 344 956 318 975 q 410 936 371 936 q 475 956 449 936 q 507 1026 501 975 l 621 1026 q 559 877 617 932 q 410 822 501 822 z "},"û":{"ha":833,"x_min":103,"x_max":726,"o":"m 329 -17 q 164 53 225 -17 q 103 257 103 124 l 103 744 l 292 744 l 292 304 q 319 181 292 218 q 403 143 347 143 q 499 186 460 143 q 539 313 539 229 l 539 744 l 726 744 l 726 0 l 553 0 l 550 129 q 466 21 522 58 q 329 -17 410 -17 m 190 821 l 325 1033 l 494 1033 l 629 821 l 492 821 l 410 943 l 328 821 l 190 821 z "},"ü":{"ha":833,"x_min":103,"x_max":726,"o":"m 329 -17 q 164 53 225 -17 q 103 257 103 124 l 103 744 l 292 744 l 292 304 q 319 181 292 218 q 403 143 347 143 q 499 186 460 143 q 539 313 539 229 l 539 744 l 726 744 l 726 0 l 553 0 l 550 129 q 466 21 522 58 q 329 -17 410 -17 m 172 833 l 172 997 l 364 997 l 364 833 l 172 833 m 457 833 l 457 997 l 649 997 l 649 833 l 457 833 z "},"ù":{"ha":833,"x_min":103,"x_max":726,"o":"m 329 -17 q 164 53 225 -17 q 103 257 103 124 l 103 744 l 292 744 l 292 304 q 319 181 292 218 q 403 143 347 143 q 499 186 460 143 q 539 313 539 229 l 539 744 l 726 744 l 726 0 l 553 0 l 550 129 q 466 21 522 58 q 329 -17 410 -17 m 335 825 l 210 1029 l 413 1029 l 499 825 l 335 825 z "},"ű":{"ha":833,"x_min":103,"x_max":732,"o":"m 329 -17 q 164 53 225 -17 q 103 257 103 124 l 103 744 l 292 744 l 292 304 q 319 181 292 218 q 403 143 347 143 q 499 186 460 143 q 539 313 539 229 l 539 744 l 726 744 l 726 0 l 553 0 l 550 129 q 466 21 522 58 q 329 -17 410 -17 m 199 821 l 285 1025 l 488 1025 l 363 821 l 199 821 m 443 821 l 529 1025 l 732 1025 l 607 821 l 443 821 z "},"ū":{"ha":833,"x_min":103,"x_max":726,"o":"m 329 -17 q 164 53 225 -17 q 103 257 103 124 l 103 744 l 292 744 l 292 304 q 319 181 292 218 q 403 143 347 143 q 499 186 460 143 q 539 313 539 229 l 539 744 l 726 744 l 726 0 l 553 0 l 550 129 q 466 21 522 58 q 329 -17 410 -17 m 210 846 l 210 986 l 610 986 l 610 846 l 210 846 z "},"ų":{"ha":833,"x_min":103,"x_max":775,"o":"m 329 -17 q 164 53 225 -17 q 103 257 103 124 l 103 744 l 292 744 l 292 304 q 319 181 292 218 q 403 143 347 143 q 499 186 460 143 q 539 313 539 229 l 539 744 l 726 744 l 726 0 l 553 0 l 550 129 q 466 21 522 58 q 329 -17 410 -17 m 626 -301 q 521 -268 560 -301 q 482 -179 482 -235 q 497 -107 482 -140 q 540 -39 513 -74 l 588 22 l 726 0 l 682 -57 q 649 -108 658 -89 q 640 -142 640 -126 q 678 -178 640 -178 q 739 -157 713 -178 l 775 -261 q 715 -289 756 -276 q 626 -301 674 -301 z "},"ů":{"ha":833,"x_min":103,"x_max":726,"o":"m 329 -17 q 164 53 225 -17 q 103 257 103 124 l 103 744 l 292 744 l 292 304 q 319 181 292 218 q 403 143 347 143 q 499 186 460 143 q 539 313 539 229 l 539 744 l 726 744 l 726 0 l 553 0 l 550 129 q 466 21 522 58 q 329 -17 410 -17 m 410 799 q 307 839 349 799 q 265 939 265 879 q 307 1040 265 1000 q 410 1081 349 1081 q 513 1040 471 1081 q 554 939 554 1000 q 513 839 554 879 q 410 799 471 799 m 410 883 q 450 899 435 883 q 465 939 465 914 q 450 980 465 964 q 410 996 435 996 q 369 980 385 996 q 354 939 354 964 q 369 899 354 914 q 410 883 385 883 z "},"ũ":{"ha":833,"x_min":103,"x_max":726,"o":"m 329 -17 q 164 53 225 -17 q 103 257 103 124 l 103 744 l 292 744 l 292 304 q 319 181 292 218 q 403 143 347 143 q 499 186 460 143 q 539 313 539 229 l 539 744 l 726 744 l 726 0 l 553 0 l 550 129 q 466 21 522 58 q 329 -17 410 -17 m 494 833 q 440 844 464 833 q 390 875 415 856 q 357 899 371 892 q 326 906 343 906 q 291 888 306 906 q 274 825 276 869 l 181 825 q 219 973 182 928 q 321 1018 257 1018 q 381 1006 356 1018 q 432 975 406 994 q 493 947 468 947 q 528 965 515 947 q 546 1031 542 983 l 639 1031 q 599 881 636 929 q 494 833 561 833 z "},"v":{"ha":833,"x_min":50,"x_max":783,"o":"m 303 0 l 50 744 l 249 744 l 417 206 l 585 744 l 783 744 l 531 0 l 303 0 z "},"w":{"ha":833,"x_min":19,"x_max":814,"o":"m 156 0 l 19 744 l 207 744 l 275 258 l 353 636 l 481 636 l 558 258 l 626 744 l 814 744 l 678 0 l 496 0 l 417 367 l 338 0 l 156 0 z "},"ẃ":{"ha":833,"x_min":19,"x_max":814,"o":"m 156 0 l 19 744 l 207 744 l 275 258 l 353 636 l 481 636 l 558 258 l 626 744 l 814 744 l 678 0 l 496 0 l 417 367 l 338 0 l 156 0 m 333 825 l 419 1029 l 622 1029 l 497 825 l 333 825 z "},"ŵ":{"ha":833,"x_min":19,"x_max":814,"o":"m 156 0 l 19 744 l 207 744 l 275 258 l 353 636 l 481 636 l 558 258 l 626 744 l 814 744 l 678 0 l 496 0 l 417 367 l 338 0 l 156 0 m 197 821 l 332 1033 l 501 1033 l 636 821 l 499 821 l 417 943 l 335 821 l 197 821 z "},"ẅ":{"ha":833,"x_min":19,"x_max":814,"o":"m 156 0 l 19 744 l 207 744 l 275 258 l 353 636 l 481 636 l 558 258 l 626 744 l 814 744 l 678 0 l 496 0 l 417 367 l 338 0 l 156 0 m 178 833 l 178 997 l 369 997 l 369 833 l 178 833 m 464 833 l 464 997 l 656 997 l 656 833 l 464 833 z "},"ẁ":{"ha":833,"x_min":19,"x_max":814,"o":"m 156 0 l 19 744 l 207 744 l 275 258 l 353 636 l 481 636 l 558 258 l 626 744 l 814 744 l 678 0 l 496 0 l 417 367 l 338 0 l 156 0 m 342 825 l 217 1029 l 419 1029 l 506 825 l 342 825 z "},"x":{"ha":833,"x_min":47,"x_max":786,"o":"m 47 0 l 311 381 l 58 744 l 264 744 l 417 510 l 568 744 l 774 744 l 525 381 l 786 0 l 582 0 l 417 254 l 253 0 l 47 0 z "},"y":{"ha":833,"x_min":47,"x_max":789,"o":"m 160 -208 l 160 -58 l 261 -58 q 317 -48 297 -58 q 347 -8 336 -37 l 367 47 l 308 47 l 47 744 l 243 744 l 425 228 l 593 744 l 789 744 l 503 -65 q 421 -176 476 -143 q 281 -208 365 -208 l 160 -208 z "},"ý":{"ha":833,"x_min":47,"x_max":789,"o":"m 160 -208 l 160 -58 l 261 -58 q 317 -48 297 -58 q 347 -8 336 -37 l 367 47 l 308 47 l 47 744 l 243 744 l 425 228 l 593 744 l 789 744 l 503 -65 q 421 -176 476 -143 q 281 -208 365 -208 l 160 -208 m 338 825 l 424 1029 l 626 1029 l 501 825 l 338 825 z "},"ŷ":{"ha":833,"x_min":47,"x_max":789,"o":"m 160 -208 l 160 -58 l 261 -58 q 317 -48 297 -58 q 347 -8 336 -37 l 367 47 l 308 47 l 47 744 l 243 744 l 425 228 l 593 744 l 789 744 l 503 -65 q 421 -176 476 -143 q 281 -208 365 -208 l 160 -208 m 201 821 l 336 1033 l 506 1033 l 640 821 l 503 821 l 421 943 l 339 821 l 201 821 z "},"ÿ":{"ha":833,"x_min":47,"x_max":789,"o":"m 160 -208 l 160 -58 l 261 -58 q 317 -48 297 -58 q 347 -8 336 -37 l 367 47 l 308 47 l 47 744 l 243 744 l 425 228 l 593 744 l 789 744 l 503 -65 q 421 -176 476 -143 q 281 -208 365 -208 l 160 -208 m 183 833 l 183 997 l 375 997 l 375 833 l 183 833 m 468 833 l 468 997 l 660 997 l 660 833 l 468 833 z "},"ỳ":{"ha":833,"x_min":47,"x_max":789,"o":"m 160 -208 l 160 -58 l 261 -58 q 317 -48 297 -58 q 347 -8 336 -37 l 367 47 l 308 47 l 47 744 l 243 744 l 425 228 l 593 744 l 789 744 l 503 -65 q 421 -176 476 -143 q 281 -208 365 -208 l 160 -208 m 347 825 l 222 1029 l 425 1029 l 511 825 l 347 825 z "},"ỹ":{"ha":833,"x_min":47,"x_max":789,"o":"m 160 -208 l 160 -58 l 261 -58 q 317 -48 297 -58 q 347 -8 336 -37 l 367 47 l 308 47 l 47 744 l 243 744 l 425 228 l 593 744 l 789 744 l 503 -65 q 421 -176 476 -143 q 281 -208 365 -208 l 160 -208 m 507 833 q 452 844 476 833 q 403 875 428 856 q 369 899 383 892 q 339 906 356 906 q 303 888 318 906 q 286 825 289 869 l 193 825 q 232 973 194 928 q 333 1018 269 1018 q 393 1006 368 1018 q 444 975 418 994 q 506 947 481 947 q 541 965 528 947 q 558 1031 554 983 l 651 1031 q 611 881 649 929 q 507 833 574 833 z "},"z":{"ha":833,"x_min":96,"x_max":738,"o":"m 96 0 l 96 161 l 507 594 l 110 594 l 110 744 l 725 744 l 725 583 l 314 150 l 738 150 l 738 0 l 96 0 z "},"ź":{"ha":833,"x_min":96,"x_max":738,"o":"m 96 0 l 96 161 l 507 594 l 110 594 l 110 744 l 725 744 l 725 583 l 314 150 l 738 150 l 738 0 l 96 0 m 335 825 l 421 1029 l 624 1029 l 499 825 l 335 825 z "},"ž":{"ha":833,"x_min":96,"x_max":738,"o":"m 96 0 l 96 161 l 507 594 l 110 594 l 110 744 l 725 744 l 725 583 l 314 150 l 738 150 l 738 0 l 96 0 m 200 1033 l 338 1033 l 419 913 l 501 1033 l 639 1033 l 504 821 l 335 821 l 200 1033 z "},"ż":{"ha":833,"x_min":96,"x_max":738,"o":"m 96 0 l 96 161 l 507 594 l 110 594 l 110 744 l 725 744 l 725 583 l 314 150 l 738 150 l 738 0 l 96 0 m 322 836 l 322 1000 l 514 1000 l 514 836 l 322 836 z "},"ꞌ":{"ha":833,"x_min":317,"x_max":517,"o":"m 336 485 l 317 778 l 317 986 l 517 986 l 517 778 l 499 485 l 336 485 z "},"ª":{"ha":833,"x_min":147,"x_max":651,"o":"m 321 522 q 194 555 242 522 q 147 649 147 588 q 189 745 147 713 q 311 794 231 778 l 456 824 q 438 885 456 864 q 388 906 419 906 q 313 844 324 906 l 156 850 q 388 1008 182 1008 q 557 958 501 1008 q 613 813 613 908 l 613 663 q 619 635 613 642 q 639 628 626 628 l 651 628 l 651 528 q 589 522 633 522 q 523 538 554 522 q 482 604 492 554 q 424 544 465 567 q 321 522 383 522 m 358 618 q 428 643 400 618 q 456 714 456 668 l 456 736 l 365 715 q 308 663 308 701 q 358 618 308 618 z "},"º":{"ha":833,"x_min":163,"x_max":671,"o":"m 417 522 q 231 588 299 522 q 163 765 163 654 q 231 942 163 875 q 417 1008 299 1008 q 603 942 535 1008 q 671 765 671 875 q 602 588 671 654 q 417 522 533 522 m 417 633 q 510 765 510 633 q 485 863 510 829 q 417 897 461 897 q 347 863 371 897 q 324 765 324 828 q 417 633 324 633 z "},"А":{"ha":833,"x_min":26,"x_max":807,"o":"m 26 0 l 296 986 l 538 986 l 807 0 l 608 0 l 554 210 l 279 210 l 225 0 l 26 0 m 417 747 l 324 382 l 510 382 l 417 747 z "},"Б":{"ha":833,"x_min":103,"x_max":767,"o":"m 103 0 l 103 986 l 732 986 l 732 831 l 300 831 l 300 633 l 421 633 q 601 594 524 633 q 723 483 679 554 q 767 317 767 413 q 723 151 767 222 q 601 40 679 79 q 421 0 524 0 l 103 0 m 300 178 l 400 178 q 564 317 564 178 q 400 454 564 454 l 300 454 l 300 178 z "},"В":{"ha":833,"x_min":94,"x_max":781,"o":"m 94 0 l 94 986 l 397 986 q 651 919 563 986 q 739 722 739 851 q 692 583 739 640 q 547 508 644 526 q 724 429 668 493 q 781 269 781 365 q 690 68 781 136 q 428 0 599 0 l 94 0 m 293 585 l 397 585 q 501 615 467 585 q 536 699 536 644 q 501 782 536 753 q 397 811 467 811 l 293 811 l 293 585 m 293 175 l 429 176 q 540 207 503 176 q 578 292 578 238 q 540 383 578 350 q 429 415 501 415 l 293 415 l 293 175 z "},"Г":{"ha":833,"x_min":128,"x_max":769,"o":"m 128 0 l 128 986 l 769 986 l 769 831 l 297 831 l 297 0 l 128 0 z "},"Ѓ":{"ha":833,"x_min":128,"x_max":769,"o":"m 128 0 l 128 986 l 769 986 l 769 831 l 297 831 l 297 0 l 128 0 m 365 1067 l 451 1271 l 654 1271 l 529 1067 l 365 1067 z "},"Ґ":{"ha":833,"x_min":128,"x_max":783,"o":"m 128 0 l 128 986 l 614 986 l 614 1201 l 783 1201 l 783 831 l 297 831 l 297 0 l 128 0 z "},"Ғ":{"ha":833,"x_min":28,"x_max":769,"o":"m 128 0 l 128 378 l 28 378 l 28 533 l 128 533 l 128 986 l 769 986 l 769 831 l 297 831 l 297 533 l 625 533 l 625 378 l 297 378 l 297 0 l 128 0 z "},"Д":{"ha":833,"x_min":15,"x_max":810,"o":"m 15 -208 l 15 156 l 39 156 q 172 339 150 156 l 244 986 l 696 986 l 696 156 l 810 156 l 810 -208 l 640 -208 l 640 0 l 185 0 l 185 -208 l 15 -208 m 286 156 l 526 156 l 526 831 l 393 831 l 342 325 q 286 156 331 218 z "},"Е":{"ha":833,"x_min":117,"x_max":744,"o":"m 117 0 l 117 986 l 733 986 l 733 808 l 314 808 l 314 582 l 717 582 l 717 407 l 314 407 l 314 178 l 744 178 l 744 0 l 117 0 z "},"Ѐ":{"ha":833,"x_min":117,"x_max":744,"o":"m 117 0 l 117 986 l 733 986 l 733 808 l 314 808 l 314 582 l 717 582 l 717 407 l 314 407 l 314 178 l 744 178 l 744 0 l 117 0 m 358 1068 l 233 1272 l 436 1272 l 522 1068 l 358 1068 z "},"Ё":{"ha":833,"x_min":117,"x_max":744,"o":"m 117 0 l 117 986 l 733 986 l 733 808 l 314 808 l 314 582 l 717 582 l 717 407 l 314 407 l 314 178 l 744 178 l 744 0 l 117 0 m 194 1076 l 194 1240 l 386 1240 l 386 1076 l 194 1076 m 481 1076 l 481 1240 l 672 1240 l 672 1076 l 481 1076 z "},"Ж":{"ha":833,"x_min":6,"x_max":828,"o":"m 6 0 l 172 493 l 14 986 l 189 986 l 332 539 l 332 986 l 501 986 l 501 539 l 644 986 l 819 986 l 661 493 l 828 0 l 653 0 l 501 450 l 501 0 l 332 0 l 332 450 l 181 0 l 6 0 z "},"З":{"ha":833,"x_min":40,"x_max":790,"o":"m 425 -22 q 233 13 319 -22 q 96 115 147 49 q 40 272 44 181 l 219 281 q 281 172 225 211 q 417 133 336 133 q 560 175 507 133 q 613 286 613 217 q 556 409 613 367 q 422 449 500 451 l 332 447 l 332 601 l 422 600 q 497 613 461 599 q 556 656 532 626 q 579 736 579 686 q 535 821 579 789 q 415 853 492 853 q 301 823 346 853 q 250 744 256 793 l 71 753 q 126 887 79 829 q 249 976 172 944 q 425 1008 325 1008 q 599 975 524 1008 q 715 883 674 942 q 757 749 757 825 q 710 612 757 667 q 576 533 663 557 q 735 435 681 507 q 790 276 790 364 q 744 122 790 189 q 615 16 697 54 q 425 -22 532 -22 z "},"И":{"ha":833,"x_min":89,"x_max":744,"o":"m 744 0 l 556 0 l 556 638 l 282 0 l 89 0 l 89 986 l 278 986 l 278 349 l 551 986 l 744 986 l 744 0 z "},"Й":{"ha":833,"x_min":89,"x_max":744,"o":"m 417 1064 q 267 1119 325 1064 q 206 1268 210 1174 l 319 1268 q 351 1197 325 1217 q 417 1178 378 1178 q 482 1197 456 1178 q 514 1268 508 1217 l 628 1268 q 566 1119 624 1174 q 417 1064 508 1064 m 744 0 l 556 0 l 556 638 l 282 0 l 89 0 l 89 986 l 278 986 l 278 349 l 551 986 l 744 986 l 744 0 z "},"Ѝ":{"ha":833,"x_min":89,"x_max":744,"o":"m 744 0 l 556 0 l 556 638 l 282 0 l 89 0 l 89 986 l 278 986 l 278 349 l 551 986 l 744 986 l 744 0 m 342 1067 l 217 1271 l 419 1271 l 506 1067 l 342 1067 z "},"К":{"ha":833,"x_min":65,"x_max":800,"o":"m 65 0 l 65 986 l 235 986 l 235 507 l 583 986 l 786 986 l 426 493 l 800 0 l 596 0 l 235 481 l 235 0 l 65 0 z "},"Ќ":{"ha":833,"x_min":65,"x_max":800,"o":"m 65 0 l 65 986 l 235 986 l 235 507 l 583 986 l 786 986 l 426 493 l 800 0 l 596 0 l 235 481 l 235 0 l 65 0 m 331 1067 l 417 1271 l 619 1271 l 494 1067 l 331 1067 z "},"Л":{"ha":833,"x_min":24,"x_max":771,"o":"m 24 0 l 24 178 l 90 178 q 153 204 131 178 q 179 278 175 231 l 243 986 l 771 986 l 771 0 l 601 0 l 601 835 l 397 835 l 346 240 q 278 65 336 131 q 115 0 219 0 l 24 0 z "},"М":{"ha":833,"x_min":61,"x_max":772,"o":"m 357 136 l 242 622 l 242 0 l 61 0 l 61 986 l 283 986 l 417 464 l 550 986 l 772 986 l 772 0 l 592 0 l 592 622 l 476 136 l 357 136 z "},"Н":{"ha":833,"x_min":67,"x_max":767,"o":"m 67 0 l 67 986 l 264 986 l 264 585 l 569 585 l 569 986 l 767 986 l 767 0 l 569 0 l 569 407 l 264 407 l 264 0 l 67 0 z "},"О":{"ha":833,"x_min":44,"x_max":789,"o":"m 417 -22 q 141 111 238 -22 q 44 492 44 244 q 141 874 44 740 q 417 1008 238 1008 q 692 874 596 1008 q 789 492 789 740 q 692 111 789 244 q 417 -22 596 -22 m 417 153 q 543 234 500 153 q 586 492 586 315 q 543 751 586 668 q 417 833 500 833 q 290 751 333 833 q 247 492 247 668 q 290 234 247 315 q 417 153 333 153 z "},"П":{"ha":833,"x_min":75,"x_max":758,"o":"m 75 0 l 75 986 l 758 986 l 758 0 l 589 0 l 589 831 l 244 831 l 244 0 l 75 0 z "},"Р":{"ha":833,"x_min":108,"x_max":772,"o":"m 108 0 l 108 986 l 426 986 q 607 947 529 986 q 728 835 685 907 q 772 669 772 764 q 728 503 772 574 q 607 392 685 432 q 426 353 529 353 l 306 353 l 306 0 l 108 0 m 306 532 l 406 532 q 569 669 569 532 q 406 808 569 808 l 306 808 l 306 532 z "},"С":{"ha":833,"x_min":44,"x_max":782,"o":"m 422 -22 q 218 40 303 -22 q 89 218 133 103 q 44 492 44 333 q 89 767 44 651 q 218 946 133 883 q 422 1008 303 1008 q 660 913 567 1008 q 779 643 753 818 l 576 633 q 520 782 561 731 q 422 833 479 833 q 292 744 338 833 q 247 492 247 656 q 292 241 247 329 q 422 153 338 153 q 524 208 482 153 q 581 367 567 263 l 782 357 q 664 77 758 176 q 422 -22 569 -22 z "},"Т":{"ha":833,"x_min":56,"x_max":778,"o":"m 318 0 l 318 808 l 56 808 l 56 986 l 778 986 l 778 808 l 515 808 l 515 0 l 318 0 z "},"У":{"ha":833,"x_min":49,"x_max":790,"o":"m 171 0 l 171 156 l 258 156 q 308 167 289 156 q 339 208 328 178 l 367 288 l 313 288 l 49 986 l 235 986 l 424 451 l 607 986 l 790 986 l 494 138 q 419 33 469 67 q 290 0 369 0 l 171 0 z "},"Ў":{"ha":833,"x_min":49,"x_max":790,"o":"m 171 0 l 171 156 l 258 156 q 308 167 289 156 q 339 208 328 178 l 367 288 l 313 288 l 49 986 l 235 986 l 424 451 l 607 986 l 790 986 l 494 138 q 419 33 469 67 q 290 0 369 0 l 171 0 m 424 1064 q 274 1119 332 1064 q 213 1268 217 1174 l 326 1268 q 358 1197 332 1217 q 424 1178 385 1178 q 489 1197 463 1178 q 521 1268 515 1217 l 635 1268 q 573 1119 631 1174 q 424 1064 515 1064 z "},"Ф":{"ha":833,"x_min":31,"x_max":803,"o":"m 332 0 l 332 108 q 111 235 192 133 q 31 493 31 336 q 111 751 31 650 q 332 878 192 853 l 332 986 l 501 986 l 501 878 q 722 753 642 854 q 803 493 803 651 q 722 233 803 335 q 501 108 642 132 l 501 0 l 332 0 m 625 493 q 592 632 625 575 q 501 714 560 689 l 501 272 q 592 354 560 297 q 625 493 625 411 m 208 493 q 241 354 208 411 q 332 274 274 297 l 332 713 q 241 632 274 689 q 208 493 208 575 z "},"Х":{"ha":833,"x_min":47,"x_max":786,"o":"m 47 0 l 283 497 l 51 986 l 269 986 l 419 642 l 569 986 l 782 986 l 550 494 l 786 0 l 568 0 l 414 353 l 261 0 l 47 0 z "},"Ч":{"ha":833,"x_min":69,"x_max":736,"o":"m 567 0 l 567 443 q 475 360 533 390 q 344 331 417 331 q 201 367 263 331 q 104 472 139 404 q 69 632 69 540 l 69 986 l 239 986 l 239 683 q 277 540 239 593 q 374 488 315 488 q 513 541 460 488 q 567 683 567 594 l 567 986 l 736 986 l 736 0 l 567 0 z "},"Ц":{"ha":833,"x_min":46,"x_max":817,"o":"m 647 -208 l 647 0 l 46 0 l 46 986 l 215 986 l 215 156 l 560 156 l 560 986 l 729 986 l 729 156 l 817 156 l 817 -208 l 647 -208 z "},"Ш":{"ha":833,"x_min":56,"x_max":778,"o":"m 56 0 l 56 986 l 225 986 l 225 156 l 339 156 l 339 986 l 494 986 l 494 156 l 608 156 l 608 986 l 778 986 l 778 0 l 56 0 z "},"Щ":{"ha":833,"x_min":36,"x_max":817,"o":"m 36 0 l 36 986 l 200 986 l 200 156 l 313 156 l 313 986 l 463 986 l 463 156 l 574 156 l 574 986 l 739 986 l 739 156 l 817 156 l 817 -208 l 647 -208 l 647 0 l 36 0 z "},"Џ":{"ha":833,"x_min":75,"x_max":758,"o":"m 333 -208 l 333 0 l 75 0 l 75 986 l 244 986 l 244 156 l 589 156 l 589 986 l 758 986 l 758 0 l 503 0 l 503 -208 l 333 -208 z "},"Ь":{"ha":833,"x_min":108,"x_max":772,"o":"m 108 986 l 306 986 l 306 633 l 426 633 q 607 594 529 633 q 728 483 685 554 q 772 317 772 413 q 728 151 772 222 q 607 40 685 79 q 426 0 529 0 l 108 0 l 108 986 m 306 454 l 306 178 l 406 178 q 569 317 569 178 q 406 454 569 454 l 306 454 z "},"Ы":{"ha":833,"x_min":32,"x_max":801,"o":"m 32 0 l 32 986 l 201 986 l 201 633 l 239 633 q 485 552 401 633 q 569 317 569 471 q 485 81 569 161 q 239 0 401 0 l 32 0 m 632 0 l 632 986 l 801 986 l 801 0 l 632 0 m 201 156 l 239 156 q 390 317 390 156 q 239 476 390 476 l 201 476 l 201 156 z "},"Ъ":{"ha":833,"x_min":29,"x_max":797,"o":"m 29 831 l 29 986 l 331 986 l 331 633 l 451 633 q 631 594 553 633 q 753 483 708 554 q 797 317 797 413 q 753 151 797 222 q 631 40 708 79 q 451 0 553 0 l 133 0 l 133 831 l 29 831 m 331 454 l 331 178 l 431 178 q 593 317 593 178 q 431 454 593 454 l 331 454 z "},"Љ":{"ha":833,"x_min":4,"x_max":832,"o":"m 4 0 l 4 178 l 24 178 q 87 204 64 178 q 111 278 110 231 l 136 986 l 543 986 l 544 633 l 575 633 q 767 550 701 633 q 832 317 832 467 q 767 83 832 165 q 575 0 701 0 l 374 0 l 374 835 l 294 835 l 278 240 q 214 65 275 131 q 49 0 153 0 l 4 0 m 544 156 l 564 156 q 634 195 613 156 q 656 317 656 235 q 634 438 656 399 q 564 476 613 476 l 544 476 l 544 156 z "},"Њ":{"ha":833,"x_min":19,"x_max":814,"o":"m 19 0 l 19 986 l 181 986 l 181 633 l 310 633 l 310 986 l 472 986 l 472 633 l 513 633 q 738 550 661 633 q 814 317 814 467 q 738 83 814 165 q 513 0 661 0 l 310 0 l 310 476 l 181 476 l 181 0 l 19 0 m 472 156 l 493 156 q 603 195 571 156 q 635 317 635 235 q 603 438 635 399 q 493 476 571 476 l 472 476 l 472 156 z "},"Ѕ":{"ha":833,"x_min":58,"x_max":775,"o":"m 425 -22 q 163 73 257 -22 q 58 333 69 168 l 257 343 q 435 153 283 153 q 538 181 501 153 q 575 261 575 208 q 557 328 575 299 q 494 381 539 357 q 367 425 449 404 q 149 524 219 463 q 78 710 78 586 q 166 927 78 846 q 417 1008 254 1008 q 664 922 575 1008 q 764 678 753 835 l 564 668 q 514 790 553 746 q 408 833 475 833 q 313 802 349 833 q 278 719 278 771 q 295 659 278 683 q 356 615 313 635 q 476 575 400 596 q 654 506 589 547 q 747 405 719 464 q 775 268 775 346 q 682 56 775 135 q 425 -22 589 -22 z "},"Є":{"ha":833,"x_min":44,"x_max":779,"o":"m 417 -22 q 214 40 297 -22 q 88 218 131 103 q 44 492 44 333 q 88 767 44 651 q 214 946 131 883 q 417 1008 297 1008 q 660 908 568 1008 q 779 632 753 808 l 600 632 q 537 796 583 739 q 417 853 490 853 q 284 780 332 853 q 225 569 236 707 l 468 569 l 468 414 l 225 414 q 285 205 236 276 q 417 133 333 133 q 537 189 490 133 q 600 350 583 244 l 779 350 q 660 76 753 175 q 417 -22 567 -22 z "},"Э":{"ha":833,"x_min":54,"x_max":789,"o":"m 417 -22 q 174 76 267 -22 q 54 350 81 175 l 233 350 q 297 189 250 244 q 417 133 343 133 q 549 205 500 133 q 608 414 597 276 l 365 414 l 365 569 l 608 569 q 549 780 597 707 q 417 853 501 853 q 297 796 343 853 q 233 632 250 739 l 54 632 q 173 908 81 808 q 417 1008 265 1008 q 619 946 536 1008 q 746 767 703 883 q 789 492 789 651 q 746 218 789 333 q 619 40 703 103 q 417 -22 536 -22 z "},"І":{"ha":833,"x_min":103,"x_max":731,"o":"m 103 0 l 103 178 l 318 178 l 318 808 l 103 808 l 103 986 l 731 986 l 731 808 l 515 808 l 515 178 l 731 178 l 731 0 l 103 0 z "},"Ї":{"ha":833,"x_min":103,"x_max":731,"o":"m 103 0 l 103 178 l 318 178 l 318 808 l 103 808 l 103 986 l 731 986 l 731 808 l 515 808 l 515 178 l 731 178 l 731 0 l 103 0 m 178 1075 l 178 1239 l 369 1239 l 369 1075 l 178 1075 m 464 1075 l 464 1239 l 656 1239 l 656 1075 l 464 1075 z "},"Ј":{"ha":833,"x_min":47,"x_max":717,"o":"m 383 -22 q 139 76 228 -22 q 47 350 50 174 l 246 361 q 281 202 249 251 q 385 153 314 153 q 487 199 454 153 q 519 342 519 244 l 519 986 l 717 986 l 717 342 q 629 74 717 169 q 383 -22 542 -22 z "},"Ћ":{"ha":833,"x_min":7,"x_max":792,"o":"m 158 0 l 158 831 l 7 831 l 7 986 l 529 986 l 529 831 l 328 831 l 328 549 q 408 627 358 599 q 517 656 458 656 q 660 619 599 656 q 757 514 722 582 q 792 354 792 446 l 792 0 l 622 0 l 622 303 q 583 445 622 392 q 482 499 543 499 q 372 445 417 499 q 328 303 328 392 l 328 0 l 158 0 z "},"Ю":{"ha":833,"x_min":24,"x_max":810,"o":"m 24 0 l 24 986 l 193 986 l 193 571 l 278 571 q 350 903 286 799 q 542 1008 414 1008 q 746 885 682 1008 q 810 492 810 761 q 746 101 810 224 q 542 -22 682 -22 q 350 83 414 -22 q 278 415 286 188 l 193 415 l 193 0 l 24 0 m 542 133 q 617 217 594 133 q 640 492 640 301 q 617 768 640 683 q 542 853 594 853 q 469 768 492 853 q 447 492 447 683 q 469 217 447 301 q 542 133 492 133 z "},"Я":{"ha":833,"x_min":50,"x_max":744,"o":"m 744 0 l 547 0 l 547 358 l 429 358 l 263 0 l 50 0 l 258 401 q 132 503 182 438 q 82 681 82 569 q 172 907 82 828 q 428 986 263 986 l 744 986 l 744 0 m 547 536 l 547 808 l 431 808 q 286 672 286 808 q 431 536 286 536 l 547 536 z "},"Ђ":{"ha":833,"x_min":7,"x_max":819,"o":"m 158 0 l 158 831 l 7 831 l 7 986 l 529 986 l 529 831 l 328 831 l 328 551 q 408 628 358 600 q 519 656 457 656 q 677 616 610 656 q 782 505 744 576 q 819 338 819 433 q 774 158 819 233 q 645 41 729 82 q 447 0 561 0 l 447 156 q 590 203 538 156 q 642 332 642 251 q 600 453 642 408 q 489 497 558 497 q 372 442 417 497 q 328 294 328 386 l 328 0 l 158 0 z "},"Ѣ":{"ha":833,"x_min":25,"x_max":803,"o":"m 25 731 l 25 864 l 139 864 l 139 986 l 338 986 l 338 864 l 538 864 l 538 731 l 338 731 l 338 633 l 457 633 q 638 594 560 633 q 759 483 715 554 q 803 317 803 413 q 759 151 803 222 q 638 40 715 79 q 457 0 560 0 l 139 0 l 139 731 l 25 731 m 338 454 l 338 178 l 438 178 q 600 317 600 178 q 438 454 600 454 l 338 454 z "},"Ѫ":{"ha":833,"x_min":1,"x_max":832,"o":"m 1 0 l 104 358 q 156 478 125 438 q 231 531 186 519 l 83 831 l 83 986 l 750 986 l 750 831 l 604 531 q 676 478 646 519 q 728 358 707 436 l 832 0 l 657 0 l 579 285 q 548 359 565 339 q 501 379 531 379 l 501 0 l 332 0 l 332 379 q 284 358 301 379 q 253 285 267 338 l 176 0 l 1 0 m 276 831 l 417 543 l 557 831 l 276 831 z "},"Ѳ":{"ha":833,"x_min":44,"x_max":789,"o":"m 417 -22 q 141 111 238 -22 q 44 492 44 244 q 141 874 44 740 q 417 1008 238 1008 q 692 874 596 1008 q 789 492 789 740 q 692 111 789 244 q 417 -22 596 -22 m 403 585 q 513 547 471 558 q 585 536 554 535 q 537 761 579 689 q 417 833 494 833 q 309 781 350 833 q 254 615 268 728 q 403 585 328 615 m 417 153 q 526 206 485 153 q 579 375 567 260 q 406 422 518 381 q 249 453 314 458 q 296 225 253 297 q 417 153 339 153 z "},"Ѵ":{"ha":833,"x_min":17,"x_max":826,"o":"m 324 0 l 17 986 l 194 986 l 403 297 l 544 775 q 633 932 575 878 q 769 986 690 986 l 826 986 l 826 831 l 810 831 q 749 804 774 831 q 706 715 724 778 l 485 0 l 324 0 z "},"Җ":{"ha":833,"x_min":6,"x_max":828,"o":"m 6 0 l 163 493 l 13 986 l 179 986 l 315 539 l 315 986 l 475 986 l 475 539 l 611 986 l 778 986 l 628 493 l 743 131 l 828 131 l 828 -208 l 664 -208 l 664 0 l 619 0 l 475 450 l 475 0 l 315 0 l 315 450 l 171 0 l 6 0 z "},"Қ":{"ha":833,"x_min":43,"x_max":803,"o":"m 43 0 l 43 986 l 213 986 l 213 507 l 561 986 l 764 986 l 404 493 l 679 131 l 803 131 l 803 -208 l 633 -208 l 633 0 l 574 0 l 213 481 l 213 0 l 43 0 z "},"Ң":{"ha":833,"x_min":39,"x_max":821,"o":"m 39 0 l 39 986 l 238 986 l 238 585 l 542 585 l 542 986 l 739 986 l 739 131 l 821 131 l 821 -208 l 651 -208 l 651 0 l 542 0 l 542 407 l 238 407 l 238 0 l 39 0 z "},"Ү":{"ha":833,"x_min":42,"x_max":792,"o":"m 318 0 l 318 411 l 42 986 l 256 986 l 417 615 l 578 986 l 792 986 l 517 411 l 517 0 l 318 0 z "},"Ұ":{"ha":833,"x_min":40,"x_max":790,"o":"m 96 279 l 96 435 l 306 435 l 40 986 l 254 986 l 415 615 l 576 986 l 790 986 l 526 435 l 735 435 l 735 279 l 515 279 l 515 0 l 317 0 l 317 279 l 96 279 z "},"Ҳ":{"ha":833,"x_min":39,"x_max":814,"o":"m 39 0 l 275 497 l 43 986 l 261 986 l 411 642 l 561 986 l 774 986 l 542 494 l 715 131 l 814 131 l 814 -208 l 644 -208 l 644 0 l 560 0 l 406 353 l 253 0 l 39 0 z "},"Ҷ":{"ha":833,"x_min":44,"x_max":813,"o":"m 542 0 l 542 443 q 450 360 508 390 q 319 331 392 331 q 176 367 238 331 q 79 472 114 404 q 44 632 44 540 l 44 986 l 214 986 l 214 683 q 252 540 214 593 q 349 488 290 488 q 488 541 435 488 q 542 683 542 594 l 542 986 l 711 986 l 711 131 l 813 131 l 813 -208 l 643 -208 l 643 0 l 542 0 z "},"Һ":{"ha":833,"x_min":97,"x_max":764,"o":"m 267 986 l 267 543 q 358 626 300 596 q 489 656 417 656 q 633 619 571 656 q 729 514 694 582 q 764 354 764 446 l 764 0 l 594 0 l 594 303 q 556 446 594 393 q 460 499 518 499 q 320 445 374 499 q 267 303 267 392 l 267 0 l 97 0 l 97 986 l 267 986 z "},"Ӏ":{"ha":833,"x_min":103,"x_max":731,"o":"m 103 0 l 103 178 l 318 178 l 318 808 l 103 808 l 103 986 l 731 986 l 731 808 l 515 808 l 515 178 l 731 178 l 731 0 l 103 0 z "},"Ә":{"ha":833,"x_min":46,"x_max":796,"o":"m 422 -22 q 143 110 240 -22 q 46 471 46 242 l 46 561 l 592 561 q 572 698 592 636 q 514 797 553 760 q 417 833 475 833 q 315 789 353 833 q 260 672 276 744 l 56 694 q 186 923 94 838 q 408 1008 278 1008 q 694 873 592 1008 q 796 493 796 738 q 749 218 796 333 q 617 40 701 103 q 422 -22 532 -22 m 422 153 q 547 218 503 153 q 592 396 592 283 l 254 396 q 301 215 254 278 q 422 153 347 153 z "},"Ӣ":{"ha":833,"x_min":89,"x_max":744,"o":"m 744 0 l 556 0 l 556 638 l 282 0 l 89 0 l 89 986 l 278 986 l 278 349 l 551 986 l 744 986 l 744 0 m 217 1088 l 217 1228 l 617 1228 l 617 1088 l 217 1088 z "},"Ө":{"ha":833,"x_min":44,"x_max":789,"o":"m 417 -22 q 141 111 238 -22 q 44 492 44 244 q 141 874 44 740 q 417 1008 238 1008 q 692 874 596 1008 q 789 492 789 740 q 692 111 789 244 q 417 -22 596 -22 m 417 833 q 301 767 343 833 q 250 561 258 701 l 583 561 q 533 767 575 701 q 417 833 490 833 m 417 153 q 531 213 489 153 q 582 404 572 274 l 251 404 q 303 213 261 274 q 417 153 344 153 z "},"Ӯ":{"ha":833,"x_min":49,"x_max":790,"o":"m 171 0 l 171 156 l 258 156 q 308 167 289 156 q 339 208 328 178 l 367 288 l 313 288 l 49 986 l 235 986 l 424 451 l 607 986 l 790 986 l 494 138 q 419 33 469 67 q 290 0 369 0 l 171 0 m 222 1088 l 222 1228 l 622 1228 l 622 1088 l 222 1088 z "},"а":{"ha":833,"x_min":64,"x_max":772,"o":"m 311 -17 q 187 8 243 -17 q 97 81 131 33 q 64 193 64 128 q 124 340 64 288 q 290 415 185 393 l 514 464 q 485 572 514 533 q 393 610 457 610 q 306 581 336 610 q 267 508 276 553 l 72 519 q 177 695 93 629 q 390 761 261 761 q 627 680 551 761 q 703 453 703 599 l 703 190 q 713 152 703 163 q 742 142 722 142 l 772 142 l 772 0 q 744 -3 764 -1 q 704 -6 725 -6 q 535 111 565 -6 q 453 19 511 54 q 311 -17 394 -17 m 350 125 q 472 167 429 125 q 514 286 514 210 l 514 331 l 349 294 q 278 263 299 283 q 257 203 257 242 q 350 125 257 125 z "},"б":{"ha":833,"x_min":67,"x_max":767,"o":"m 419 -22 q 283 8 347 -22 q 167 100 219 38 q 92 242 118 156 q 67 440 67 329 q 129 745 67 629 q 310 917 192 861 q 396 978 372 946 q 419 1067 419 1010 l 581 1068 q 544 903 581 967 q 413 792 507 839 q 304 717 346 758 q 249 589 263 675 q 436 679 317 679 q 610 636 536 679 q 726 515 685 593 q 767 331 767 436 q 723 143 767 222 q 601 21 679 64 q 419 -22 522 -22 m 418 125 q 546 182 497 125 q 594 331 594 239 q 547 477 594 422 q 421 532 499 532 q 294 477 343 532 q 244 331 246 422 q 290 182 243 239 q 418 125 338 125 z "},"в":{"ha":833,"x_min":129,"x_max":729,"o":"m 129 0 l 129 744 l 410 744 q 624 691 549 744 q 699 538 699 638 q 653 429 699 469 q 524 385 607 389 q 676 334 624 379 q 729 211 729 289 q 651 54 729 108 q 426 0 572 0 l 129 0 m 293 440 l 417 440 q 501 462 471 440 q 531 521 531 483 q 501 580 531 560 q 417 600 471 600 l 293 600 l 293 440 m 293 144 l 449 144 q 532 167 503 144 q 561 231 561 190 q 532 294 561 271 q 449 317 503 317 l 293 317 l 293 144 z "},"г":{"ha":833,"x_min":188,"x_max":731,"o":"m 188 0 l 188 744 l 731 744 l 731 599 l 358 599 l 358 0 l 188 0 z "},"ѓ":{"ha":833,"x_min":188,"x_max":731,"o":"m 188 0 l 188 744 l 731 744 l 731 599 l 358 599 l 358 0 l 188 0 m 376 825 l 463 1029 l 665 1029 l 540 825 l 376 825 z "},"ґ":{"ha":833,"x_min":188,"x_max":731,"o":"m 188 0 l 188 744 l 558 744 l 558 961 l 731 961 l 731 599 l 358 599 l 358 0 l 188 0 z "},"ғ":{"ha":833,"x_min":51,"x_max":731,"o":"m 188 0 l 188 286 l 51 286 l 51 431 l 188 431 l 188 744 l 731 744 l 731 599 l 358 599 l 358 431 l 501 431 l 501 286 l 358 286 l 358 0 l 188 0 z "},"д":{"ha":833,"x_min":24,"x_max":810,"o":"m 24 -211 l 24 146 l 75 146 q 178 288 158 146 l 240 744 l 696 744 l 696 146 l 810 146 l 810 -211 l 646 -211 l 646 0 l 193 0 l 188 -211 l 24 -211 m 344 281 q 299 146 333 200 l 531 146 l 531 599 l 385 599 l 344 281 z "},"е":{"ha":833,"x_min":68,"x_max":768,"o":"m 422 -17 q 238 31 317 -17 q 113 167 158 79 q 68 372 68 254 q 113 575 68 488 q 236 712 157 663 q 419 761 315 761 q 601 713 522 761 q 724 576 679 664 q 768 368 768 488 l 768 321 l 263 321 q 313 194 269 238 q 426 150 357 150 q 514 174 478 150 q 564 240 550 199 l 753 228 q 631 47 715 111 q 422 -17 547 -17 m 265 450 l 567 450 q 519 558 560 522 q 418 594 479 594 q 315 558 354 594 q 265 450 275 521 z "},"ѐ":{"ha":833,"x_min":68,"x_max":768,"o":"m 422 -17 q 238 31 317 -17 q 113 167 158 79 q 68 372 68 254 q 113 575 68 488 q 236 712 157 663 q 419 761 315 761 q 601 713 522 761 q 724 576 679 664 q 768 368 768 488 l 768 321 l 263 321 q 313 194 269 238 q 426 150 357 150 q 514 174 478 150 q 564 240 550 199 l 753 228 q 631 47 715 111 q 422 -17 547 -17 m 265 450 l 567 450 q 519 558 560 522 q 418 594 479 594 q 315 558 354 594 q 265 450 275 521 m 344 824 l 219 1028 l 422 1028 l 508 824 l 344 824 z "},"ё":{"ha":833,"x_min":68,"x_max":768,"o":"m 422 -17 q 238 31 317 -17 q 113 167 158 79 q 68 372 68 254 q 113 575 68 488 q 236 712 157 663 q 419 761 315 761 q 601 713 522 761 q 724 576 679 664 q 768 368 768 488 l 768 321 l 263 321 q 313 194 269 238 q 426 150 357 150 q 514 174 478 150 q 564 240 550 199 l 753 228 q 631 47 715 111 q 422 -17 547 -17 m 265 450 l 567 450 q 519 558 560 522 q 418 594 479 594 q 315 558 354 594 q 265 450 275 521 m 182 831 l 182 994 l 374 994 l 374 831 l 182 831 m 467 831 l 467 994 l 658 994 l 658 831 l 467 831 z "},"ж":{"ha":833,"x_min":8,"x_max":825,"o":"m 8 0 l 185 372 l 21 744 l 199 744 l 335 411 l 335 744 l 499 744 l 499 413 l 635 744 l 813 744 l 649 372 l 825 0 l 646 0 l 499 335 l 499 0 l 335 0 l 335 336 l 188 0 l 8 0 z "},"з":{"ha":833,"x_min":89,"x_max":739,"o":"m 419 -17 q 183 51 272 -17 q 89 232 94 118 l 263 238 q 308 160 265 189 q 417 131 350 131 q 527 156 486 131 q 568 226 568 182 q 526 303 568 275 q 414 332 485 332 l 353 331 l 353 456 l 414 456 q 508 479 474 456 q 543 543 543 503 q 508 599 543 578 q 415 619 474 619 q 324 601 358 619 q 288 549 290 582 l 111 556 q 204 706 121 650 q 419 761 288 761 q 636 706 556 761 q 717 556 717 650 q 676 459 717 500 q 564 400 635 418 q 692 329 646 379 q 739 210 739 279 q 653 44 739 106 q 419 -17 567 -17 z "},"и":{"ha":833,"x_min":114,"x_max":721,"o":"m 114 0 l 114 744 l 278 744 l 278 260 l 546 744 l 721 744 l 721 0 l 557 0 l 557 472 l 296 0 l 114 0 z "},"й":{"ha":833,"x_min":114,"x_max":721,"o":"m 114 0 l 114 744 l 278 744 l 278 260 l 546 744 l 721 744 l 721 0 l 557 0 l 557 472 l 296 0 l 114 0 m 418 822 q 269 877 326 822 q 207 1026 211 932 l 321 1026 q 353 956 326 975 q 418 936 379 936 q 483 956 457 936 q 515 1026 510 975 l 629 1026 q 567 877 625 932 q 418 822 510 822 z "},"ѝ":{"ha":833,"x_min":114,"x_max":721,"o":"m 114 0 l 114 744 l 278 744 l 278 260 l 546 744 l 721 744 l 721 0 l 557 0 l 557 472 l 296 0 l 114 0 m 343 825 l 218 1029 l 421 1029 l 507 825 l 343 825 z "},"к":{"ha":833,"x_min":97,"x_max":786,"o":"m 97 0 l 97 744 l 263 744 l 263 386 l 557 744 l 769 744 l 458 372 l 786 0 l 571 0 l 263 358 l 263 0 l 97 0 z "},"ќ":{"ha":833,"x_min":97,"x_max":786,"o":"m 97 0 l 97 744 l 263 744 l 263 386 l 557 744 l 769 744 l 458 372 l 786 0 l 571 0 l 263 358 l 263 0 l 97 0 m 325 825 l 411 1029 l 614 1029 l 489 825 l 325 825 z "},"л":{"ha":833,"x_min":36,"x_max":749,"o":"m 36 0 l 36 151 l 79 151 q 160 251 150 151 l 213 744 l 749 744 l 749 0 l 585 0 l 585 599 l 360 599 l 319 207 q 262 54 310 108 q 126 0 214 0 l 36 0 z "},"м":{"ha":833,"x_min":40,"x_max":793,"o":"m 40 0 l 46 744 l 236 744 l 421 199 l 604 744 l 793 744 l 793 0 l 629 0 l 629 390 l 494 0 l 346 0 l 208 394 l 204 0 l 40 0 z "},"н":{"ha":833,"x_min":99,"x_max":735,"o":"m 99 0 l 99 746 l 269 746 l 269 443 l 564 443 l 564 744 l 735 744 l 735 0 l 564 0 l 564 297 l 269 297 l 269 0 l 99 0 z "},"о":{"ha":833,"x_min":64,"x_max":769,"o":"m 417 -17 q 232 31 311 -17 q 108 167 153 79 q 64 372 64 254 q 108 578 64 490 q 232 713 153 665 q 417 761 311 761 q 601 713 522 761 q 725 578 681 665 q 769 372 769 490 q 725 167 769 254 q 601 31 681 79 q 417 -17 522 -17 m 417 150 q 533 208 492 150 q 574 372 574 265 q 533 537 574 479 q 417 594 492 594 q 300 537 340 594 q 260 372 260 479 q 300 208 260 265 q 417 150 340 150 z "},"п":{"ha":833,"x_min":97,"x_max":736,"o":"m 97 0 l 97 744 l 736 744 l 736 0 l 572 0 l 572 599 l 261 599 l 261 0 l 97 0 z "},"р":{"ha":833,"x_min":78,"x_max":781,"o":"m 78 -208 l 78 744 l 260 744 l 264 622 q 351 725 294 689 q 486 761 407 761 q 649 710 583 761 q 748 570 715 658 q 781 372 781 482 q 748 174 781 263 q 649 35 715 86 q 486 -17 583 -17 q 267 103 332 -17 l 267 -208 l 78 -208 m 428 150 q 544 204 503 150 q 585 372 585 258 q 544 540 585 486 q 428 594 503 594 q 312 540 357 594 q 267 372 267 486 q 312 204 267 258 q 428 150 357 150 z "},"с":{"ha":833,"x_min":71,"x_max":768,"o":"m 429 -17 q 242 32 324 -17 q 116 169 161 81 q 71 372 71 257 q 116 575 71 488 q 242 712 161 663 q 429 761 324 761 q 589 726 517 761 q 708 627 661 692 q 767 475 754 563 l 579 465 q 526 561 565 528 q 431 594 488 594 q 310 535 353 594 q 267 372 267 476 q 310 209 267 268 q 431 150 353 150 q 528 185 489 150 q 581 286 568 219 l 768 276 q 709 122 756 188 q 590 19 663 56 q 429 -17 518 -17 z "},"т":{"ha":833,"x_min":83,"x_max":750,"o":"m 335 0 l 335 590 l 83 590 l 83 744 l 750 744 l 750 590 l 500 590 l 500 0 l 335 0 z "},"у":{"ha":833,"x_min":47,"x_max":789,"o":"m 160 -208 l 160 -58 l 261 -58 q 317 -48 297 -58 q 347 -8 336 -37 l 367 47 l 308 47 l 47 744 l 243 744 l 425 228 l 593 744 l 789 744 l 503 -65 q 421 -176 476 -143 q 281 -208 365 -208 l 160 -208 z "},"ў":{"ha":833,"x_min":47,"x_max":789,"o":"m 160 -208 l 160 -58 l 261 -58 q 317 -48 297 -58 q 347 -8 336 -37 l 367 47 l 308 47 l 47 744 l 243 744 l 425 228 l 593 744 l 789 744 l 503 -65 q 421 -176 476 -143 q 281 -208 365 -208 l 160 -208 m 422 822 q 273 877 331 822 q 211 1026 215 932 l 325 1026 q 357 956 331 975 q 422 936 383 936 q 488 956 461 936 q 519 1026 514 975 l 633 1026 q 572 877 629 932 q 422 822 514 822 z "},"ф":{"ha":833,"x_min":18,"x_max":815,"o":"m 335 -208 l 335 35 q 102 144 186 54 q 18 376 18 233 q 102 609 18 519 q 335 719 186 699 l 335 986 l 499 986 l 499 718 q 731 608 647 699 q 815 376 815 518 q 731 145 815 235 q 499 35 647 56 l 499 -208 l 335 -208 m 192 376 q 229 256 192 304 q 335 189 267 207 l 335 564 q 229 497 267 546 q 192 376 192 449 m 640 376 q 603 497 640 449 q 499 564 567 546 l 499 190 q 603 256 567 207 q 640 376 640 304 z "},"х":{"ha":833,"x_min":47,"x_max":786,"o":"m 47 0 l 311 381 l 58 744 l 264 744 l 417 510 l 568 744 l 774 744 l 525 381 l 786 0 l 582 0 l 417 254 l 253 0 l 47 0 z "},"ч":{"ha":833,"x_min":85,"x_max":721,"o":"m 557 0 l 557 332 q 472 251 525 281 q 351 222 419 222 q 156 305 226 222 q 85 528 85 388 l 85 744 l 249 744 l 249 561 q 285 420 249 472 q 390 368 322 368 q 510 420 464 368 q 557 563 557 472 l 557 744 l 721 744 l 721 0 l 557 0 z "},"ц":{"ha":833,"x_min":81,"x_max":817,"o":"m 651 -208 l 651 0 l 81 0 l 81 744 l 244 744 l 244 146 l 556 146 l 556 744 l 719 744 l 719 146 l 817 146 l 817 -208 l 651 -208 z "},"ш":{"ha":833,"x_min":56,"x_max":778,"o":"m 56 0 l 56 744 l 221 744 l 221 144 l 339 144 l 339 744 l 494 744 l 494 144 l 614 144 l 614 744 l 778 744 l 778 0 l 56 0 z "},"щ":{"ha":833,"x_min":47,"x_max":819,"o":"m 47 0 l 47 744 l 207 744 l 207 144 l 322 144 l 322 744 l 474 744 l 474 144 l 518 144 l 518 146 l 589 146 l 589 744 l 747 744 l 747 146 l 819 146 l 819 -211 l 656 -211 l 656 0 l 47 0 z "},"џ":{"ha":833,"x_min":97,"x_max":736,"o":"m 335 -208 l 335 0 l 97 0 l 97 744 l 261 744 l 261 146 l 572 146 l 572 744 l 736 744 l 736 0 l 499 0 l 499 -208 l 335 -208 z "},"ь":{"ha":833,"x_min":99,"x_max":761,"o":"m 99 0 l 99 744 l 264 744 l 264 476 l 456 476 q 681 413 600 476 q 761 235 761 349 q 681 62 761 124 q 456 0 600 0 l 99 0 m 264 146 l 438 146 q 588 239 588 146 q 438 332 588 332 l 264 332 l 264 146 z "},"ы":{"ha":833,"x_min":36,"x_max":797,"o":"m 36 0 l 36 744 l 200 744 l 200 476 l 268 476 q 572 235 572 476 q 494 59 572 118 q 268 0 417 0 l 36 0 m 633 0 l 633 744 l 797 744 l 797 0 l 633 0 m 200 144 l 249 144 q 363 167 328 144 q 399 239 399 190 q 363 310 399 288 q 249 332 326 332 l 200 332 l 200 144 z "},"ъ":{"ha":833,"x_min":14,"x_max":790,"o":"m 129 0 l 129 599 l 14 599 l 14 744 l 293 744 l 293 476 l 486 476 q 710 413 629 476 q 790 235 790 349 q 710 62 790 124 q 486 0 629 0 l 129 0 m 293 146 l 468 146 q 618 239 618 146 q 468 332 618 332 l 293 332 l 293 146 z "},"љ":{"ha":833,"x_min":4,"x_max":833,"o":"m 4 0 l 4 151 l 10 151 q 65 175 44 151 q 90 251 86 199 l 135 744 l 526 744 l 526 476 l 572 476 q 766 414 699 476 q 833 235 833 351 q 765 61 833 122 q 572 0 697 0 l 363 0 l 363 599 l 285 599 l 253 207 q 194 53 244 106 q 60 0 144 0 l 4 0 m 579 332 l 526 332 l 526 144 l 579 144 q 645 169 622 144 q 668 239 668 194 q 645 308 668 283 q 579 332 622 332 z "},"њ":{"ha":833,"x_min":24,"x_max":819,"o":"m 24 0 l 24 744 l 188 744 l 188 476 l 349 476 l 349 744 l 513 744 l 513 476 l 558 476 q 752 414 685 476 q 819 235 819 351 q 751 61 819 122 q 558 0 683 0 l 349 0 l 349 332 l 188 332 l 188 0 l 24 0 m 513 144 l 565 144 q 631 169 608 144 q 654 239 654 194 q 631 308 654 283 q 565 332 608 332 l 513 332 l 513 144 z "},"ѕ":{"ha":833,"x_min":89,"x_max":744,"o":"m 424 -17 q 244 17 317 -17 q 134 107 172 50 q 89 233 96 164 l 275 242 q 322 168 286 194 q 425 142 357 142 q 551 203 551 142 q 541 238 551 224 q 499 263 531 251 q 407 286 468 275 q 228 340 294 310 q 134 415 163 369 q 106 528 106 460 q 139 645 106 592 q 240 730 172 699 q 411 761 308 761 q 591 726 522 761 q 694 633 660 690 q 739 511 729 575 l 551 503 q 507 575 543 547 q 411 603 471 603 q 325 580 351 603 q 299 528 299 557 q 313 485 299 501 q 363 456 326 468 q 467 429 400 443 q 635 381 575 408 q 719 311 694 353 q 744 207 744 269 q 660 43 744 103 q 424 -17 576 -17 z "},"є":{"ha":833,"x_min":72,"x_max":761,"o":"m 421 -17 q 240 32 319 -17 q 117 168 161 81 q 72 372 72 256 q 117 576 72 489 q 240 713 161 664 q 421 761 319 761 q 643 683 551 761 q 761 471 735 604 l 586 471 q 524 577 567 540 q 421 614 481 614 q 310 570 354 614 q 251 447 267 526 l 461 447 l 461 297 l 251 297 q 310 175 265 219 q 421 131 354 131 q 524 167 482 131 q 585 271 567 204 l 760 271 q 642 61 733 139 q 421 -17 551 -17 z "},"э":{"ha":833,"x_min":72,"x_max":761,"o":"m 413 -17 q 191 61 282 -17 q 74 271 100 139 l 249 271 q 309 167 267 204 q 413 131 351 131 q 524 175 479 131 q 582 297 568 219 l 372 297 l 372 447 l 582 447 q 523 570 567 526 q 413 614 479 614 q 310 577 353 614 q 247 471 267 540 l 72 471 q 190 683 99 604 q 413 761 282 761 q 593 713 514 761 q 717 576 672 664 q 761 372 761 489 q 717 168 761 256 q 593 32 672 81 q 413 -17 514 -17 z "},"і":{"ha":833,"x_min":94,"x_max":794,"o":"m 94 0 l 94 150 l 371 150 l 371 594 l 108 594 l 108 744 l 560 744 l 560 150 l 794 150 l 794 0 l 94 0 m 365 836 l 365 1000 l 557 1000 l 557 836 l 365 836 z "},"ї":{"ha":833,"x_min":94,"x_max":794,"o":"m 94 0 l 94 150 l 371 150 l 371 594 l 108 594 l 108 744 l 560 744 l 560 150 l 794 150 l 794 0 l 94 0 m 224 833 l 224 997 l 415 997 l 415 833 l 224 833 m 508 833 l 508 997 l 700 997 l 700 833 l 508 833 z "},"ј":{"ha":833,"x_min":136,"x_max":651,"o":"m 136 -208 l 136 -58 l 344 -58 q 434 -31 406 -58 q 463 61 463 -4 l 463 594 l 143 594 l 143 744 l 651 744 l 651 56 q 578 -141 651 -74 q 364 -208 506 -208 l 136 -208 m 460 836 l 460 1000 l 651 1000 l 651 836 l 460 836 z "},"ћ":{"ha":833,"x_min":36,"x_max":736,"o":"m 108 0 l 108 986 l 297 986 l 297 640 q 382 732 328 703 q 508 761 436 761 q 680 685 624 761 q 736 481 736 608 l 736 0 l 547 0 l 547 442 q 518 565 547 528 q 436 601 489 601 q 337 558 376 601 q 297 429 297 515 l 297 0 l 108 0 m 36 800 l 36 921 l 503 921 l 503 800 l 36 800 z "},"ю":{"ha":833,"x_min":19,"x_max":808,"o":"m 19 0 l 19 744 l 183 744 l 183 446 l 258 446 q 342 680 272 599 q 532 761 413 761 q 737 660 665 761 q 808 372 808 560 q 737 84 808 185 q 532 -17 665 -17 q 342 65 413 -17 q 258 300 272 147 l 183 300 l 183 0 l 19 0 m 532 131 q 612 192 585 131 q 639 372 639 254 q 612 552 639 490 q 532 614 585 614 q 451 552 479 614 q 424 372 424 490 q 451 192 424 254 q 532 131 479 131 z "},"я":{"ha":833,"x_min":101,"x_max":708,"o":"m 101 0 l 276 300 q 168 389 206 335 q 131 508 131 443 q 210 683 131 622 q 436 744 289 744 l 708 744 l 708 0 l 544 0 l 544 269 l 439 269 l 288 0 l 101 0 m 425 414 l 544 414 l 544 600 l 425 600 q 335 576 367 600 q 304 506 304 551 q 335 438 304 463 q 425 414 367 414 z "},"ђ":{"ha":833,"x_min":19,"x_max":729,"o":"m 143 0 l 143 808 l 19 808 l 19 925 l 143 925 l 143 997 l 307 997 l 307 925 l 465 925 l 465 808 l 307 808 l 307 628 q 390 727 336 693 q 513 761 444 761 q 671 685 613 761 q 729 479 729 608 l 729 36 q 676 -144 729 -78 q 526 -211 622 -211 l 438 -211 l 438 -65 l 486 -65 q 544 -37 522 -65 q 565 36 565 -10 l 565 406 q 536 544 565 496 q 450 592 507 592 q 346 542 385 592 q 307 406 307 493 l 307 0 l 143 0 z "},"ѣ":{"ha":833,"x_min":10,"x_max":813,"o":"m 172 0 l 172 739 l 10 739 l 10 864 l 172 864 l 172 997 l 338 997 l 338 864 l 504 864 l 504 739 l 338 739 l 338 504 l 482 504 q 725 436 638 504 q 813 249 813 368 q 724 66 813 132 q 482 0 636 0 l 172 0 m 338 144 l 490 144 q 599 173 560 144 q 639 251 639 201 q 599 331 639 303 q 490 360 560 360 l 338 360 l 338 144 z "},"ѫ":{"ha":833,"x_min":17,"x_max":815,"o":"m 17 0 l 104 275 q 158 358 119 325 q 246 401 196 392 l 61 599 l 61 744 l 774 744 l 774 599 l 589 401 q 675 358 638 392 q 729 275 713 325 l 815 0 l 640 0 l 582 214 q 553 265 572 251 q 500 278 535 278 l 499 278 l 499 0 l 333 0 l 333 278 l 332 278 q 279 265 297 278 q 251 214 261 251 l 193 0 l 17 0 m 236 599 l 417 406 l 597 599 l 236 599 z "},"ѳ":{"ha":833,"x_min":64,"x_max":769,"o":"m 417 -17 q 232 31 311 -17 q 108 167 153 79 q 64 372 64 254 q 108 578 64 490 q 232 713 153 665 q 417 761 311 761 q 601 713 522 761 q 725 578 681 665 q 769 372 769 490 q 725 167 769 254 q 601 31 681 79 q 417 -17 522 -17 m 397 453 q 477 420 447 431 q 528 408 507 410 q 571 411 549 407 l 572 411 q 525 547 565 500 q 417 594 485 594 q 272 478 307 594 q 397 453 333 482 m 417 150 q 558 257 522 150 q 497 268 532 258 q 407 300 461 278 q 272 325 325 335 q 263 324 267 325 q 310 194 271 239 q 417 150 350 150 z "},"ѵ":{"ha":833,"x_min":46,"x_max":810,"o":"m 314 0 l 46 744 l 224 744 l 403 208 l 511 536 q 613 690 544 636 q 783 744 681 744 l 810 744 l 810 590 l 797 590 q 672 492 708 590 l 493 0 l 314 0 z "},"җ":{"ha":833,"x_min":8,"x_max":824,"o":"m 8 0 l 179 372 l 19 744 l 194 744 l 326 411 l 326 744 l 488 744 l 488 413 l 619 744 l 793 744 l 633 372 l 757 104 l 824 104 l 824 -208 l 660 -208 l 660 0 l 631 0 l 488 335 l 488 0 l 326 0 l 326 336 l 182 0 l 8 0 z "},"қ":{"ha":833,"x_min":97,"x_max":789,"o":"m 97 0 l 97 744 l 263 744 l 263 386 l 556 744 l 769 744 l 457 372 l 694 104 l 789 104 l 789 -208 l 625 -208 l 625 0 l 569 0 l 263 358 l 263 0 l 97 0 z "},"ң":{"ha":833,"x_min":90,"x_max":813,"o":"m 90 0 l 90 746 l 261 746 l 261 443 l 556 443 l 556 744 l 726 744 l 726 104 l 813 104 l 813 -208 l 649 -208 l 649 0 l 556 0 l 556 297 l 261 297 l 261 0 l 90 0 z "},"ү":{"ha":833,"x_min":57,"x_max":776,"o":"m 335 -208 l 335 7 l 57 744 l 238 744 l 417 217 l 596 744 l 776 744 l 499 8 l 499 -208 l 335 -208 z "},"ұ":{"ha":833,"x_min":57,"x_max":776,"o":"m 150 -68 l 150 78 l 308 78 l 57 744 l 238 744 l 417 217 l 596 744 l 776 744 l 525 78 l 682 78 l 682 -68 l 499 -68 l 499 -208 l 335 -208 l 335 -68 l 150 -68 z "},"ҳ":{"ha":833,"x_min":47,"x_max":808,"o":"m 47 0 l 311 381 l 58 744 l 264 744 l 417 510 l 568 744 l 774 744 l 525 381 l 715 104 l 808 104 l 808 -208 l 643 -208 l 643 0 l 582 0 l 417 254 l 253 0 l 47 0 z "},"ҷ":{"ha":833,"x_min":82,"x_max":814,"o":"m 543 0 l 543 332 q 461 251 513 281 q 343 222 410 222 q 151 305 221 222 q 82 528 82 388 l 82 744 l 243 744 l 243 561 q 279 420 243 472 q 381 368 315 368 q 498 420 453 368 q 543 563 543 472 l 543 744 l 704 744 l 704 104 l 814 104 l 814 -211 l 650 -211 l 650 0 l 543 0 z "},"һ":{"ha":833,"x_min":108,"x_max":736,"o":"m 108 0 l 108 986 l 297 986 l 297 640 q 382 732 328 703 q 508 761 436 761 q 680 685 624 761 q 736 481 736 608 l 736 0 l 547 0 l 547 442 q 518 565 547 528 q 436 601 489 601 q 337 558 376 601 q 297 429 297 515 l 297 0 l 108 0 z "},"ӏ":{"ha":833,"x_min":103,"x_max":731,"o":"m 103 0 l 103 178 l 318 178 l 318 808 l 103 808 l 103 986 l 731 986 l 731 808 l 515 808 l 515 178 l 731 178 l 731 0 l 103 0 z "},"ә":{"ha":833,"x_min":65,"x_max":765,"o":"m 411 761 q 596 713 517 761 q 720 578 675 665 q 765 372 765 490 q 721 169 765 257 q 597 33 676 82 q 414 -17 518 -17 q 233 32 311 -17 q 110 169 154 81 q 65 376 65 257 l 65 424 l 571 424 q 520 551 564 507 q 407 594 476 594 q 319 570 356 594 q 269 504 283 546 l 81 517 q 202 698 118 635 q 411 761 286 761 m 568 294 l 267 294 q 314 186 274 222 q 415 150 354 150 q 519 187 479 150 q 568 294 558 224 z "},"ӣ":{"ha":833,"x_min":114,"x_max":721,"o":"m 114 0 l 114 744 l 278 744 l 278 260 l 546 744 l 721 744 l 721 0 l 557 0 l 557 472 l 296 0 l 114 0 m 218 846 l 218 986 l 618 986 l 618 846 l 218 846 z "},"ө":{"ha":833,"x_min":64,"x_max":769,"o":"m 417 -17 q 232 31 311 -17 q 108 167 153 79 q 64 372 64 254 q 108 578 64 490 q 232 713 153 665 q 417 761 311 761 q 601 713 522 761 q 725 578 681 665 q 769 372 769 490 q 725 167 769 254 q 601 31 681 79 q 417 -17 522 -17 m 417 594 q 265 446 290 594 l 568 446 q 417 594 542 594 m 417 150 q 568 300 543 150 l 265 300 q 417 150 290 150 z "},"ӯ":{"ha":833,"x_min":47,"x_max":789,"o":"m 160 -208 l 160 -58 l 261 -58 q 317 -48 297 -58 q 347 -8 336 -37 l 367 47 l 308 47 l 47 744 l 243 744 l 425 228 l 593 744 l 789 744 l 503 -65 q 421 -176 476 -143 q 281 -208 365 -208 l 160 -208 m 221 846 l 221 986 l 621 986 l 621 846 l 221 846 z "},"Λ":{"ha":833,"x_min":26,"x_max":807,"o":"m 26 0 l 325 986 l 508 986 l 807 0 l 631 0 l 417 743 l 203 0 l 26 0 z "},"Ω":{"ha":833,"x_min":11,"x_max":822,"o":"m 13 0 l 13 153 l 214 153 q 66 319 121 213 q 11 546 11 425 q 64 784 11 679 q 208 949 117 889 q 417 1008 300 1008 q 625 949 533 1008 q 769 784 717 889 q 822 546 822 679 q 767 319 822 425 q 618 153 713 213 l 819 153 l 819 0 l 465 0 l 465 157 q 556 213 515 164 q 619 342 596 263 q 643 515 643 421 q 615 692 643 615 q 535 810 586 768 q 417 853 485 853 q 299 810 350 853 q 219 692 247 768 q 190 515 190 615 q 214 342 190 421 q 277 215 238 264 q 368 157 317 165 l 368 0 l 13 0 z "},"λ":{"ha":833,"x_min":58,"x_max":782,"o":"m 58 0 l 324 692 l 296 779 q 265 837 283 817 q 210 857 247 857 l 133 857 l 133 1000 l 238 1000 q 372 957 324 1000 q 454 811 421 914 l 644 222 q 676 163 657 182 q 729 143 694 143 l 782 143 l 782 0 l 717 0 q 571 47 626 0 q 485 190 515 94 l 401 451 l 233 0 l 58 0 z "},"π":{"ha":833,"x_min":21,"x_max":810,"o":"m 157 0 l 157 607 l 21 607 l 21 754 l 810 754 l 810 607 l 679 607 l 679 239 q 701 172 679 197 q 764 147 724 147 l 808 147 l 808 0 l 765 0 q 576 64 636 0 q 515 247 515 128 l 515 607 l 321 607 l 321 0 l 157 0 z "},"ℇ":{"ha":833,"x_min":60,"x_max":792,"o":"m 421 -22 q 233 16 314 -22 q 106 122 151 54 q 60 276 60 189 q 115 438 60 372 q 271 528 169 503 q 140 610 186 553 q 93 749 93 667 q 134 883 93 825 q 249 975 175 942 q 421 1008 322 1008 q 609 969 518 1008 q 764 861 700 931 l 656 728 q 551 820 613 785 q 432 856 489 856 q 314 822 357 856 q 271 732 271 788 q 294 652 271 683 q 355 606 318 621 q 432 592 392 590 l 494 593 l 494 444 l 432 446 q 290 406 343 449 q 238 290 238 364 q 290 175 238 219 q 432 131 343 131 q 566 167 496 131 q 690 272 636 204 l 792 136 q 697 52 756 88 q 567 -3 639 17 q 421 -22 496 -22 z "},"⓿":{"ha":833,"x_min":19,"x_max":814,"o":"m 417 -22 q 206 40 294 -22 q 68 219 117 103 q 19 493 19 335 q 68 767 19 651 q 206 945 117 882 q 417 1008 294 1008 q 628 945 539 1008 q 765 767 717 882 q 814 493 814 651 q 765 219 814 335 q 628 40 717 103 q 417 -22 539 -22 m 418 211 q 594 285 531 211 q 658 492 658 360 q 594 697 658 624 q 418 771 531 771 q 242 697 306 771 q 178 492 178 624 q 242 285 178 360 q 418 211 306 211 m 324 408 q 314 492 314 443 q 340 622 314 581 q 418 664 365 664 q 468 650 449 664 l 324 408 m 418 318 q 368 333 390 318 l 514 575 q 522 492 522 540 q 418 318 522 318 z "},"❶":{"ha":833,"x_min":19,"x_max":814,"o":"m 417 -22 q 206 40 294 -22 q 68 219 117 103 q 19 493 19 335 q 68 767 19 651 q 206 945 117 882 q 417 1008 294 1008 q 628 945 539 1008 q 765 767 717 882 q 814 493 814 651 q 765 219 814 335 q 628 40 717 103 q 417 -22 539 -22 m 379 222 l 517 222 l 517 760 l 404 760 q 372 667 404 701 q 275 633 339 633 l 236 633 l 236 531 l 379 532 l 379 222 z "},"❷":{"ha":833,"x_min":19,"x_max":814,"o":"m 417 -22 q 206 40 294 -22 q 68 219 117 103 q 19 493 19 335 q 68 767 19 651 q 206 945 117 882 q 417 1008 294 1008 q 628 945 539 1008 q 765 767 717 882 q 814 493 814 651 q 765 219 814 335 q 628 40 717 103 q 417 -22 539 -22 m 222 222 l 604 222 l 604 338 l 365 338 q 379 369 365 353 q 431 404 393 386 l 492 435 q 585 505 553 467 q 618 607 618 543 q 571 725 618 679 q 425 771 524 771 q 281 725 335 771 q 219 593 228 679 l 343 586 q 369 647 349 629 q 426 665 389 665 q 476 648 458 665 q 493 604 493 631 q 480 558 493 574 q 433 526 467 543 l 369 493 q 278 428 310 463 q 234 346 246 394 q 222 222 222 297 z "},"❸":{"ha":833,"x_min":19,"x_max":814,"o":"m 417 -22 q 206 40 294 -22 q 68 219 117 103 q 19 493 19 335 q 68 767 19 651 q 206 945 117 882 q 417 1008 294 1008 q 628 945 539 1008 q 765 767 717 882 q 814 493 814 651 q 765 219 814 335 q 628 40 717 103 q 417 -22 539 -22 m 415 211 q 572 257 518 211 q 626 375 626 303 q 597 459 626 426 q 501 504 568 492 q 604 626 604 529 q 558 731 604 690 q 408 771 511 771 q 272 730 319 771 q 215 613 224 689 l 347 606 q 410 665 353 665 q 469 601 469 665 q 453 560 469 575 q 410 544 436 544 l 371 544 l 371 450 l 410 450 q 468 432 447 450 q 489 383 489 414 q 469 334 489 351 q 415 317 450 317 q 342 375 347 317 l 210 369 q 260 251 215 290 q 415 211 304 211 z "},"❹":{"ha":833,"x_min":19,"x_max":814,"o":"m 417 -22 q 206 40 294 -22 q 68 219 117 103 q 19 493 19 335 q 68 767 19 651 q 206 945 117 882 q 417 1008 294 1008 q 628 945 539 1008 q 765 767 717 882 q 814 493 814 651 q 765 219 814 335 q 628 40 717 103 q 417 -22 539 -22 m 442 222 l 579 222 l 579 328 l 647 328 l 647 435 l 579 435 l 579 760 l 429 760 l 189 426 l 189 328 l 442 328 l 442 222 m 318 435 l 442 596 l 442 435 l 318 435 z "},"❺":{"ha":833,"x_min":19,"x_max":814,"o":"m 417 -22 q 206 40 294 -22 q 68 219 117 103 q 19 493 19 335 q 68 767 19 651 q 206 945 117 882 q 417 1008 294 1008 q 628 945 539 1008 q 765 767 717 882 q 814 493 814 651 q 765 219 814 335 q 628 40 717 103 q 417 -22 539 -22 m 413 211 q 567 262 511 211 q 624 401 624 313 q 581 531 624 482 q 453 579 538 579 q 356 547 389 579 l 369 653 l 597 653 l 597 760 l 254 760 l 221 443 l 344 443 q 421 488 371 488 q 473 465 456 488 q 490 403 490 442 q 470 338 490 360 q 415 317 450 317 q 344 369 356 317 l 213 363 q 267 251 218 292 q 413 211 315 211 z "},"❻":{"ha":833,"x_min":19,"x_max":814,"o":"m 417 -22 q 206 40 294 -22 q 68 219 117 103 q 19 493 19 335 q 68 767 19 651 q 206 945 117 882 q 417 1008 294 1008 q 628 945 539 1008 q 765 767 717 882 q 814 493 814 651 q 765 219 814 335 q 628 40 717 103 q 417 -22 539 -22 m 418 211 q 579 262 519 211 q 639 401 639 313 q 586 540 639 493 q 443 588 533 588 q 371 574 400 588 q 328 540 342 560 q 438 668 339 668 q 517 619 507 668 l 639 635 q 442 771 613 771 q 254 688 314 771 q 194 469 194 604 q 253 275 194 339 q 418 211 313 211 m 421 317 q 356 341 381 317 q 332 406 332 365 q 358 469 333 446 q 422 492 383 492 q 489 469 465 492 q 513 404 513 447 q 488 340 513 364 q 421 317 464 317 z "},"❼":{"ha":833,"x_min":19,"x_max":814,"o":"m 417 -22 q 206 40 294 -22 q 68 219 117 103 q 19 493 19 335 q 68 767 19 651 q 206 945 117 882 q 417 1008 294 1008 q 628 945 539 1008 q 765 767 717 882 q 814 493 814 651 q 765 219 814 335 q 628 40 717 103 q 417 -22 539 -22 m 317 222 l 453 222 q 491 460 453 358 q 610 658 529 561 l 610 761 l 226 761 l 226 646 l 469 646 q 358 446 399 556 q 317 222 317 336 z "},"❽":{"ha":833,"x_min":19,"x_max":814,"o":"m 417 -22 q 206 40 294 -22 q 68 219 117 103 q 19 493 19 335 q 68 767 19 651 q 206 945 117 882 q 417 1008 294 1008 q 628 945 539 1008 q 765 767 717 882 q 814 493 814 651 q 765 219 814 335 q 628 40 717 103 q 417 -22 539 -22 m 418 211 q 588 253 536 211 q 640 365 640 294 q 515 513 640 472 q 590 554 564 526 q 617 633 617 582 q 570 735 617 699 q 418 771 524 771 q 266 735 313 771 q 219 633 219 699 q 246 554 219 582 q 321 513 272 526 q 196 365 196 475 q 248 253 196 294 q 418 211 300 211 m 418 551 q 370 565 389 551 q 351 610 351 579 q 418 665 351 665 q 485 610 485 665 q 466 565 485 579 q 418 551 447 551 m 418 317 q 332 386 332 317 q 355 440 332 418 q 418 463 378 463 q 481 440 458 463 q 504 386 504 418 q 418 317 504 317 z "},"❾":{"ha":833,"x_min":19,"x_max":814,"o":"m 417 -22 q 206 40 294 -22 q 68 219 117 103 q 19 493 19 335 q 68 767 19 651 q 206 945 117 882 q 417 1008 294 1008 q 628 945 539 1008 q 765 767 717 882 q 814 493 814 651 q 765 219 814 335 q 628 40 717 103 q 417 -22 539 -22 m 394 211 q 582 294 522 211 q 642 513 642 378 q 583 708 642 644 q 418 771 524 771 q 257 720 317 771 q 197 581 197 669 q 250 442 197 489 q 393 394 303 394 q 466 409 438 394 q 508 442 494 424 q 399 314 497 314 q 319 363 329 314 l 197 347 q 394 211 224 211 m 414 490 q 347 513 371 490 q 324 578 324 535 q 348 642 324 618 q 415 665 372 665 q 480 641 456 665 q 504 576 504 617 q 478 513 503 536 q 414 490 453 490 z "},"⓪":{"ha":833,"x_min":15,"x_max":818,"o":"m 418 -22 q 201 40 290 -22 q 63 217 111 101 q 15 493 15 332 q 63 769 15 654 q 201 947 111 885 q 418 1008 290 1008 q 634 947 544 1008 q 771 769 724 885 q 818 493 818 654 q 771 217 818 332 q 634 40 724 101 q 418 -22 544 -22 m 418 78 q 636 184 557 78 q 715 493 715 290 q 636 802 715 696 q 418 908 557 908 q 197 802 276 908 q 118 493 118 696 q 197 184 118 290 q 418 78 276 78 m 417 211 q 240 285 304 211 q 176 492 176 360 q 240 697 176 624 q 417 771 304 771 q 593 697 529 771 q 657 492 657 624 q 593 285 657 360 q 417 211 529 211 m 313 492 q 322 407 313 443 l 467 650 q 417 664 446 664 q 338 622 364 664 q 313 492 313 581 m 417 318 q 521 492 521 318 q 513 578 521 542 l 367 333 q 417 318 389 318 z "},"①":{"ha":833,"x_min":15,"x_max":818,"o":"m 418 -22 q 201 40 290 -22 q 63 217 111 101 q 15 493 15 332 q 63 769 15 654 q 201 947 111 885 q 418 1008 290 1008 q 634 947 544 1008 q 771 769 724 885 q 818 493 818 654 q 771 217 818 332 q 634 40 724 101 q 418 -22 544 -22 m 418 78 q 636 184 557 78 q 715 493 715 290 q 636 802 715 696 q 418 908 557 908 q 197 802 276 908 q 118 493 118 696 q 197 184 118 290 q 418 78 276 78 m 381 222 l 381 532 l 238 531 l 238 633 l 276 633 q 373 667 340 633 q 406 760 406 701 l 518 760 l 518 222 l 381 222 z "},"②":{"ha":833,"x_min":15,"x_max":818,"o":"m 418 -22 q 201 40 290 -22 q 63 217 111 101 q 15 493 15 332 q 63 769 15 654 q 201 947 111 885 q 418 1008 290 1008 q 634 947 544 1008 q 771 769 724 885 q 818 493 818 654 q 771 217 818 332 q 634 40 724 101 q 418 -22 544 -22 m 418 78 q 636 184 557 78 q 715 493 715 290 q 636 802 715 696 q 418 908 557 908 q 197 802 276 908 q 118 493 118 696 q 197 184 118 290 q 418 78 276 78 m 222 222 q 234 346 222 297 q 278 428 246 394 q 369 493 310 463 l 433 526 q 480 558 467 543 q 493 604 493 574 q 476 648 493 631 q 426 665 458 665 q 369 647 389 665 q 343 586 349 629 l 219 593 q 281 725 228 679 q 425 771 335 771 q 571 725 524 771 q 618 607 618 679 q 585 505 618 543 q 492 435 553 467 l 431 404 q 379 369 393 386 q 365 338 365 353 l 604 338 l 604 222 l 222 222 z "},"③":{"ha":833,"x_min":15,"x_max":818,"o":"m 418 -22 q 201 40 290 -22 q 63 217 111 101 q 15 493 15 332 q 63 769 15 654 q 201 947 111 885 q 418 1008 290 1008 q 634 947 544 1008 q 771 769 724 885 q 818 493 818 654 q 771 217 818 332 q 634 40 724 101 q 418 -22 544 -22 m 418 78 q 636 184 557 78 q 715 493 715 290 q 636 802 715 696 q 418 908 557 908 q 197 802 276 908 q 118 493 118 696 q 197 184 118 290 q 418 78 276 78 m 414 211 q 258 251 303 211 q 208 369 214 290 l 340 375 q 414 317 346 317 q 468 334 449 317 q 488 383 488 351 q 467 432 488 414 q 408 450 446 450 l 369 450 l 369 544 l 408 544 q 451 560 435 544 q 468 601 468 575 q 408 665 468 665 q 346 606 351 665 l 214 613 q 270 730 222 689 q 407 771 318 771 q 556 731 510 771 q 603 626 603 690 q 500 504 603 529 q 596 459 567 492 q 625 375 625 426 q 571 257 625 303 q 414 211 517 211 z "},"④":{"ha":833,"x_min":15,"x_max":818,"o":"m 418 -22 q 201 40 290 -22 q 63 217 111 101 q 15 493 15 332 q 63 769 15 654 q 201 947 111 885 q 418 1008 290 1008 q 634 947 544 1008 q 771 769 724 885 q 818 493 818 654 q 771 217 818 332 q 634 40 724 101 q 418 -22 544 -22 m 418 78 q 636 184 557 78 q 715 493 715 290 q 636 802 715 696 q 418 908 557 908 q 197 802 276 908 q 118 493 118 696 q 197 184 118 290 q 418 78 276 78 m 440 222 l 440 328 l 188 328 l 188 426 l 428 760 l 578 760 l 578 435 l 646 435 l 646 328 l 578 328 l 578 222 l 440 222 m 317 435 l 440 435 l 440 596 l 317 435 z "},"⑤":{"ha":833,"x_min":15,"x_max":818,"o":"m 418 -22 q 201 40 290 -22 q 63 217 111 101 q 15 493 15 332 q 63 769 15 654 q 201 947 111 885 q 418 1008 290 1008 q 634 947 544 1008 q 771 769 724 885 q 818 493 818 654 q 771 217 818 332 q 634 40 724 101 q 418 -22 544 -22 m 418 78 q 636 184 557 78 q 715 493 715 290 q 636 802 715 696 q 418 908 557 908 q 197 802 276 908 q 118 493 118 696 q 197 184 118 290 q 418 78 276 78 m 414 211 q 268 251 317 211 q 213 363 219 292 l 344 369 q 415 317 356 317 q 471 338 451 317 q 490 403 490 360 q 473 465 490 442 q 421 488 456 488 q 346 443 371 488 l 221 443 l 254 760 l 597 760 l 597 653 l 371 653 l 357 547 q 453 579 390 579 q 581 531 538 579 q 624 401 624 482 q 568 262 624 313 q 414 211 513 211 z "},"⑥":{"ha":833,"x_min":15,"x_max":818,"o":"m 418 -22 q 201 40 290 -22 q 63 217 111 101 q 15 493 15 332 q 63 769 15 654 q 201 947 111 885 q 418 1008 290 1008 q 634 947 544 1008 q 771 769 724 885 q 818 493 818 654 q 771 217 818 332 q 634 40 724 101 q 418 -22 544 -22 m 418 78 q 636 184 557 78 q 715 493 715 290 q 636 802 715 696 q 418 908 557 908 q 197 802 276 908 q 118 493 118 696 q 197 184 118 290 q 418 78 276 78 m 417 211 q 252 275 311 211 q 193 469 193 339 q 253 688 193 604 q 440 771 313 771 q 638 635 611 771 l 515 619 q 436 668 506 668 q 326 540 338 668 q 369 574 340 560 q 442 588 399 588 q 585 540 532 588 q 638 401 638 493 q 578 262 638 313 q 417 211 518 211 m 419 317 q 487 340 463 317 q 511 404 511 364 q 488 469 511 447 q 421 492 464 492 q 357 469 382 492 q 331 406 332 446 q 355 341 331 365 q 419 317 379 317 z "},"⑦":{"ha":833,"x_min":15,"x_max":818,"o":"m 418 -22 q 201 40 290 -22 q 63 217 111 101 q 15 493 15 332 q 63 769 15 654 q 201 947 111 885 q 418 1008 290 1008 q 634 947 544 1008 q 771 769 724 885 q 818 493 818 654 q 771 217 818 332 q 634 40 724 101 q 418 -22 544 -22 m 418 78 q 636 184 557 78 q 715 493 715 290 q 636 802 715 696 q 418 908 557 908 q 197 802 276 908 q 118 493 118 696 q 197 184 118 290 q 418 78 276 78 m 317 222 q 358 446 317 336 q 469 646 399 556 l 226 646 l 226 761 l 610 761 l 610 658 q 491 460 529 561 q 453 222 453 358 l 317 222 z "},"⑧":{"ha":833,"x_min":15,"x_max":818,"o":"m 418 -22 q 201 40 290 -22 q 63 217 111 101 q 15 493 15 332 q 63 769 15 654 q 201 947 111 885 q 418 1008 290 1008 q 634 947 544 1008 q 771 769 724 885 q 818 493 818 654 q 771 217 818 332 q 634 40 724 101 q 418 -22 544 -22 m 418 78 q 636 184 557 78 q 715 493 715 290 q 636 802 715 696 q 418 908 557 908 q 197 802 276 908 q 118 493 118 696 q 197 184 118 290 q 418 78 276 78 m 418 211 q 248 253 300 211 q 196 365 196 294 q 321 513 196 475 q 246 554 272 526 q 219 633 219 582 q 266 735 219 699 q 418 771 313 771 q 570 735 524 771 q 617 633 617 699 q 590 554 617 582 q 515 513 564 526 q 640 365 640 472 q 588 253 640 294 q 418 211 536 211 m 418 551 q 466 565 447 551 q 485 610 485 579 q 418 665 485 665 q 351 610 351 665 q 370 565 351 579 q 418 551 389 551 m 418 317 q 504 386 504 317 q 481 440 504 418 q 418 463 458 463 q 355 440 378 463 q 332 386 332 418 q 418 317 332 317 z "},"⑨":{"ha":833,"x_min":15,"x_max":818,"o":"m 418 -22 q 201 40 290 -22 q 63 217 111 101 q 15 493 15 332 q 63 769 15 654 q 201 947 111 885 q 418 1008 290 1008 q 634 947 544 1008 q 771 769 724 885 q 818 493 818 654 q 771 217 818 332 q 634 40 724 101 q 418 -22 544 -22 m 418 78 q 636 184 557 78 q 715 493 715 290 q 636 802 715 696 q 418 908 557 908 q 197 802 276 908 q 118 493 118 696 q 197 184 118 290 q 418 78 276 78 m 418 771 q 583 708 524 771 q 642 513 642 644 q 582 294 642 378 q 394 211 522 211 q 197 347 224 211 l 319 363 q 399 314 329 314 q 508 442 497 314 q 466 409 494 424 q 393 394 438 394 q 250 442 303 394 q 197 581 197 489 q 257 720 197 669 q 418 771 317 771 m 415 665 q 348 642 372 665 q 324 578 324 618 q 347 513 324 535 q 414 490 371 490 q 478 513 453 490 q 504 576 503 536 q 480 641 504 617 q 415 665 456 665 z "},"⁄":{"ha":833,"x_min":47,"x_max":786,"o":"m 469 631 l 650 986 l 786 986 l 604 631 l 469 631 m 47 0 l 229 354 l 364 354 l 183 0 l 47 0 z "},"½":{"ha":833,"x_min":38,"x_max":789,"o":"m 192 449 l 192 758 l 49 757 l 49 860 l 88 860 q 184 894 151 860 q 217 986 217 928 l 329 986 l 329 449 l 192 449 m 460 631 l 640 986 l 776 986 l 594 631 l 460 631 m 38 0 l 219 354 l 354 354 l 174 0 l 38 0 m 393 0 q 405 124 393 75 q 449 206 417 172 q 540 271 481 240 l 604 304 q 651 336 638 321 q 664 382 664 351 q 647 426 664 408 q 597 443 629 443 q 540 425 560 443 q 514 364 519 407 l 390 371 q 452 503 399 457 q 596 549 506 549 q 742 503 694 549 q 789 385 789 457 q 756 283 789 321 q 663 213 724 244 l 601 182 q 550 147 564 164 q 536 115 536 131 l 775 115 l 775 0 l 393 0 z "},"⅓":{"ha":833,"x_min":42,"x_max":789,"o":"m 186 449 l 186 758 l 43 757 l 43 860 l 82 860 q 178 894 146 860 q 211 986 211 928 l 324 986 l 324 449 l 186 449 m 464 631 l 644 986 l 781 986 l 599 631 l 464 631 m 42 0 l 224 354 l 358 354 l 178 0 l 42 0 m 578 -11 q 422 28 467 -11 q 372 147 378 68 l 504 153 q 578 94 510 94 q 632 112 613 94 q 651 161 651 129 q 631 210 651 192 q 572 228 610 228 l 533 228 l 533 322 l 572 322 q 615 338 599 322 q 632 379 632 353 q 572 443 632 443 q 510 383 515 443 l 378 390 q 434 508 386 467 q 571 549 482 549 q 720 508 674 549 q 767 404 767 468 q 664 282 767 307 q 760 237 731 269 q 789 153 789 204 q 735 35 789 81 q 578 -11 681 -11 z "},"⅔":{"ha":833,"x_min":11,"x_max":824,"o":"m 14 449 q 26 572 14 524 q 69 655 38 621 q 161 719 101 689 l 225 753 q 272 785 258 769 q 285 831 285 800 q 267 874 285 857 q 218 892 250 892 q 160 874 181 892 q 135 813 140 856 l 11 819 q 73 951 19 906 q 217 997 126 997 q 363 951 315 997 q 410 833 410 906 q 377 731 410 769 q 283 661 344 693 l 222 631 q 171 596 185 613 q 157 564 157 579 l 396 564 l 396 449 l 14 449 m 463 631 l 643 986 l 779 986 l 597 631 l 463 631 m 40 0 l 222 354 l 357 354 l 176 0 l 40 0 m 613 -11 q 457 28 501 -11 q 407 147 413 68 l 539 153 q 613 94 544 94 q 667 112 647 94 q 686 161 686 129 q 665 210 686 192 q 607 228 644 228 l 568 228 l 568 322 l 607 322 q 650 338 633 322 q 667 379 667 353 q 607 443 667 443 q 544 383 550 443 l 413 390 q 469 508 421 467 q 606 549 517 549 q 755 508 708 549 q 801 404 801 468 q 699 282 801 307 q 794 237 765 269 q 824 153 824 204 q 769 35 824 81 q 613 -11 715 -11 z "},"¼":{"ha":833,"x_min":38,"x_max":797,"o":"m 186 449 l 186 758 l 43 757 l 43 860 l 82 860 q 178 894 146 860 q 211 986 211 928 l 324 986 l 324 449 l 186 449 m 460 631 l 640 986 l 776 986 l 594 631 l 460 631 m 38 0 l 219 354 l 354 354 l 174 0 l 38 0 m 592 0 l 592 106 l 339 106 l 339 204 l 579 538 l 729 538 l 729 213 l 797 213 l 797 106 l 729 106 l 729 0 l 592 0 m 468 213 l 592 213 l 592 374 l 468 213 z "},"¾":{"ha":833,"x_min":17,"x_max":817,"o":"m 222 438 q 67 477 111 438 q 17 596 22 517 l 149 601 q 222 543 154 543 q 276 560 257 543 q 296 610 296 578 q 275 658 296 640 q 217 676 254 676 l 178 676 l 178 771 l 217 771 q 260 786 243 771 q 276 828 276 801 q 217 892 276 892 q 154 832 160 892 l 22 839 q 78 956 31 915 q 215 997 126 997 q 365 957 318 997 q 411 853 411 917 q 308 731 411 756 q 404 685 375 718 q 433 601 433 653 q 379 483 433 529 q 222 438 325 438 m 482 631 l 663 986 l 799 986 l 617 631 l 482 631 m 60 0 l 242 354 l 376 354 l 196 0 l 60 0 m 611 0 l 611 106 l 358 106 l 358 204 l 599 538 l 749 538 l 749 213 l 817 213 l 817 106 l 749 106 l 749 0 l 611 0 m 488 213 l 611 213 l 611 374 l 488 213 z "},"⅕":{"ha":833,"x_min":29,"x_max":792,"o":"m 185 449 l 185 758 l 42 757 l 42 860 l 81 860 q 177 894 144 860 q 210 986 210 928 l 322 986 l 322 449 l 185 449 m 451 631 l 632 986 l 768 986 l 586 631 l 451 631 m 29 0 l 211 354 l 346 354 l 165 0 l 29 0 m 582 -11 q 436 29 485 -11 q 381 140 388 69 l 513 147 q 583 94 524 94 q 639 116 619 94 q 658 181 658 138 q 641 242 658 219 q 589 265 624 265 q 514 221 539 265 l 389 221 l 422 538 l 765 538 l 765 431 l 539 431 l 525 325 q 621 357 558 357 q 749 308 706 357 q 792 179 792 260 q 736 40 792 90 q 582 -11 681 -11 z "},"⅛":{"ha":833,"x_min":25,"x_max":808,"o":"m 175 449 l 175 758 l 32 757 l 32 860 l 71 860 q 167 894 135 860 q 200 986 200 928 l 313 986 l 313 449 l 175 449 m 447 631 l 628 986 l 764 986 l 582 631 l 447 631 m 25 0 l 207 354 l 342 354 l 161 0 l 25 0 m 586 -11 q 416 31 468 -11 q 364 143 364 72 q 489 290 364 253 q 414 332 440 304 q 388 411 388 360 q 434 513 388 476 q 586 549 481 549 q 738 513 692 549 q 785 411 785 476 q 758 332 785 360 q 683 290 732 304 q 808 143 808 250 q 756 31 808 72 q 586 -11 704 -11 m 586 329 q 634 343 615 329 q 653 388 653 357 q 586 443 653 443 q 519 388 519 443 q 538 343 519 357 q 586 329 557 329 m 586 94 q 672 164 672 94 q 649 218 672 196 q 586 240 626 240 q 523 218 546 240 q 500 164 500 196 q 586 94 500 94 z "},"⅜":{"ha":833,"x_min":11,"x_max":822,"o":"m 213 438 q 67 478 115 438 q 11 589 18 518 l 143 596 q 214 543 154 543 q 269 565 250 543 q 289 629 289 586 q 272 691 289 668 q 219 714 254 714 q 144 669 169 714 l 19 669 l 53 986 l 396 986 l 396 879 l 169 879 l 156 774 q 251 806 189 806 q 379 757 336 806 q 422 628 422 708 q 367 488 422 539 q 213 438 311 438 m 461 631 l 642 986 l 778 986 l 596 631 l 461 631 m 39 0 l 221 354 l 356 354 l 175 0 l 39 0 m 600 -11 q 430 31 482 -11 q 378 143 378 72 q 503 290 378 253 q 428 332 454 304 q 401 411 401 360 q 448 513 401 476 q 600 549 494 549 q 752 513 706 549 q 799 411 799 476 q 772 332 799 360 q 697 290 746 304 q 822 143 822 250 q 770 31 822 72 q 600 -11 718 -11 m 600 329 q 648 343 629 329 q 667 388 667 357 q 600 443 667 443 q 533 388 533 443 q 552 343 533 357 q 600 329 571 329 m 600 94 q 686 164 686 94 q 663 218 686 196 q 600 240 640 240 q 537 218 560 240 q 514 164 514 196 q 600 94 514 94 z "},"⅝":{"ha":833,"x_min":11,"x_max":822,"o":"m 217 438 q 61 477 106 438 q 11 596 17 517 l 143 601 q 217 543 149 543 q 271 560 251 543 q 290 610 290 578 q 269 658 290 640 q 211 676 249 676 l 172 676 l 172 771 l 211 771 q 254 786 238 771 q 271 828 271 801 q 211 892 271 892 q 149 832 154 892 l 17 839 q 73 956 25 915 q 210 997 121 997 q 359 957 313 997 q 406 853 406 917 q 303 731 406 756 q 399 685 369 718 q 428 601 428 653 q 374 483 428 529 q 217 438 319 438 m 458 631 l 639 986 l 775 986 l 593 631 l 458 631 m 36 0 l 218 354 l 353 354 l 172 0 l 36 0 m 600 -11 q 430 31 482 -11 q 378 143 378 72 q 503 290 378 253 q 428 332 454 304 q 401 411 401 360 q 448 513 401 476 q 600 549 494 549 q 752 513 706 549 q 799 411 799 476 q 772 332 799 360 q 697 290 746 304 q 822 143 822 250 q 770 31 822 72 q 600 -11 718 -11 m 600 329 q 648 343 629 329 q 667 388 667 357 q 600 443 667 443 q 533 388 533 443 q 552 343 533 357 q 600 329 571 329 m 600 94 q 686 164 686 94 q 663 218 686 196 q 600 240 640 240 q 537 218 560 240 q 514 164 514 196 q 600 94 514 94 z "},"⅞":{"ha":833,"x_min":18,"x_max":815,"o":"m 111 447 q 152 671 111 561 q 264 871 193 781 l 21 871 l 21 986 l 404 986 l 404 883 q 285 685 324 786 q 247 447 247 583 l 111 447 m 440 631 l 621 986 l 757 986 l 575 631 l 440 631 m 18 0 l 200 354 l 335 354 l 154 0 l 18 0 m 593 -11 q 423 31 475 -11 q 371 143 371 72 q 496 290 371 253 q 421 332 447 304 q 394 411 394 360 q 441 513 394 476 q 593 549 488 549 q 745 513 699 549 q 792 411 792 476 q 765 332 792 360 q 690 290 739 304 q 815 143 815 250 q 763 31 815 72 q 593 -11 711 -11 m 593 329 q 641 343 622 329 q 660 388 660 357 q 593 443 660 443 q 526 388 526 443 q 545 343 526 357 q 593 329 564 329 m 593 94 q 679 164 679 94 q 656 218 679 196 q 593 240 633 240 q 530 218 553 240 q 507 164 507 196 q 593 94 507 94 z "},"₀":{"ha":833,"x_min":176,"x_max":657,"o":"m 417 -150 q 240 -76 304 -150 q 176 131 176 -1 q 240 336 176 263 q 417 410 304 410 q 593 336 529 410 q 657 131 657 263 q 593 -76 657 -1 q 417 -150 529 -150 m 313 131 q 322 46 313 82 l 467 289 q 417 303 446 303 q 338 261 364 303 q 313 131 313 219 m 417 -43 q 521 131 521 -43 q 513 217 521 181 l 367 -28 q 417 -43 389 -43 z "},"₁":{"ha":833,"x_min":276,"x_max":557,"o":"m 419 -139 l 419 171 l 276 169 l 276 272 l 315 272 q 412 306 379 272 q 444 399 444 340 l 557 399 l 557 -139 l 419 -139 z "},"₂":{"ha":833,"x_min":218,"x_max":617,"o":"m 221 -139 q 233 -15 221 -64 q 276 67 244 33 q 368 132 308 101 l 432 165 q 478 197 465 182 q 492 243 492 213 q 474 287 492 269 q 425 304 457 304 q 367 286 388 304 q 342 225 347 268 l 218 232 q 280 364 226 318 q 424 410 333 410 q 569 364 522 410 q 617 246 617 318 q 584 144 617 182 q 490 74 551 106 l 429 43 q 378 8 392 25 q 364 -24 364 -8 l 603 -24 l 603 -139 l 221 -139 z "},"₃":{"ha":833,"x_min":208,"x_max":625,"o":"m 414 -150 q 258 -110 303 -150 q 208 8 214 -71 l 340 14 q 414 -44 346 -44 q 468 -27 449 -44 q 488 22 488 -10 q 467 71 488 53 q 408 89 446 89 l 369 89 l 369 183 l 408 183 q 451 199 435 183 q 468 240 468 214 q 408 304 468 304 q 346 244 351 304 l 214 251 q 270 369 222 328 q 407 410 318 410 q 556 369 510 410 q 603 265 603 329 q 500 143 603 168 q 596 98 567 131 q 625 14 625 65 q 571 -104 625 -58 q 414 -150 517 -150 z "},"₄":{"ha":833,"x_min":188,"x_max":646,"o":"m 440 -139 l 440 -33 l 188 -33 l 188 65 l 428 399 l 578 399 l 578 74 l 646 74 l 646 -33 l 578 -33 l 578 -139 l 440 -139 m 317 74 l 440 74 l 440 235 l 317 74 z "},"₅":{"ha":833,"x_min":211,"x_max":622,"o":"m 413 -150 q 267 -110 315 -150 q 211 1 218 -69 l 343 8 q 414 -44 354 -44 q 469 -23 450 -44 q 489 42 489 -1 q 472 103 489 81 q 419 126 454 126 q 344 82 369 126 l 219 82 l 253 399 l 596 399 l 596 292 l 369 292 l 356 186 q 451 218 389 218 q 579 169 536 218 q 622 40 622 121 q 567 -99 622 -49 q 413 -150 511 -150 z "},"₆":{"ha":833,"x_min":193,"x_max":638,"o":"m 417 -150 q 252 -86 311 -150 q 193 108 193 -22 q 253 326 193 243 q 440 410 313 410 q 638 274 611 410 l 515 258 q 436 307 506 307 q 326 179 338 307 q 369 213 340 199 q 442 226 399 226 q 585 179 532 226 q 638 40 638 132 q 578 -99 638 -49 q 417 -150 518 -150 m 419 -44 q 487 -21 463 -44 q 511 43 511 3 q 488 108 511 86 q 421 131 464 131 q 357 108 382 131 q 331 44 332 85 q 355 -20 331 4 q 419 -44 379 -44 z "},"₇":{"ha":833,"x_min":225,"x_max":608,"o":"m 315 -139 q 356 85 315 -25 q 468 285 397 194 l 225 285 l 225 400 l 608 400 l 608 297 q 490 99 528 200 q 451 -139 451 -3 l 315 -139 z "},"₈":{"ha":833,"x_min":194,"x_max":639,"o":"m 417 -150 q 247 -108 299 -150 q 194 4 194 -67 q 319 151 194 114 q 244 193 271 165 q 218 272 218 221 q 265 374 218 338 q 417 410 311 410 q 569 374 522 410 q 615 272 615 338 q 589 193 615 221 q 514 151 563 165 q 639 4 639 111 q 587 -108 639 -67 q 417 -150 535 -150 m 417 190 q 465 204 446 190 q 483 249 483 218 q 417 304 483 304 q 350 249 350 304 q 369 204 350 218 q 417 190 388 190 m 417 -44 q 503 25 503 -44 q 480 79 503 57 q 417 101 457 101 q 353 79 376 101 q 331 25 331 57 q 417 -44 331 -44 z "},"₉":{"ha":833,"x_min":196,"x_max":640,"o":"m 417 410 q 581 347 522 410 q 640 151 640 283 q 581 -67 640 17 q 393 -150 521 -150 q 196 -14 222 -150 l 318 1 q 397 -47 328 -47 q 507 81 496 -47 q 465 48 493 63 q 392 33 436 33 q 249 81 301 33 q 196 219 196 128 q 256 359 196 308 q 417 410 315 410 m 414 304 q 347 281 371 304 q 322 217 322 257 q 346 151 322 174 q 413 129 369 129 q 476 152 451 129 q 503 215 501 175 q 478 280 503 256 q 414 304 454 304 z "},"⁰":{"ha":833,"x_min":176,"x_max":657,"o":"m 417 438 q 240 512 304 438 q 176 718 176 586 q 240 924 176 850 q 417 997 304 997 q 593 924 529 997 q 657 718 657 850 q 593 512 657 586 q 417 438 529 438 m 313 718 q 322 633 313 669 l 467 876 q 417 890 446 890 q 338 849 364 890 q 313 718 313 807 m 417 544 q 521 718 521 544 q 513 804 521 768 l 367 560 q 417 544 389 544 z "},"¹":{"ha":833,"x_min":276,"x_max":557,"o":"m 419 449 l 419 758 l 276 757 l 276 860 l 315 860 q 412 894 379 860 q 444 986 444 928 l 557 986 l 557 449 l 419 449 z "},"²":{"ha":833,"x_min":218,"x_max":617,"o":"m 221 449 q 233 572 221 524 q 276 655 244 621 q 368 719 308 689 l 432 753 q 478 785 465 769 q 492 831 492 800 q 474 874 492 857 q 425 892 457 892 q 367 874 388 892 q 342 813 347 856 l 218 819 q 280 951 226 906 q 424 997 333 997 q 569 951 522 997 q 617 833 617 906 q 584 731 617 769 q 490 661 551 693 l 429 631 q 378 596 392 613 q 364 564 364 579 l 603 564 l 603 449 l 221 449 z "},"³":{"ha":833,"x_min":208,"x_max":625,"o":"m 414 438 q 258 477 303 438 q 208 596 214 517 l 340 601 q 414 543 346 543 q 468 560 449 543 q 488 610 488 578 q 467 658 488 640 q 408 676 446 676 l 369 676 l 369 771 l 408 771 q 451 786 435 771 q 468 828 468 801 q 408 892 468 892 q 346 832 351 892 l 214 839 q 270 956 222 915 q 407 997 318 997 q 556 957 510 997 q 603 853 603 917 q 500 731 603 756 q 596 685 567 718 q 625 601 625 653 q 571 483 625 529 q 414 438 517 438 z "},"⁴":{"ha":833,"x_min":188,"x_max":646,"o":"m 440 449 l 440 554 l 188 554 l 188 653 l 428 986 l 578 986 l 578 661 l 646 661 l 646 554 l 578 554 l 578 449 l 440 449 m 317 661 l 440 661 l 440 822 l 317 661 z "},"⁵":{"ha":833,"x_min":211,"x_max":622,"o":"m 413 438 q 267 478 315 438 q 211 589 218 518 l 343 596 q 414 543 354 543 q 469 565 450 543 q 489 629 489 586 q 472 691 489 668 q 419 714 454 714 q 344 669 369 714 l 219 669 l 253 986 l 596 986 l 596 879 l 369 879 l 356 774 q 451 806 389 806 q 579 757 536 806 q 622 628 622 708 q 567 488 622 539 q 413 438 511 438 z "},"⁶":{"ha":833,"x_min":193,"x_max":638,"o":"m 417 438 q 252 501 311 438 q 193 696 193 565 q 253 914 193 831 q 440 997 313 997 q 638 861 611 997 l 515 846 q 436 894 506 894 q 326 767 338 894 q 369 800 340 786 q 442 814 399 814 q 585 767 532 814 q 638 628 638 719 q 578 488 638 539 q 417 438 518 438 m 419 543 q 487 567 463 543 q 511 631 511 590 q 488 696 511 674 q 421 718 464 718 q 357 695 382 718 q 331 632 332 672 q 355 567 331 592 q 419 543 379 543 z "},"⁷":{"ha":833,"x_min":225,"x_max":608,"o":"m 315 447 q 356 671 315 561 q 468 871 397 781 l 225 871 l 225 986 l 608 986 l 608 883 q 490 685 528 786 q 451 447 451 583 l 315 447 z "},"⁸":{"ha":833,"x_min":194,"x_max":639,"o":"m 417 438 q 247 479 299 438 q 194 592 194 521 q 319 739 194 701 q 244 781 271 753 q 218 860 218 808 q 265 961 218 925 q 417 997 311 997 q 569 961 522 997 q 615 860 615 925 q 589 781 615 808 q 514 739 563 753 q 639 592 639 699 q 587 479 639 521 q 417 438 535 438 m 417 778 q 465 792 446 778 q 483 836 483 806 q 417 892 483 892 q 350 836 350 892 q 369 792 350 806 q 417 778 388 778 m 417 543 q 503 613 503 543 q 480 667 503 644 q 417 689 457 689 q 353 667 376 689 q 331 613 331 644 q 417 543 331 543 z "},"⁹":{"ha":833,"x_min":196,"x_max":640,"o":"m 417 997 q 581 934 522 997 q 640 739 640 871 q 581 521 640 604 q 393 438 521 438 q 196 574 222 438 l 318 589 q 397 540 328 540 q 507 668 496 540 q 465 635 493 650 q 392 621 436 621 q 249 668 301 621 q 196 807 196 715 q 256 947 196 896 q 417 997 315 997 m 414 892 q 347 868 371 892 q 322 804 322 844 q 346 739 322 761 q 413 717 369 717 q 476 740 451 717 q 503 803 501 763 q 478 867 503 843 q 414 892 454 892 z "}," ":{"ha":833,"x_min":0,"x_max":0,"o":""}," ":{"ha":833,"x_min":0,"x_max":0,"o":""},".":{"ha":833,"x_min":307,"x_max":526,"o":"m 307 0 l 307 210 l 526 210 l 526 0 l 307 0 z "},",":{"ha":833,"x_min":308,"x_max":525,"o":"m 331 -218 l 400 0 l 308 0 l 308 210 l 525 210 l 525 21 l 432 -218 l 331 -218 z "},":":{"ha":833,"x_min":307,"x_max":526,"o":"m 307 0 l 307 210 l 526 210 l 526 0 l 307 0 m 307 508 l 307 718 l 526 718 l 526 508 l 307 508 z "},";":{"ha":833,"x_min":307,"x_max":526,"o":"m 307 508 l 307 718 l 526 718 l 526 508 l 307 508 m 331 -218 l 400 0 l 308 0 l 308 210 l 525 210 l 525 21 l 432 -218 l 331 -218 z "},"…":{"ha":833,"x_min":28,"x_max":806,"o":"m 28 0 l 28 210 l 247 210 l 247 0 l 28 0 m 307 0 l 307 210 l 526 210 l 526 0 l 307 0 m 586 0 l 586 210 l 806 210 l 806 0 l 586 0 z "},"!":{"ha":833,"x_min":307,"x_max":526,"o":"m 351 317 q 340 422 346 358 q 329 552 333 485 q 325 675 325 619 l 325 986 l 508 986 l 508 675 q 504 552 508 619 q 494 422 500 485 q 482 317 488 358 l 351 317 m 307 0 l 307 210 l 526 210 l 526 0 l 307 0 z "},"¡":{"ha":833,"x_min":307,"x_max":526,"o":"m 307 761 l 526 761 l 526 551 l 307 551 l 307 761 m 351 444 l 482 444 q 494 340 488 403 q 504 209 500 276 q 508 86 508 142 l 508 -225 l 325 -225 l 325 86 q 329 209 325 142 q 340 340 333 276 q 351 444 346 403 z "},"?":{"ha":833,"x_min":69,"x_max":764,"o":"m 328 297 q 355 469 328 404 q 456 574 382 533 q 527 620 503 599 q 560 665 551 642 q 568 722 568 689 q 536 806 568 771 q 432 840 504 840 q 315 802 353 840 q 267 686 276 764 l 69 696 q 123 858 78 788 q 247 968 168 928 q 432 1008 325 1008 q 611 972 538 1008 q 724 871 685 935 q 764 725 764 807 q 724 582 764 636 q 600 478 685 528 q 519 403 539 442 q 499 297 499 365 l 328 297 m 307 0 l 307 210 l 526 210 l 526 0 l 307 0 z "},"¿":{"ha":833,"x_min":69,"x_max":764,"o":"m 526 763 l 526 553 l 307 553 l 307 763 l 526 763 m 401 -225 q 156 -149 243 -225 q 69 49 69 -72 q 109 194 69 140 q 233 300 149 249 q 315 369 294 336 q 335 454 335 403 l 506 454 q 478 301 506 358 q 378 204 451 244 q 306 156 331 178 q 274 110 282 135 q 265 53 265 86 q 297 -26 265 6 q 401 -57 329 -57 q 519 -19 481 -57 q 567 97 557 19 l 764 88 q 710 -74 756 -4 q 587 -185 665 -144 q 401 -225 508 -225 z "},"·":{"ha":833,"x_min":307,"x_max":526,"o":"m 307 315 l 307 525 l 526 525 l 526 315 l 307 315 z "},"•":{"ha":833,"x_min":225,"x_max":608,"o":"m 417 231 q 320 256 364 231 q 251 324 276 281 q 225 421 225 367 q 251 516 225 474 q 320 583 276 558 q 417 608 364 608 q 514 583 471 608 q 583 516 557 558 q 608 421 608 474 q 583 324 608 367 q 514 256 557 281 q 417 231 471 231 z "},"*":{"ha":833,"x_min":172,"x_max":661,"o":"m 335 508 l 238 568 l 324 694 l 172 693 l 172 817 l 324 815 l 238 942 l 335 1001 l 417 868 l 499 1001 l 596 942 l 510 815 l 661 817 l 661 693 l 510 694 l 596 568 l 499 508 l 417 642 l 335 508 z "},"〃":{"ha":833,"x_min":181,"x_max":653,"o":"m 400 390 l 485 668 l 653 668 l 528 390 l 400 390 m 181 390 l 265 668 l 433 668 l 308 390 l 181 390 z "},"#":{"ha":833,"x_min":44,"x_max":789,"o":"m 111 0 l 153 242 l 44 242 l 67 392 l 178 392 l 211 588 l 99 588 l 119 739 l 236 739 l 279 986 l 429 986 l 388 739 l 526 739 l 568 986 l 722 986 l 681 739 l 789 739 l 767 588 l 656 588 l 622 392 l 735 392 l 714 242 l 597 242 l 556 0 l 401 0 l 442 242 l 306 242 l 267 0 l 111 0 m 331 392 l 468 392 l 500 588 l 364 588 l 331 392 z "},"/":{"ha":833,"x_min":119,"x_max":714,"o":"m 119 -153 l 536 1042 l 714 1042 l 297 -153 l 119 -153 z "},"\\":{"ha":833,"x_min":119,"x_max":714,"o":"m 714 -153 l 536 -153 l 119 1042 l 297 1042 l 714 -153 z "},"-":{"ha":833,"x_min":186,"x_max":647,"o":"m 186 319 l 186 490 l 647 490 l 647 319 l 186 319 z "},"–":{"ha":833,"x_min":131,"x_max":703,"o":"m 131 321 l 131 490 l 703 490 l 703 321 l 131 321 z "},"—":{"ha":833,"x_min":28,"x_max":806,"o":"m 28 321 l 28 490 l 806 490 l 806 321 l 28 321 z "},"_":{"ha":833,"x_min":94,"x_max":739,"o":"m 94 -168 l 94 0 l 739 0 l 739 -168 l 94 -168 z "},"〜":{"ha":833,"x_min":7,"x_max":826,"o":"m 579 292 q 408 354 501 292 q 254 415 315 415 q 176 385 214 415 q 110 299 139 354 l 7 401 q 69 490 29 453 q 157 548 108 528 q 254 568 206 568 q 425 506 332 568 q 579 444 518 444 q 657 474 619 444 q 724 560 694 504 l 826 460 q 765 370 806 408 q 676 312 725 332 q 579 292 628 292 z "},"(":{"ha":833,"x_min":231,"x_max":604,"o":"m 418 -153 q 231 444 231 142 q 418 1042 231 747 l 604 1042 q 436 444 436 743 q 604 -153 436 149 l 418 -153 z "},")":{"ha":833,"x_min":229,"x_max":603,"o":"m 415 -153 l 229 -153 q 397 444 397 149 q 229 1042 397 743 l 415 1042 q 603 444 603 747 q 415 -153 603 142 z "},"{":{"ha":833,"x_min":171,"x_max":663,"o":"m 575 -174 q 370 -100 443 -174 q 297 89 297 -26 l 297 204 q 267 324 297 290 q 171 358 236 358 l 171 522 q 267 555 236 521 q 297 676 297 589 l 297 792 q 370 980 297 907 q 575 1053 443 1053 l 663 1053 l 663 874 q 535 849 575 878 q 496 758 496 821 l 496 663 q 447 508 496 564 q 335 444 399 453 l 335 436 q 448 372 400 428 q 496 218 496 317 l 496 121 q 535 27 496 57 q 663 0 575 -3 l 663 -174 l 575 -174 z "},"}":{"ha":833,"x_min":171,"x_max":663,"o":"m 258 -174 l 171 -174 l 171 0 q 298 27 258 -3 q 338 121 338 57 l 338 218 q 385 372 338 317 q 499 436 433 428 l 499 444 q 386 508 435 453 q 338 663 338 564 l 338 758 q 298 849 338 821 q 171 874 258 878 l 171 1053 l 258 1053 q 463 980 390 1053 q 536 792 536 907 l 536 676 q 567 555 536 589 q 663 522 597 521 l 663 358 q 567 324 597 358 q 536 204 536 290 l 536 89 q 463 -100 536 -26 q 258 -174 390 -174 z "},"[":{"ha":833,"x_min":206,"x_max":628,"o":"m 628 -153 l 206 -153 l 206 1042 l 628 1042 l 628 878 l 406 878 l 406 11 l 628 11 l 628 -153 z "},"]":{"ha":833,"x_min":206,"x_max":628,"o":"m 206 -153 l 206 11 l 428 11 l 428 878 l 206 878 l 206 1042 l 628 1042 l 628 -153 l 206 -153 z "},"〈":{"ha":833,"x_min":228,"x_max":618,"o":"m 464 -158 l 228 492 l 464 1140 l 618 1140 l 382 492 l 618 -158 l 464 -158 z "},"〉":{"ha":833,"x_min":215,"x_max":606,"o":"m 369 -158 l 215 -158 l 451 492 l 215 1140 l 369 1140 l 606 492 l 369 -158 z "},"【":{"ha":833,"x_min":246,"x_max":639,"o":"m 639 -87 l 246 -87 l 246 1146 l 639 1146 q 480 738 519 947 q 480 321 440 529 q 639 -87 519 113 z "},"】":{"ha":833,"x_min":194,"x_max":588,"o":"m 194 -87 q 353 321 314 113 q 353 738 393 529 q 194 1146 314 947 l 588 1146 l 588 -87 l 194 -87 z "},"「":{"ha":833,"x_min":236,"x_max":663,"o":"m 236 325 l 236 1147 l 663 1147 l 663 1014 l 372 1014 l 372 325 l 236 325 z "},"」":{"ha":833,"x_min":171,"x_max":597,"o":"m 597 679 l 597 -143 l 171 -143 l 171 -10 l 461 -10 l 461 679 l 597 679 z "},"《":{"ha":833,"x_min":81,"x_max":754,"o":"m 317 -158 l 81 492 l 317 1140 l 472 1140 l 235 492 l 472 -158 l 317 -158 m 599 -158 l 363 492 l 599 1140 l 754 1140 l 517 492 l 754 -158 l 599 -158 z "},"》":{"ha":833,"x_min":81,"x_max":753,"o":"m 517 -158 l 363 -158 l 599 492 l 363 1140 l 517 1140 l 753 492 l 517 -158 m 235 -158 l 81 -158 l 317 492 l 81 1140 l 235 1140 l 471 492 l 235 -158 z "},"〔":{"ha":833,"x_min":235,"x_max":672,"o":"m 583 -203 l 235 111 l 235 871 l 581 1181 l 669 1083 l 371 817 l 371 165 l 672 -106 l 583 -203 z "},"〕":{"ha":833,"x_min":161,"x_max":599,"o":"m 250 -203 l 161 -106 l 463 165 l 463 817 l 164 1083 l 253 1181 l 599 871 l 599 111 l 250 -203 z "},"『":{"ha":833,"x_min":236,"x_max":657,"o":"m 236 324 l 236 1147 l 657 1147 l 657 925 l 458 925 l 458 324 l 236 324 m 297 385 l 397 385 l 397 986 l 596 986 l 596 1086 l 297 1086 l 297 385 z "},"』":{"ha":833,"x_min":176,"x_max":597,"o":"m 597 689 l 597 -135 l 176 -135 l 176 88 l 375 88 l 375 689 l 597 689 m 536 628 l 436 628 l 436 26 l 238 26 l 238 -74 l 536 -74 l 536 628 z "},"〖":{"ha":833,"x_min":246,"x_max":661,"o":"m 661 -87 l 246 -87 l 246 1146 l 661 1146 q 502 738 542 947 q 502 321 463 529 q 661 -87 542 113 m 531 -14 q 531 1072 275 531 l 324 1072 l 324 -14 l 531 -14 z "},"〗":{"ha":833,"x_min":172,"x_max":588,"o":"m 172 -87 q 331 321 292 113 q 331 738 371 529 q 172 1146 292 947 l 588 1146 l 588 -87 l 172 -87 m 303 -14 l 510 -14 l 510 1072 l 303 1072 q 303 -14 558 531 z "},"‚":{"ha":833,"x_min":308,"x_max":525,"o":"m 331 -218 l 400 0 l 308 0 l 308 210 l 525 210 l 525 21 l 432 -218 l 331 -218 z "},"„":{"ha":833,"x_min":153,"x_max":681,"o":"m 175 -218 l 244 0 l 153 0 l 153 210 l 369 210 l 369 21 l 276 -218 l 175 -218 m 486 -218 l 556 0 l 464 0 l 464 210 l 681 210 l 681 21 l 588 -218 l 486 -218 z "},"“":{"ha":833,"x_min":153,"x_max":681,"o":"m 658 1008 l 589 790 l 681 790 l 681 581 l 464 581 l 464 769 l 557 1008 l 658 1008 m 347 1008 l 278 790 l 369 790 l 369 581 l 153 581 l 153 769 l 246 1008 l 347 1008 z "},"”":{"ha":833,"x_min":153,"x_max":681,"o":"m 175 558 l 244 776 l 153 776 l 153 986 l 369 986 l 369 797 l 276 558 l 175 558 m 486 558 l 556 776 l 464 776 l 464 986 l 681 986 l 681 797 l 588 558 l 486 558 z "},"‘":{"ha":833,"x_min":317,"x_max":533,"o":"m 511 1008 l 442 789 l 533 789 l 533 581 l 317 581 l 317 768 l 410 1008 l 511 1008 z "},"’":{"ha":833,"x_min":300,"x_max":517,"o":"m 322 558 l 392 776 l 300 776 l 300 986 l 517 986 l 517 797 l 424 558 l 322 558 z "},"«":{"ha":833,"x_min":68,"x_max":765,"o":"m 465 106 l 276 106 l 68 351 l 68 415 l 276 661 l 465 661 l 229 383 l 465 106 m 765 106 l 576 106 l 368 351 l 368 415 l 576 661 l 765 661 l 529 383 l 765 106 z "},"»":{"ha":833,"x_min":68,"x_max":765,"o":"m 369 106 l 606 383 l 369 661 l 558 661 l 765 415 l 765 351 l 558 106 l 369 106 m 68 106 l 304 383 l 68 661 l 257 661 l 464 415 l 464 351 l 257 106 l 68 106 z "},"‹":{"ha":833,"x_min":218,"x_max":615,"o":"m 615 106 l 426 106 l 218 351 l 218 415 l 426 661 l 615 661 l 379 383 l 615 106 z "},"›":{"ha":833,"x_min":218,"x_max":615,"o":"m 218 106 l 454 383 l 218 661 l 407 661 l 615 415 l 615 351 l 407 106 l 218 106 z "},"\"":{"ha":833,"x_min":203,"x_max":631,"o":"m 476 522 l 471 986 l 631 986 l 631 869 l 597 522 l 476 522 m 236 522 l 203 869 l 203 986 l 363 986 l 357 522 l 236 522 z "},"'":{"ha":833,"x_min":333,"x_max":500,"o":"m 351 522 l 333 869 l 333 986 l 500 986 l 500 869 l 482 522 l 351 522 z "},"ƒ":{"ha":833,"x_min":86,"x_max":747,"o":"m 86 0 l 86 168 l 217 168 q 296 244 288 168 l 329 553 l 165 553 l 165 703 l 346 703 l 356 789 q 427 933 367 879 q 582 986 488 988 l 747 985 l 747 815 l 619 815 q 535 740 544 815 l 531 703 l 747 703 l 747 553 l 514 553 l 474 196 q 404 50 464 103 q 247 -1 344 -3 l 86 0 z "},"฿":{"ha":833,"x_min":74,"x_max":760,"o":"m 74 0 l 74 986 l 332 986 l 332 1118 l 438 1118 l 438 983 q 649 906 576 972 q 722 722 722 840 q 674 583 722 640 q 525 508 625 526 q 703 429 646 493 q 760 269 760 365 q 676 75 760 143 q 438 0 593 7 l 438 -126 l 332 -126 l 332 0 l 74 0 m 264 585 l 332 585 l 332 811 l 264 811 l 264 585 m 536 699 q 438 808 536 792 l 438 588 q 536 699 536 604 m 264 175 l 332 175 l 332 415 l 264 415 l 264 175 m 572 292 q 538 379 572 347 q 438 414 504 411 l 438 176 q 539 210 506 179 q 572 292 572 240 z "},"":{"ha":833,"x_min":11,"x_max":822,"o":"m 146 0 q 49 38 88 0 q 11 135 11 76 l 11 676 q 49 773 11 735 q 146 811 88 811 l 688 811 q 784 773 746 811 q 822 676 822 735 l 822 135 q 784 38 822 76 q 688 0 746 0 l 146 0 m 119 172 l 713 172 l 415 688 l 119 172 z "},"@":{"ha":833,"x_min":19,"x_max":814,"o":"m 601 -112 q 378 -161 478 -161 q 195 -111 276 -161 q 67 49 114 -61 q 19 336 19 158 q 78 692 19 547 q 238 911 138 836 q 465 986 339 986 q 654 928 576 986 q 773 767 732 871 q 814 526 814 664 q 764 217 814 325 q 610 108 714 108 q 536 135 568 108 q 490 211 504 163 q 431 137 469 163 q 350 111 392 111 q 238 172 279 111 q 197 347 197 232 q 222 525 197 446 q 291 651 246 604 q 399 697 336 697 q 461 682 436 697 q 499 640 486 667 l 503 689 l 624 689 q 609 549 617 621 q 597 411 601 476 q 593 296 593 346 q 632 218 593 218 q 685 287 661 218 q 708 522 708 356 q 683 710 708 629 q 602 837 657 792 q 461 882 547 882 q 290 820 367 882 q 169 638 214 758 q 125 340 125 517 q 158 106 125 193 q 249 -18 192 19 q 381 -56 307 -56 q 472 -44 428 -56 q 568 -11 517 -33 l 601 -112 m 390 217 q 453 288 426 217 q 479 479 479 358 q 465 563 479 533 q 422 593 451 593 q 361 525 388 593 q 335 353 335 457 q 349 253 335 289 q 390 217 364 217 z "},"&":{"ha":833,"x_min":11,"x_max":814,"o":"m 314 -22 q 88 45 165 -22 q 11 235 11 113 q 58 403 11 336 q 208 539 104 471 q 142 641 169 590 q 115 757 115 692 q 188 940 115 871 q 393 1008 261 1008 q 594 945 531 1008 q 658 781 658 882 q 606 628 658 693 q 450 497 554 563 l 594 308 q 626 371 613 332 q 640 457 639 410 l 813 436 q 774 283 807 357 q 693 157 740 210 l 814 0 l 611 0 l 569 53 q 471 0 533 22 q 314 -22 408 -22 m 364 621 q 472 761 472 688 q 451 818 472 797 q 392 839 429 839 q 327 817 350 839 q 304 757 304 794 q 317 695 304 728 q 364 621 329 663 m 338 153 q 416 164 383 153 q 468 194 449 175 l 303 411 q 211 264 211 347 q 243 183 211 214 q 338 153 275 153 z "},"¶":{"ha":833,"x_min":61,"x_max":736,"o":"m 308 0 l 308 428 q 184 463 240 428 q 94 560 128 497 q 61 707 61 622 q 95 854 61 792 q 186 951 129 917 q 311 986 243 986 l 736 986 l 736 0 l 567 0 l 567 828 l 478 828 l 478 0 l 308 0 z "},"§":{"ha":833,"x_min":78,"x_max":756,"o":"m 435 -92 q 183 -22 276 -92 q 78 161 89 47 l 279 172 q 326 88 288 118 q 429 58 364 58 q 519 79 490 58 q 549 135 549 100 q 507 194 549 169 q 358 240 465 219 q 157 324 219 269 q 99 468 94 378 q 128 558 101 518 q 211 625 156 599 q 126 693 153 656 q 99 779 99 731 q 187 948 99 888 q 425 1008 275 1008 q 649 942 560 1008 q 756 757 738 876 l 557 749 q 511 831 549 801 q 417 861 474 861 q 336 839 367 861 q 306 782 306 817 q 337 725 306 746 q 440 689 368 704 q 672 607 592 658 q 753 450 753 556 q 643 296 753 343 q 728 227 701 267 q 754 131 754 188 q 666 -33 754 26 q 435 -92 578 -92 m 444 367 q 533 390 499 367 q 567 456 567 414 q 542 513 567 490 q 479 545 517 535 q 404 556 442 556 q 319 531 353 556 q 286 468 286 506 q 323 398 286 428 q 444 367 360 368 z "},"©":{"ha":833,"x_min":6,"x_max":828,"o":"m 415 -17 q 200 47 292 -17 q 57 226 108 111 q 6 496 6 342 q 57 765 6 650 q 200 944 108 881 q 415 1008 292 1008 q 632 944 539 1008 q 776 765 725 881 q 828 496 828 650 q 776 226 828 342 q 632 47 725 111 q 415 -17 539 -17 m 415 88 q 635 197 554 88 q 717 496 717 307 q 635 795 717 686 q 415 904 554 904 q 197 795 276 904 q 117 496 117 686 q 197 197 117 307 q 415 88 276 88 m 418 217 q 297 251 350 217 q 212 347 243 285 q 181 494 181 410 q 212 642 181 579 q 297 740 243 706 q 418 775 350 775 q 576 719 510 775 q 651 571 642 664 l 504 564 q 479 632 500 607 q 426 657 458 657 q 360 613 382 657 q 338 494 338 568 q 360 378 338 421 q 426 335 382 335 q 481 363 460 335 q 508 439 503 392 l 656 432 q 578 276 643 335 q 418 217 513 217 z "},"®":{"ha":833,"x_min":24,"x_max":810,"o":"m 417 222 q 265 253 336 222 q 139 338 193 283 q 54 463 85 392 q 24 617 24 535 q 54 769 24 697 q 139 894 85 840 q 265 978 193 947 q 417 1008 336 1008 q 569 978 499 1008 q 694 894 640 947 q 779 769 749 840 q 810 617 810 697 q 779 463 810 535 q 694 338 749 392 q 569 253 640 283 q 417 222 499 222 m 417 308 q 574 350 507 308 q 679 462 642 392 q 717 617 717 532 q 679 771 717 701 q 574 882 642 840 q 417 924 507 924 q 261 882 329 924 q 155 771 193 840 q 117 617 117 701 q 155 462 117 532 q 261 350 193 392 q 417 308 329 308 m 254 410 l 254 825 l 421 825 q 549 789 500 825 q 597 693 597 753 q 576 620 597 651 q 517 575 556 589 l 607 410 l 482 410 l 408 558 l 368 558 l 368 410 l 254 410 m 367 642 l 411 642 q 463 653 443 642 q 482 690 482 665 q 463 726 482 715 q 411 738 443 738 l 367 738 l 367 642 z "},"℗":{"ha":833,"x_min":24,"x_max":810,"o":"m 417 222 q 265 253 336 222 q 139 338 193 283 q 54 463 85 392 q 24 617 24 535 q 54 769 24 697 q 139 894 85 840 q 265 978 193 947 q 417 1008 336 1008 q 569 978 499 1008 q 694 894 640 947 q 779 769 749 840 q 810 617 810 697 q 779 463 810 535 q 694 338 749 392 q 569 253 640 283 q 417 222 499 222 m 417 308 q 574 350 507 308 q 679 462 642 392 q 717 617 717 532 q 679 771 717 701 q 574 882 642 840 q 417 924 507 924 q 261 882 329 924 q 155 771 193 840 q 117 617 117 701 q 155 462 117 532 q 261 350 193 392 q 417 308 329 308 m 269 410 l 269 825 l 439 825 q 569 789 525 825 q 613 693 613 753 q 569 595 613 632 q 439 558 525 558 l 383 558 l 383 410 l 269 410 m 383 642 l 429 642 q 479 653 460 642 q 499 690 499 665 q 479 726 499 715 q 429 738 460 738 l 383 738 l 383 642 z "},"™":{"ha":833,"x_min":19,"x_max":814,"o":"m 365 499 l 365 986 l 486 986 l 589 647 l 694 986 l 814 986 l 814 499 l 706 499 l 706 724 l 633 499 l 546 499 l 472 724 l 472 499 l 365 499 m 115 499 l 115 876 l 19 876 l 19 986 l 328 986 l 328 876 l 231 876 l 231 499 l 115 499 z "},"°":{"ha":833,"x_min":171,"x_max":663,"o":"m 417 517 q 294 549 350 517 q 204 637 238 581 q 171 763 171 693 q 204 888 171 832 q 294 976 238 943 q 417 1008 350 1008 q 540 976 483 1008 q 629 888 596 943 q 663 763 663 832 q 629 636 663 692 q 540 549 596 581 q 417 517 483 517 m 417 661 q 488 689 458 661 q 518 763 518 717 q 488 836 518 807 q 417 865 458 865 q 346 836 376 865 q 315 763 315 807 q 345 690 315 718 q 417 661 375 661 z "},"′":{"ha":833,"x_min":296,"x_max":539,"o":"m 296 660 l 350 986 l 539 986 l 467 660 l 296 660 z "},"″":{"ha":833,"x_min":171,"x_max":664,"o":"m 171 660 l 225 986 l 414 986 l 342 660 l 171 660 m 421 660 l 475 986 l 664 986 l 592 660 l 421 660 z "},"|":{"ha":833,"x_min":328,"x_max":506,"o":"m 328 -153 l 328 1042 l 506 1042 l 506 -153 l 328 -153 z "},"¦":{"ha":833,"x_min":328,"x_max":506,"o":"m 328 549 l 328 1042 l 506 1042 l 506 549 l 328 549 m 328 -153 l 328 340 l 506 340 l 506 -153 l 328 -153 z "},"†":{"ha":833,"x_min":113,"x_max":721,"o":"m 319 0 l 319 586 l 113 586 l 113 744 l 319 744 l 319 986 l 514 986 l 514 744 l 721 744 l 721 586 l 514 586 l 514 0 l 319 0 z "},"‡":{"ha":833,"x_min":113,"x_max":721,"o":"m 113 236 l 113 394 l 319 394 l 319 586 l 113 586 l 113 744 l 319 744 l 319 986 l 514 986 l 514 744 l 721 744 l 721 586 l 514 586 l 514 394 l 721 394 l 721 236 l 514 236 l 514 0 l 319 0 l 319 236 l 113 236 z "},"№":{"ha":833,"x_min":6,"x_max":828,"o":"m 656 522 q 525 585 565 522 q 485 765 485 649 q 525 945 485 882 q 656 1008 565 1008 q 788 944 747 1008 q 828 765 828 881 q 787 585 828 649 q 656 522 746 522 m 6 0 l 6 986 l 164 986 l 286 436 l 286 986 l 447 986 l 447 0 l 289 0 l 167 550 l 167 0 l 6 0 m 656 633 q 691 664 681 633 q 701 765 701 694 q 691 866 701 835 q 656 897 681 897 q 621 866 631 897 q 611 765 611 835 q 621 664 611 694 q 656 633 631 633 m 510 283 l 510 425 l 803 425 l 803 283 l 510 283 z "},"␣":{"ha":833,"x_min":47,"x_max":786,"o":"m 47 -269 l 47 0 l 175 0 l 175 -142 l 658 -142 l 658 0 l 786 0 l 786 -269 l 47 -269 z "},"␌":{"ha":833,"x_min":110,"x_max":743,"o":"m 110 417 l 110 875 l 393 875 l 393 800 l 186 800 l 186 678 l 381 678 l 381 604 l 186 604 l 186 417 l 110 417 m 460 99 l 460 557 l 743 557 l 743 482 l 536 482 l 536 360 l 731 360 l 731 286 l 536 286 l 536 99 l 460 99 z "},"⌧":{"ha":833,"x_min":19,"x_max":814,"o":"m 19 0 l 19 986 l 814 986 l 814 0 l 19 0 m 133 114 l 700 114 l 700 872 l 133 872 l 133 114 m 296 286 l 208 371 l 331 493 l 208 615 l 294 701 l 417 579 l 538 700 l 625 615 l 503 493 l 625 371 l 539 285 l 417 407 l 296 286 z "},"⌫":{"ha":833,"x_min":6,"x_max":822,"o":"m 218 0 l 6 490 l 218 986 l 822 986 l 822 0 l 218 0 m 294 114 l 708 114 l 708 872 l 294 872 l 129 492 l 294 114 m 338 294 l 250 379 l 364 493 l 251 607 l 338 693 l 450 579 l 563 692 l 649 607 l 536 493 l 650 379 l 564 293 l 450 407 l 338 294 z "},"⌦":{"ha":833,"x_min":11,"x_max":828,"o":"m 615 0 l 11 0 l 11 986 l 615 986 l 828 490 l 615 0 m 539 114 l 704 492 l 539 872 l 125 872 l 125 114 l 539 114 m 269 293 l 183 379 l 297 493 l 185 607 l 271 692 l 383 579 l 496 693 l 582 607 l 469 493 l 583 379 l 496 294 l 383 407 l 269 293 z "},"⏎":{"ha":833,"x_min":4,"x_max":826,"o":"m 407 -42 l 4 401 l 407 842 l 407 575 l 479 575 l 479 986 l 826 986 l 826 228 l 407 228 l 407 -42 m 314 449 l 314 557 l 171 401 l 314 244 l 314 356 l 700 356 l 700 853 l 607 853 l 607 449 l 314 449 z "},"␋":{"ha":833,"x_min":72,"x_max":761,"o":"m 213 417 l 72 875 l 153 875 l 250 544 l 347 875 l 428 875 l 288 417 l 213 417 m 556 99 l 556 482 l 426 482 l 426 557 l 761 557 l 761 482 l 632 482 l 632 99 l 556 99 z "},"¢":{"ha":833,"x_min":68,"x_max":765,"o":"m 324 -17 l 335 113 q 141 243 214 142 q 68 492 68 344 q 110 688 68 603 q 226 823 151 772 q 400 879 301 874 l 411 1007 l 517 1007 l 506 872 q 678 778 608 851 q 764 594 747 706 l 576 585 q 490 701 557 672 l 454 271 q 534 312 501 278 q 578 406 567 346 l 765 396 q 709 244 754 310 q 594 142 664 179 q 440 103 525 106 l 429 -17 l 324 -17 m 264 492 q 350 289 264 340 l 386 708 q 296 637 328 693 q 264 492 264 581 z "},"¤":{"ha":833,"x_min":36,"x_max":799,"o":"m 117 143 l 36 222 l 163 349 q 123 431 138 386 q 108 522 108 475 q 123 615 108 571 q 164 697 138 660 l 36 825 l 117 904 l 243 778 q 324 817 281 803 q 417 831 368 831 q 510 817 465 831 q 590 776 554 803 l 718 904 l 799 825 l 671 697 q 710 615 696 660 q 725 522 725 571 q 710 431 725 475 q 671 349 696 386 l 799 222 l 718 143 l 592 269 q 510 229 554 243 q 417 215 465 215 q 324 229 368 215 q 243 269 281 243 l 117 143 m 417 358 q 499 381 461 358 q 558 440 536 403 q 581 522 581 478 q 558 606 581 568 q 499 665 536 643 q 417 688 461 688 q 335 665 372 688 q 275 606 297 643 q 253 522 253 568 q 275 440 253 478 q 335 381 297 403 q 417 358 372 358 z "},"$":{"ha":833,"x_min":58,"x_max":775,"o":"m 363 -126 l 363 -11 q 146 94 224 6 q 58 333 68 183 l 250 343 q 363 164 269 197 l 363 422 q 153 522 226 456 q 81 706 81 588 q 153 899 81 824 q 363 989 226 975 l 363 1115 l 475 1115 l 475 988 q 680 890 606 972 q 764 672 754 808 l 572 663 q 543 760 565 722 q 475 815 521 799 l 475 567 q 654 497 589 538 q 747 401 719 457 q 775 268 775 344 q 696 73 775 146 q 475 -12 617 0 l 475 -126 l 363 -126 m 261 714 q 282 647 261 672 q 363 600 303 622 l 363 821 q 261 714 261 803 m 592 261 q 568 335 592 306 q 475 390 544 365 l 475 156 q 592 261 592 169 z "},"€":{"ha":833,"x_min":6,"x_max":800,"o":"m 6 325 l 6 438 l 78 438 q 76 492 76 464 q 76 535 76 514 l 6 535 l 6 647 l 88 647 q 203 913 114 817 q 440 1008 292 1008 q 677 913 583 1008 q 797 643 771 818 l 594 633 q 538 782 579 731 q 440 833 497 833 q 342 785 379 833 q 290 647 306 738 l 518 647 l 503 535 l 281 535 q 279 492 279 514 q 281 438 279 463 l 490 438 l 475 325 l 293 325 q 344 197 308 242 q 440 153 381 153 q 542 208 499 153 q 599 367 585 263 l 800 357 q 681 77 775 176 q 440 -22 588 -22 q 206 69 294 -22 q 89 325 118 161 l 6 325 z "},"₴":{"ha":833,"x_min":19,"x_max":814,"o":"m 19 531 l 19 644 l 556 644 q 572 679 565 660 q 578 724 578 699 q 542 811 578 778 q 426 844 506 844 q 315 812 353 844 q 261 722 278 779 l 75 733 q 188 931 100 854 q 418 1008 275 1008 q 668 933 579 1008 q 757 735 757 858 q 751 681 757 703 q 736 644 744 658 l 814 644 l 814 531 l 19 531 m 400 -17 q 155 54 246 -17 q 64 247 64 125 q 68 292 64 269 q 78 325 72 314 l 19 325 l 19 439 l 814 439 l 814 325 l 260 325 q 244 263 244 300 q 288 176 244 204 q 396 147 331 147 q 514 179 467 147 q 581 269 561 211 l 769 256 q 705 115 754 176 q 578 18 656 53 q 400 -17 500 -17 z "},"₽":{"ha":833,"x_min":33,"x_max":800,"o":"m 136 0 l 136 138 l 33 138 l 33 254 l 136 254 l 136 986 l 454 986 q 635 947 557 986 q 756 835 713 907 q 800 669 800 764 q 756 503 800 574 q 635 392 713 432 q 454 353 557 353 l 333 353 l 333 254 l 539 254 l 539 138 l 333 138 l 333 0 l 136 0 m 333 532 l 433 532 q 597 669 597 532 q 433 808 597 808 l 333 808 l 333 532 z "},"₹":{"ha":833,"x_min":33,"x_max":800,"o":"m 453 0 l 33 371 l 33 526 l 315 526 q 489 621 457 526 l 33 621 l 33 735 l 490 735 q 315 831 460 831 l 33 831 l 33 986 l 800 986 l 800 874 l 613 874 q 674 735 663 815 l 800 735 l 800 621 l 671 621 q 561 438 650 504 q 335 371 472 371 l 261 371 l 688 0 l 453 0 z "},"₪":{"ha":833,"x_min":26,"x_max":807,"o":"m 242 0 l 242 771 l 372 771 l 372 129 l 593 129 q 654 152 632 129 q 676 214 676 175 l 676 986 l 807 986 l 807 208 q 751 56 807 113 q 599 0 694 0 l 242 0 m 26 0 l 26 986 l 383 986 q 534 930 478 986 q 590 778 590 874 l 590 215 l 460 215 l 460 772 q 438 834 460 811 q 376 857 415 857 l 157 857 l 157 0 l 26 0 z "},"£":{"ha":833,"x_min":42,"x_max":792,"o":"m 43 0 l 43 156 q 165 253 124 194 q 206 382 206 311 q 204 407 206 394 q 200 431 203 419 l 42 431 l 42 544 l 175 544 q 144 642 156 597 q 132 728 132 688 q 172 872 132 808 q 283 972 211 935 q 449 1008 354 1008 q 688 933 604 1008 q 792 735 772 858 l 572 725 q 529 803 563 776 q 450 831 496 831 q 362 796 396 831 q 328 708 328 761 q 344 630 328 671 q 375 544 360 589 l 588 544 l 588 431 l 389 431 q 353 278 385 342 q 251 182 321 215 l 775 182 l 775 3 l 43 0 z "},"¥":{"ha":833,"x_min":42,"x_max":792,"o":"m 85 172 l 85 293 l 318 293 l 318 385 l 85 385 l 85 507 l 272 507 l 42 986 l 256 986 l 417 615 l 578 986 l 792 986 l 563 507 l 750 507 l 750 385 l 517 385 l 517 293 l 750 293 l 750 172 l 517 172 l 517 0 l 318 0 l 318 172 l 85 172 z "},"+":{"ha":833,"x_min":76,"x_max":757,"o":"m 76 314 l 76 482 l 332 482 l 332 739 l 501 739 l 501 482 l 757 482 l 757 314 l 501 314 l 501 58 l 332 58 l 332 314 l 76 314 z "},"−":{"ha":833,"x_min":94,"x_max":739,"o":"m 94 314 l 94 482 l 739 482 l 739 314 l 94 314 z "},"×":{"ha":833,"x_min":97,"x_max":736,"o":"m 97 197 l 297 399 l 97 599 l 215 718 l 417 517 l 618 718 l 736 599 l 536 399 l 736 197 l 618 78 l 417 279 l 215 78 l 97 197 z "},"÷":{"ha":833,"x_min":81,"x_max":753,"o":"m 417 554 q 335 585 367 554 q 304 664 304 617 q 335 744 304 713 q 417 775 367 775 q 499 744 467 775 q 531 664 531 713 q 499 585 531 617 q 417 554 467 554 m 81 319 l 81 478 l 753 478 l 753 319 l 81 319 m 417 19 q 335 51 367 19 q 304 131 304 82 q 335 210 304 178 q 417 242 367 242 q 499 210 467 242 q 531 131 531 178 q 499 51 531 82 q 417 19 467 19 z "},"=":{"ha":833,"x_min":106,"x_max":728,"o":"m 106 492 l 106 647 l 728 647 l 728 492 l 106 492 m 106 167 l 106 321 l 728 321 l 728 167 l 106 167 z "},"≠":{"ha":833,"x_min":106,"x_max":728,"o":"m 106 167 l 106 321 l 310 321 l 360 492 l 106 492 l 106 647 l 404 647 l 443 785 l 607 785 l 568 647 l 728 647 l 728 492 l 524 492 l 474 321 l 728 321 l 728 167 l 429 167 l 390 31 l 226 31 l 265 167 l 106 167 z "},">":{"ha":833,"x_min":97,"x_max":736,"o":"m 97 26 l 97 200 l 576 406 l 97 610 l 97 783 l 736 510 l 736 300 l 97 26 z "},"<":{"ha":833,"x_min":97,"x_max":736,"o":"m 736 26 l 97 300 l 97 510 l 736 783 l 736 610 l 257 406 l 736 200 l 736 26 z "},"≥":{"ha":833,"x_min":92,"x_max":742,"o":"m 92 186 l 92 357 l 568 496 l 92 635 l 92 807 l 731 604 l 731 389 l 92 186 m 92 0 l 92 147 l 742 147 l 742 0 l 92 0 z "},"≤":{"ha":833,"x_min":56,"x_max":704,"o":"m 704 186 l 65 389 l 65 604 l 704 807 l 704 635 l 228 496 l 704 357 l 704 186 m 704 0 l 56 0 l 56 147 l 704 147 l 704 0 z "},"±":{"ha":833,"x_min":90,"x_max":743,"o":"m 332 203 l 332 431 l 90 431 l 90 593 l 332 593 l 332 822 l 501 822 l 501 593 l 743 593 l 743 431 l 501 431 l 501 203 l 332 203 m 90 0 l 90 147 l 743 147 l 743 0 l 90 0 z "}}}
